<svg xmlns:ns0="http://www.w3.org/2000/svg" xmlns="http://www.w3.org/2000/svg" width="180" height="126"><g transform="translate(0, 0) scale(0.782608695652174, 0.782608695652174)"><ns0:g id="surface1">
<ns0:path style=" stroke:none;fill-rule:nonzero;fill:rgb(0%,0%,0%);fill-opacity:1;" d="M 0 11.5 L 0 23 L 23 23 L 23 0 L 0 0 Z M 13.207031 7.796875 C 13.996094 8.199219 14.398438 9.101562 14.121094 9.832031 C 13.839844 10.578125 13.25 11.007812 12.503906 11.007812 C 11.933594 11.007812 11.605469 10.859375 11.238281 10.449219 C 10.457031 9.585938 10.710938 8.347656 11.789062 7.777344 C 12.132812 7.589844 12.832031 7.605469 13.207031 7.796875 Z M 9.9375 11.992188 L 9.9375 16.265625 L 6.488281 16.265625 L 6.488281 11.171875 L 3.121094 11.171875 L 3.121094 7.722656 L 9.9375 7.722656 Z M 19.960938 7.777344 C 19.960938 7.8125 19.761719 8.304688 19.515625 8.871094 C 19.277344 9.4375 18.785156 10.578125 18.441406 11.417969 C 17.839844 12.855469 17.601562 13.414062 16.757812 15.417969 L 16.402344 16.265625 L 12.410156 16.265625 L 12.699219 15.582031 C 12.863281 15.210938 13.070312 14.71875 13.160156 14.5 C 13.25 14.269531 13.519531 13.628906 13.757812 13.0625 C 14.003906 12.492188 14.40625 11.53125 14.664062 10.925781 C 14.917969 10.316406 15.171875 9.699219 15.238281 9.570312 C 15.296875 9.429688 15.417969 9.132812 15.507812 8.914062 C 15.597656 8.683594 15.753906 8.328125 15.855469 8.109375 L 16.027344 7.722656 L 17.988281 7.722656 C 19.074219 7.722656 19.960938 7.746094 19.960938 7.777344 Z M 19.960938 7.777344 " />
</ns0:g>
</g><g transform="translate(18, 0) scale(1.0, 1.0)"><ns0:path fill="#F0F3FA" d="M0 0h18v18H0z" /><ns0:circle cx="9" cy="9" r="6" fill="#9391F7" /><ns0:path d="M13.5 9a4.5 4.5 0 1 0-9 0h1v-.18A3.41 3.41 0 0 1 9 5.5 3.41 3.41 0 0 1 12.5 9h1Zm-5-.25a.75.75 0 1 1-1.5 0 .75.75 0 0 1 1.5 0Zm1.75.75a.75.75 0 1 0 0-1.5.75.75 0 0 0 0 1.5Z" fill="#fff" /></g><g transform="translate(36, 0) scale(1.0, 1.0)"><ns0:path fill="#ED1C24" d="M0 0h18v18H0z" /><ns0:path d="M7.676 4H4v10L7.676 4zm2.647 0H14v10L10.323 4zM9 7.667L7.382 12h1.765l.588 2h1.618L9 7.666z" fill="#fff" /></g><g transform="translate(54, 0) scale(1.0, 1.0)"><ns0:path fill="#F0F3FA" d="M0 0h18v18H0z" /><ns0:path d="M9 2.5v4.8l4 1.82L9 2.5Z" fill="#8FFCF3" /><ns0:path d="M9 2.5 5 9.12 9 7.3V2.5Z" fill="#CABCF8" /><ns0:path d="M9 12.23v3.27l4-5.62-4 2.35Z" fill="#CBA7F5" /><ns0:path d="M9 15.5v-3.27L5 9.88l4 5.62Z" fill="#74A0F3" /><ns0:path d="m9 11.48 4-2.36L9 7.3v4.18Z" fill="#CBA7F5" /><ns0:path d="m5 9.12 4 2.36V7.3L5 9.12Z" fill="#74A0F3" /><ns0:path fill-rule="evenodd" d="M9 11.48 5 9.12 9 2.5l4 6.62-4 2.36ZM5.27 8.93l3.67-6.08v4.42L5.27 8.93Zm-.06.16 3.73-1.68v3.88L5.2 9.09Zm3.85-1.68v3.88l3.73-2.2-3.73-1.68Zm0-.14 3.67 1.66-3.67-6.08v4.42Z" fill="#202699" /><ns0:path fill-rule="evenodd" d="m9 12.18-4-2.3 4 5.62 4-5.63-4 2.31Zm-3.55-1.9 3.49 2.01v2.9l-3.5-4.9Zm3.61 2.01v2.9l3.5-4.9-3.5 2Z" fill="#202699" /></g><g transform="translate(72, 0) scale(1.0, 1.0)"><ns0:path fill="url(#avyrl5r0g)" d="M0 0h18v18H0z" /><ns0:path d="M9.94 3.34c.69.56 4.36 4.42 5.04 5.14.05.06 0 .17-.08.17h-1.6c-.17 0-.22-.03-.32-.15l-.63-.68a51.53 51.53 0 0 0-2.87-2.86.8.8 0 0 0-.48-.2.8.8 0 0 0-.48.2c-.59.51-2.2 2.13-2.87 2.86l-.63.68c-.1.12-.15.15-.32.15H3.1c-.08 0-.13-.1-.08-.17.68-.72 4.35-4.58 5.04-5.14a1.45 1.45 0 0 1 1.88 0zM8.06 14.66a147.9 147.9 0 0 1-5.04-5.14c-.05-.06 0-.17.08-.17h1.6c.17 0 .22.03.32.15l.63.68c.66.73 2.28 2.35 2.87 2.86.22.19.46.2.48.2.02 0 .25-.01.48-.2.59-.51 2.2-2.13 2.87-2.86l.63-.68c.1-.12.15-.15.32-.15h1.6c.08 0 .13.1.08.17-.68.72-4.36 4.58-5.04 5.14a1.45 1.45 0 0 1-1.88 0zm.43-4.39c-.3-.28-.81-.8-1-1.04-.1-.1-.09-.23-.09-.23s0-.13.08-.24c.2-.23.72-.76 1.01-1.04.13-.11.16-.19.16-.33v-1.6c0-.06-.08-.1-.13-.05-.66.64-2.14 2.15-2.63 2.74-.24.25-.21.52-.21.52s-.02.26.21.52c.5.59 1.97 2.1 2.63 2.74.06.05.13.02.13-.06v-1.59c0-.15-.03-.22-.16-.34zm2.03-1.04c-.2.24-.72.76-1.02 1.05-.12.11-.15.19-.15.33v1.6c0 .07.07.1.13.05.66-.64 2.13-2.15 2.63-2.74.23-.26.21-.52.21-.52s.02-.26-.21-.52c-.5-.59-1.97-2.1-2.63-2.74-.06-.05-.13-.02-.13.06v1.59c0 .14.03.22.15.33.3.29.82.81 1.02 1.05.09.1.08.23.08.23s0 .13-.08.23z" fill="#FFB013" /><ns0:defs><ns0:linearGradient id="avyrl5r0g" x1="3.35" y1="3.12" x2="21.9" y2="24.43" gradientUnits="userSpaceOnUse"><ns0:stop stop-color="#1A1E21" /><ns0:stop offset="1" stop-color="#06060A" /></ns0:linearGradient></ns0:defs></g><g transform="translate(90, 0) scale(1.0, 1.0)"><ns0:path fill="#632CA6" d="M0 0h18v18H0z" /><ns0:path d="M8.41 6.63c.35-.24.8-.15.73-.07-.14.13.05.1.07.34.02.18-.05.29-.1.34a2.28 2.28 0 00-.66.2.6.6 0 01-.06-.05c-.25-.22-.24-.59.02-.76zm2.1 1.45c.07-.05.36-.14.63-.17.14-.01.34-.02.39 0 .08.05.08.19.02.32-.08.2-.2.4-.34.42-.22.03-.43-.09-.67-.26-.09-.07-.14-.22-.02-.3zm.41-1.86c.33.15.29.43.3.6v.1a.45.45 0 00-.24-.04l-.1.01c-.11-.06-.19-.18-.25-.32a.6.6 0 01-.02-.03v-.02c-.04-.11-.02-.14 0-.17.01-.04.07-.07-.02-.1h-.02c.05-.07.23-.1.35-.03zm-1.79 3.4a4.9 4.9 0 01-.88-.72c-.02-.02-.02-.1-.02-.1.14.1.74.52 1.38.72.22.06.56.09.86-.08.23-.12.5-.34.67-.57l.03.05c0 .04-.08.2-.12.27l.2.07.52-.08c.2-.3.33-.78.18-1.24a3.59 3.59 0 00-.54-.81c-.1-.1.02-.5-.2-.92-.22-.46-.8-.93-1.06-1.13.07.05.54.24.75.49.02-.03.03-.16.05-.2-.18-.24-.2-.66-.2-.77 0-.2-.1-.44-.1-.44s.18.14.23.39c.05.3.17.52.33.72.3.37.58.55.72.42.16-.17-.17-.9-.6-1.3-.5-.48-.62-.42-.91-.32-.23.08-.36.73-.96.71l-.5-.01.13-.17s-.2.08-.38.18l-.01-.02c.06-.12.12-.2.12-.2s-.16.1-.31.22c.03-.15.13-.24.13-.24s-.2.04-.47.32c-.3.08-.36.13-.6.23-.38-.08-.57-.21-.74-.45-.13-.19-.36-.22-.6-.12l-.8.33h.3l-.4.18h.21a2 2 0 01-.2.15c-.19.13-.34.29-.34.29s.13-.06.24-.09c-.08.18-.24.31-.2.53.02.2.27.61.6.87.02.02.47.42.8.26.33-.17.47-.31.52-.54.07-.26.03-.45-.1-1.01l-.23-.75.01-.01c.11.22.4.82.5 1.22.18.62.13.94.04 1.05-.24.35-.86.4-1.14.2-.05.68.1.97.16 1.12-.03.17.09.5.09.5s0-.15.06-.23c.02.17.1.37.1.37s0-.12.04-.23c.05.1.1.12.15.19.05.18.16.31.16.31s-.02-.1-.01-.2c.26.24.3.6.33.87.07.76-1.21 1.36-1.46 1.83-.19.27-.3.72.02.98.77.62.47.8.86 1.07.53.38 1.2.21 1.42-.1.31-.43.23-.83.11-1.2-.09-.3-.34-.8-.64-.99-.32-.2-.62-.23-.88-.2l.03-.03c.37-.07.75-.03 1.04.15.31.2.6.54.76 1.07l.35-.06-.35-2.72.75-.08zm.2 3.41l-.03-.38.8-1.2.91.26.78-1.28.94.61.71-1.46.26 2.66-4.36.79zm4.38-4l-2.87.5c-.07.1-.24.25-.33.3-.36.17-.6.12-.82.07-.13-.03-.21-.05-.32-.1l-.7.1.42 3.46L14 12.5l-.3-3.46z" fill="#fff" /></g><g transform="translate(108, 0) scale(1.0, 1.0)"><ns0:path fill="#E21D38" d="M0 0h18v18H0z" /><ns0:path d="M14 9a5 5 0 01-8.687 3.377c.854.159 1.865.269 3.014.292v-.338c-.675-.044-.99-.135-1.037-.27-.089-.255-.187-2.616-.165-3.686h1.187c.092-.041.202-.081.312-.121.131-.048.262-.096.36-.145V7.75H7.126s.007-1.027.03-1.456c.024-.293.317-.473.497-.473.38-.032.695.132 1.015.298.118.061.237.123.36.175.067.024.158.044.226-.023l.048-.06c.074-.092.147-.182.222-.254.044-.068.023-.112 0-.136-.138-.108-.265-.205-.396-.305a95.045 95.045 0 01-.189-.144c-.302-.247-1.053-.07-1.436.02-.038.01-.073.017-.103.024-.878.247-1.96.855-2.074 1.868-.024.159-.075.565-.075.565-.136.013-.26.029-.383.045-.1.012-.199.025-.3.036-.013.108-.019.21-.025.312-.005.089-.01.178-.02.272.124-.013.254-.018.388-.024.112-.005.226-.01.34-.02-.006.902.045 2.074.079 2.872l.022.537c-.023.091-.11.136-.336.136l.259.32a5 5 0 117.65-6.433 9.996 9.996 0 01-.475-.078 8.746 8.746 0 00-.605-.094 18.269 18.269 0 00-1.645-.135c-.388 1.081-.84 2.456-1.314 3.899 2.456.202 3.402.878 3.358 1.8-.044.497-.517.97-1.125 1.014-.72.044-1.058-.247-1.26-.564-.106-.174-.22-.347-.339-.525l-.246-.377c-.042-.088-.13-.028-.196.019a3.844 3.844 0 00-.302.295l-.133.138c-.091.091-.068.159-.044.227l.04.094c.122.283.243.566.365.828.226.135 1.24.314 1.983.247a3.534 3.534 0 001.69-.632c.516-.405.901-.946.969-1.824.023-.54-.068-1.105-.541-1.622-.473-.517-1.284-.946-2.929-1.057.041-.123.078-.24.113-.355.043-.14.086-.275.134-.412.99.044 1.868.112 2.614.203.033-.14.055-.275.077-.407.018-.114.037-.226.061-.338.522.79.826 1.737.826 2.754z" fill="#fff" /></g><g transform="translate(126, 0) scale(1.0, 1.0)"><ns0:path fill="#F44238" d="M0 0h18v18H0z" /><ns0:path d="M12.86 5h-2.02c-.07 0-.15.06-.15.14v.73c0 .08.08.13.15.13h.43L5 11.97v.89c0 .08.06.14.14.14h2.72c.08 0 .14-.06.14-.14v-.71c0-.08-.06-.15-.14-.15H6.42L12 6.7v.33c0 .08.08.13.15.13h.7c.09 0 .15-.05.15-.13V5.14a.14.14 0 00-.14-.14zM6 6h3.59c.07 0 .14-.04.14-.12v-.74A.14.14 0 009.59 5H5.14a.14.14 0 00-.14.14v1.71c0 .08.06.15.14.15h.7c.08 0 .16-.07.16-.15V6zm6 6H9.15c-.07 0-.15.06-.15.14v.73c0 .07.08.13.15.13h3.71c.08 0 .14-.06.14-.13v-1.71c0-.08-.06-.16-.14-.16h-.7c-.07 0-.16.08-.16.16V12z" fill="#fff" /></g><g transform="translate(144, 0) scale(1.0, 1.0)"><ns0:path fill="#F0F3FA" d="M0 0h18v18H0z" /><ns0:path d="M9.004 4A5 5 0 004 8.996a4.998 4.998 0 003.18 4.654c-.046-.394-.083-1.003.016-1.434.09-.391.585-2.484.585-2.484s-.148-.3-.148-.74c0-.695.403-1.213.906-1.213.428 0 .634.32.634.703 0 .428-.272 1.069-.416 1.665-.12.498.251.905.741.905.89 0 1.574-.938 1.574-2.286 0-1.197-.861-2.032-2.093-2.032-1.425 0-2.26 1.065-2.26 2.167 0 .428.164.888.37 1.14a.148.148 0 01.033.143c-.037.157-.124.498-.14.568-.02.09-.074.11-.169.065-.626-.292-1.017-1.2-1.017-1.936 0-1.575 1.145-3.022 3.307-3.022 1.734 0 3.085 1.233 3.085 2.886 0 1.723-1.088 3.109-2.595 3.109-.507 0-.984-.263-1.145-.576l-.313 1.188c-.111.436-.416.979-.622 1.312.47.144.964.222 1.483.222A5 5 0 0014 9.004 4.99 4.99 0 009.004 4z" fill="#E60023" /></g><g transform="translate(162, 0) scale(1.0, 1.0)"><ns0:path fill="url(#paint0_linear)" d="M0 0h18v18H0z" /><ns0:path fill="#fff" d="M4.002 4H14v9.998H4.002z" /><ns0:path fill="#000" d="M7 7h4v4H7z" /><ns0:defs><ns0:linearGradient id="paint0_linear" x1="3.349" y1="3.122" x2="21.904" y2="24.434" gradientUnits="userSpaceOnUse"><ns0:stop stop-color="#1A1E21" /><ns0:stop offset="1" stop-color="#06060A" /></ns0:linearGradient></ns0:defs></g><g transform="translate(0, 18) scale(1.0, 1.0)"><ns0:path fill="#49C2D2" d="M0 0h18v18H0z" /><ns0:path d="M8 8h2V5.157C10 4.327 9.745 4 9 4c-.736 0-1 .328-1 1.157V8zm0 2v2.93c0 .83.264 1.24 1 1.24.737 0 1-.41 1-1.24V11h2v1.85c0 2.096-.943 3.15-2.814 3.15h-.372C6.944 16 6 14.955 6 13.1V5.407C6 3.06 6.943 2 8.814 2h.372C11.056 2 12 3.06 12 5.157L11.992 10H8z" fill="#fff" /></g><g transform="translate(18, 18) scale(1.0, 1.0)"><ns0:path fill="#F0F3FA" d="M0 0h18v18H0z" /><ns0:path d="M11 5c0 .55-.9 1-2 1s-2-.45-2-1 .9-1 2-1 2 .45 2 1zm2.66 3.52c.48-.26.45-1.17-.08-2.04-.53-.86-1.35-1.34-1.84-1.08-.48.26-.45 1.18.08 2.04.53.86 1.35 1.35 1.84 1.08zM6.26 5.4c.49.26.45 1.18-.08 2.04-.53.86-1.35 1.35-1.84 1.08-.48-.26-.44-1.17.08-2.04.53-.86 1.36-1.34 1.84-1.08zM11 13c0 .55-.9 1-2 1s-2-.45-2-1 .9-1 2-1 2 .45 2 1zm2.58-1.58c.53-.87.56-1.78.08-2.04-.49-.27-1.3.22-1.84 1.08-.53.86-.56 1.78-.08 2.04.49.26 1.31-.22 1.84-1.08zm-7.4-.86c.53.86.57 1.78.08 2.04-.48.26-1.3-.22-1.83-1.08-.53-.87-.57-1.78-.08-2.04.48-.27 1.3.22 1.83 1.08z" fill="#E6007A" /></g><g transform="translate(36, 18) scale(1.0, 1.0)"><ns0:path fill="url(#paint0_linear)" d="M0 0h18v18H0z" /><ns0:path d="M11 7H7L4.083 4H14v9.916L11 11V7zM7 11V7.27l-3 2.804V14h3.925l2.804-3H7z" fill="#fff" /><ns0:defs><ns0:linearGradient id="paint0_linear" x1="3.349" y1="3.122" x2="21.904" y2="24.434" gradientUnits="userSpaceOnUse"><ns0:stop stop-color="#1A1E21" /><ns0:stop offset="1" stop-color="#06060A" /></ns0:linearGradient></ns0:defs></g><g transform="translate(54, 18) scale(1.0, 1.0)"><ns0:path fill="#F0F3FA" d="M0 0h18v18H0z" /><ns0:path d="M13.902 8.286H9v1.794h2.826C11.413 11.244 10.306 12 9 12a3 3 0 111.99-5.24l1.414-1.414A4.976 4.976 0 009 4a5 5 0 105 5c0-.27-.034-.397-.098-.714z" fill="#FFC107" /><ns0:path d="M4.576 6.673L6.22 7.878A2.998 2.998 0 019 6c.765 0 1.46.288 1.99.76l1.414-1.414A4.976 4.976 0 009 4a4.997 4.997 0 00-4.424 2.673z" fill="#FF3D00" /><ns0:path d="M9 14a4.979 4.979 0 003.352-1.298l-1.547-1.31A2.98 2.98 0 019 12c-1.3 0-2.404-.83-2.82-1.986L4.549 11.27A4.996 4.996 0 009 14z" fill="#4CAF50" /><ns0:path d="M13.902 8.286H9v1.794h2.826c-.198.56-.558.961-1.022 1.313l1.548 1.31C12.243 12.8 14 11.5 14 9c0-.335-.034-.397-.098-.714z" fill="#1976D2" /></g><g transform="translate(72, 18) scale(1.0, 1.0)"><ns0:path fill="#F1651F" d="M0 0h18v18H0z" /><ns0:path d="M8.002 5.218c0-.135.013-.218.23-.218h2.755c1.426 0 1.208 2 1.208 2h.788V4H5v.588s1.003-.114 1.003.748v6.997c0 .834-1.003.834-1.003.834V14h7.983v-3h-.788s.218 2-1.493 2H8.846c-.637 0-.844-.225-.844-.986v-2.72h1.623c.686 0 .97.54.97 1.373h.8V7.333h-.8c0 .834-.244 1.373-.97 1.373H8.002V5.219z" fill="#fff" /></g><g transform="translate(90, 18) scale(1.0, 1.0)"><ns0:path fill="#08090D" d="M0 0h18v18H0z" /><ns0:path d="M6.635 8.818c.14-.154.12-.163.257-.526.123-.329.316-.619.559-.853A2.23 2.23 0 019 6.809c.564 0 1.12.217 1.55.63.242.234.435.524.558.853.137.363.117.372.257.526.136.15.278.184.722.184H14c0-1.481-.62-2.713-1.62-3.653A4.932 4.932 0 009 4a4.932 4.932 0 00-3.38 1.349C4.62 6.289 4 7.52 4 9.002h1.913c.444 0 .586-.033.722-.184zm6.845 2.584c-.407-.417-1.638-1.801-1.848-2.016-.385-.395-.353-.384-.9-.384H7.268c-.547 0-.515-.011-.9.384-.21.215-1.441 1.6-1.848 2.016A5.081 5.081 0 006.393 13.5l2.128-2.182c.194-.198.28-.275.385-.308a.296.296 0 01.188 0c.105.033.191.11.385.308l2.128 2.182a5.08 5.08 0 001.873-2.098z" fill="#fff" /></g><g transform="translate(108, 18) scale(1.0, 1.0)"><ns0:path fill="#0080FF" d="M0 0h18v18H0z" /><ns0:path d="M9 14v-2a3 3 0 1 0-3-3H4a5.02 5.02 0 0 1 9.75-1.6A5.01 5.01 0 0 1 9.01 14zm-2-2h2v-2H7v2zm-1.5 1.5H7V12H5.5v1.5zm0-1.5H4.25v-1.25H5.5V12z" fill="#fff" /></g><g transform="translate(126, 18) scale(1.0, 1.0)"><ns0:path fill="#494AF4" d="M0 0h18v18H0z" /><ns0:path d="M14.65 12a6 6 0 10-11.3 0h1.07a5 5 0 119.16 0h1.07zM7.01 7.75A3.59 3.59 0 019.06 7c1.1 0 1.94.51 1.94 1.78V12H9.8v-.87c-.27.5-.85.87-1.5.87-.9 0-1.48-.52-1.48-1.37 0-1.08 1.05-1.46 2.38-1.64.35-.05.6-.17.6-.42 0-.36-.34-.54-.86-.54-.54 0-1.14.3-1.5.66L7 7.75zm1 2.8c0 .3.26.46.6.46.64 0 1.2-.57 1.2-1.29-1.04.12-1.8.3-1.8.83z" fill="#fff" /></g><g transform="translate(144, 18) scale(1.0, 1.0)"><ns0:path fill="#FF385C" d="M0 0h18v18H0z" /><ns0:path d="M13.084 10.287a6.404 6.404 0 00.046.11c.119.333.155.648.082.963-.1.667-.55 1.244-1.19 1.496a1.875 1.875 0 01-.98.126 2.45 2.45 0 01-.916-.306c-.366-.207-.732-.505-1.135-.937-.403.432-.76.73-1.136.937A2.449 2.449 0 016.701 13c-.256 0-.503-.045-.741-.144a1.92 1.92 0 01-1.19-1.496c-.047-.324-.01-.64.109-.973.046-.117.092-.225.137-.324l.1-.216.111-.243.01-.018A103.3 103.3 0 017.26 5.514l.027-.055c.074-.135.147-.279.22-.423.092-.162.192-.333.33-.495A1.543 1.543 0 019.009 4c.449 0 .87.198 1.163.559.135.15.223.306.308.457l.022.038c.073.144.146.288.22.423l.027.055a93.305 93.305 0 012.024 4.072l.009.009.111.243.1.216c.03.066.06.14.091.215zm-5.01-1.098c.11.487.431 1.063.926 1.676.494-.622.815-1.198.925-1.676a1.41 1.41 0 00.027-.55.866.866 0 00-.146-.378C9.64 8.01 9.339 7.865 9 7.865a.977.977 0 00-.806.396.866.866 0 00-.147.379 1.43 1.43 0 00.028.55zm3.746 3.153c.45-.18.77-.585.834-1.054a1.5 1.5 0 00-.064-.693 1.747 1.747 0 00-.078-.194 5.009 5.009 0 01-.042-.095c-.036-.072-.07-.148-.105-.225a5.15 5.15 0 00-.105-.225v-.01a118.705 118.705 0 00-2.006-4.053l-.027-.054-.11-.207-.11-.208a1.977 1.977 0 00-.256-.396.964.964 0 00-.733-.333.964.964 0 00-.732.333 1.952 1.952 0 00-.257.396 17.32 17.32 0 00-.11.208c-.036.07-.073.14-.11.207l-.027.054a97.836 97.836 0 00-2.015 4.045l-.009.018a18.477 18.477 0 00-.252.545c-.03.068-.058.131-.078.194-.091.252-.11.477-.082.702.064.469.385.874.833 1.054.21.081.449.117.696.09.23-.027.458-.099.696-.234.33-.18.669-.46 1.044-.874-.595-.73-.97-1.405-1.108-2a1.841 1.841 0 01-.046-.765c.037-.226.12-.433.248-.613.284-.396.76-.64 1.29-.64.532 0 1.008.235 1.292.64.128.18.21.387.247.613.028.234.019.486-.046.765-.137.595-.503 1.262-1.108 1.991.385.415.715.694 1.044.874.238.135.467.207.696.234.239.027.477 0 .696-.09z" fill="#fff" /></g><g transform="translate(162, 18) scale(1.0, 1.0)"><ns0:path fill="#0087FF" d="M0 0h18v18H0z" /><ns0:path d="M9.793 8.095l.002-.012c-1.76-.495-2.284-.784-2.284-1.472 0-.493.424-.921 1.544-.921a3.385 3.385 0 012.36.825c.07.069.183.013.231-.027l.988-.993c.058-.054.03-.123-.027-.206C11.84 4.316 10.422 4 9.076 4c-2.044 0-3.617.896-3.617 2.636 0 1.772 1.22 2.541 3.52 3.202 1.318.37 2.04.66 2.04 1.358 0 .7-.824 1.072-1.85 1.072-1.093 0-2.083-.225-2.898-1.058-.04-.052-.153-.027-.21.042L5.01 12.393a.163.163 0 00.044.177C6.019 13.603 7.523 14 9.039 14c2.13 0 3.961-.896 3.961-2.842 0-1.871-1.208-2.503-3.207-3.063z" fill="#fff" /></g><g transform="translate(0, 36) scale(1.0, 1.0)"><ns0:path fill="#C3A634" d="M0 0h18v18H0z" /><ns0:path d="m7.05 2.33-.16-.11a.06.06 0 0 0-.1.02v.04l.03.16-.02.63c0 .02 0 .03-.02.04l-.02.02a41.73 41.73 0 0 0-.17.65.3.3 0 0 1-.07.14l-.14.15c-.17.18-.15.21.07.1.17-.1.35-.21.53-.35.06-.04.16-.05.3-.04a.1.1 0 0 1 .06.03l.19.15c.02 0 .04.03.04.05.01.11 0 .22-.08.3a.85.85 0 0 0-.22.59c0 .03-.01.05-.04.07-.16.09-.17.27-.3.4l-.2.15-.02-.42a.1.1 0 0 0-.03-.07A.1.1 0 0 0 6.6 5c-.05 0-.1.03-.14.08-.12.14-.26.24-.44.31-.13.03-.23.13-.28.32a.59.59 0 0 1-.12.18c.02-.29-.11-.42-.4-.4-.06.02-.15.07-.28.19a.1.1 0 0 0-.04.05.51.51 0 0 1-.3.38c-.06.01-.09 0-.08-.07v-.02c.22-.4.22-.87.6-1.19.13-.11.24-.18.33-.21.64-.22.98-.64 1-1.26l.03-.62c0-.24.04-.46.1-.66.01-.03.03-.05.06-.07a.12.12 0 0 1 .09 0l.17.04c.03 0 .04.02.05.04l.1.24Z" fill="#E1B051" /><ns0:path d="m7.05 2.33.12.14a4 4 0 0 1 .45.79c.04.09.14.19.29.3.09.06 0 .1-.27.1a2 2 0 0 1-.47-.56.53.53 0 0 1-.08-.24.54.54 0 0 0-.17-.36.04.04 0 0 0-.04 0 .04.04 0 0 0-.03.03v.07a.32.32 0 0 1-.03-.16l-.03-.16a.06.06 0 0 1 .03-.06.06.06 0 0 1 .07 0l.16.11Z" fill="#B87C29" /><ns0:path d="M12.13 2.46c-.07.01-.1.05-.1.13 0 .12.07.2.07.32v.21c-.02.17.13.33.17.49.06.21.08.4.05.57-.04.16-.06.33-.08.5 0 .1-.04.16-.1.21a.05.05 0 0 0-.02.04.05.05 0 0 0 .02.04c.09.05.14.12.17.2a.04.04 0 0 0 .03.03.04.04 0 0 0 .04-.03.4.4 0 0 0 .05-.2.2.2 0 0 1 .06.08c.06.17.14.34.22.5.1.18.15.34.17.46.06.28.1.55.1.82.02.13.06.32.1.44.14.34.24.7.3 1.05v.7c0 .03 0 .05.02.07.08.1.1.23.06.38-.01.07 0 .12.05.17.02.02.03.04.03.07 0 .13-.05.24-.13.33a.64.64 0 0 0-.13.23c-.08.22-.24.44-.49.5a.15.15 0 0 0-.1.07c-.1.16-.12.3-.33.38h-.06c-.06-.05-.12-.04-.2.01.05-.15.1-.3.17-.46a.83.83 0 0 1 .15-.21c.1-.12.14-.27.1-.46a.1.1 0 0 1 .01-.07c.11-.16.17-.32.3-.47a.7.7 0 0 0 .16-.49.03.03 0 0 0-.02-.02.03.03 0 0 0-.03 0c-.2.21-.45.34-.61.58-.2.31-.45.58-.74.8-.04.04-.07.1-.06.16.02.15 0 .31.2.32.03 0 .05.02.05.05 0 .06-.02.11-.06.16a11.82 11.82 0 0 0-.27.43.04.04 0 0 0 .03.03h.05c-.06.03-.1.07-.18.08-.2.02-.32-.01-.37-.08.1-.14.2-.25.3-.33.08-.08.12-.19.1-.31a.05.05 0 0 0-.05-.04.4.4 0 0 0-.13.03.05.05 0 0 1-.05 0 .04.04 0 0 1-.02-.05.62.62 0 0 0 .01-.2l.01-.05.18-.3a.02.02 0 0 0 0-.02.02.02 0 0 0-.03 0 .76.76 0 0 1-.4.21c-.02 0-.04 0-.04-.03l-.01-.03a.48.48 0 0 0 .2-.13c.04-.04.06-.1.06-.18 0-.2.29-.43.42-.56a.17.17 0 0 0 .05-.15 4.1 4.1 0 0 1-.05-.35c0-.04 0-.07.05-.09h.03l.02.01.03.03c.02.02.04.01.06-.01l.11-.2V8.8a.58.58 0 0 1 .2-.55.35.35 0 0 0 .08-.21c0-.02 0-.04-.03-.06l-.1-.06a.06.06 0 0 1-.03-.06.5.5 0 0 1 .1-.26c.02-.01.02-.03 0-.04-.07-.06-.13-.2-.06-.29a.2.2 0 0 0 .03-.08c0-.02 0-.04-.02-.05-.1-.09-.1-.18-.05-.29V6.8l-.16-.17a.06.06 0 0 1-.02-.04c0-.05 0-.1-.04-.13a.03.03 0 0 0-.03-.01h-.01l-.01.02a.7.7 0 0 1-.09.15l-.02.01c-.01 0-.02 0-.02-.02l.04-.16c0-.03-.01-.04-.04-.04l-.24-.01h-.02a.03.03 0 0 0-.01.03v.01l.1.13v.03l-.01.01h-.1a5.02 5.02 0 0 0-.29-.12l-.16.01c-.03 0-.05-.01-.06-.04l-.01-.03a.05.05 0 0 0-.02-.03h-.04c-.2.03-.42.04-.64.01a.1.1 0 0 0-.1.05 2 2 0 0 1-.53.65c-.07.05-.15.08-.24.1a.15.15 0 0 0-.06.05c-.13.14-.25.1-.43.1-.2 0-.38 0-.57-.02a.3.3 0 0 0-.13-.05c-.01 0-.02 0-.03-.02l-.02-.03a1.2 1.2 0 0 0-.17-.51.06.06 0 0 0-.05-.03.06.06 0 0 0-.05.04l-.12.29-.03.03a.07.07 0 0 1-.08 0A.07.07 0 0 1 7.4 7l-.02-.18a.4.4 0 0 0-.02-.09l-.07-.17a.04.04 0 0 1 .04-.06h.04c.02 0 .04 0 .04-.03l.16-.34a.25.25 0 0 0 0-.26c-.02-.02-.03-.02-.05 0-.16.12-.28.26-.38.39-.04.04-.06.04-.07-.02 0-.01 0-.03-.02-.04-.01-.01-.03-.02-.05 0-.2.09-.35.2-.45.33a.3.3 0 0 1-.18.12c-.03 0-.04 0-.03-.03l.09-.2c.04-.1.1-.2.16-.28.03-.05.02-.1-.03-.14h-.05l-.25.22c0-.02.01-.04.03-.05.1-.1.17-.22.22-.38.05 0 .08 0 .09-.04.02-.1.06-.17.11-.24l.2-.15c.14-.13.15-.31.31-.4a.08.08 0 0 0 .04-.07c0-.23.08-.42.22-.58.08-.09.1-.2.08-.3a.07.07 0 0 0-.04-.07.71.71 0 0 1-.19-.14.1.1 0 0 0-.06-.03c-.14-.02-.24 0-.3.04-.18.14-.36.25-.53.34-.22.12-.24.1-.07-.1l.14-.14a.3.3 0 0 0 .08-.14 41.83 41.83 0 0 1 .16-.65l.02-.02a.06.06 0 0 0 .02-.04l.01-.63c0 .06.01.12.03.16.03.07.07.11.11.14A.08.08 0 0 1 7 2.8a.07.07 0 0 1-.04.06c-.15.06-.13.23-.05.33.08.09.13.19.15.3 0 .04.02.07.06.08.18.1.36.12.53.07.27 0 .36-.03.27-.1.35.03.7.08 1.01.15l.3.04c.19 0 .36.04.55.06.19.02.38.06.55-.03.1-.05.18-.11.24-.2.13 0 .23-.03.3-.1a.92.92 0 0 0 .17-.18.11.11 0 0 1 .04-.04.63.63 0 0 0 .34-.34c.04-.11.02-.23.02-.34l.03-.06c.15-.17.5-.13.67-.05Z" fill="#C89539" /><ns0:path d="M12.13 2.46c.13.07.23.2.28.39a3 3 0 0 1 .14 1.38 53.02 53.02 0 0 0-.17.94.04.04 0 0 1-.04.03l-.02-.01-.01-.02a.35.35 0 0 0-.17-.2.05.05 0 0 1-.02-.06l.02-.02c.06-.05.1-.12.1-.2.02-.18.04-.35.08-.51.03-.17.01-.36-.05-.57-.04-.16-.2-.32-.18-.49l.01-.21c0-.12-.06-.2-.07-.32 0-.08.03-.12.1-.13ZM7.64 3.65a.72.72 0 0 1-.53-.07.11.11 0 0 1-.06-.08.58.58 0 0 0-.15-.3c-.08-.1-.1-.27.05-.33a.07.07 0 0 0 .04-.06.07.07 0 0 0-.04-.07.25.25 0 0 1-.1-.14v-.07a.04.04 0 0 1 .03-.04.04.04 0 0 1 .04.01c.1.1.16.22.17.36.01.08.03.16.08.24a2 2 0 0 0 .47.55Z" fill="#85511C" /><ns0:path d="m10.8 3.84.04-.01c.08-.01.1.02.09.09 0 .02-.02.03-.04.05a.69.69 0 0 0-.29.54c0 .18.12.27.11.44v.02a.05.05 0 0 1-.05.02c-.05 0-.08-.03-.1-.07a.77.77 0 0 0-.12-.26.09.09 0 0 0-.04-.04.18.18 0 0 1-.13-.12 15.47 15.47 0 0 0-.23-.22.15.15 0 0 1-.06-.12.04.04 0 0 1 .03-.04.04.04 0 0 1 .04 0c.09.06.18.08.27.07.03 0 .05 0 .06-.02l.41-.33Z" fill="#B87C29" /><ns0:path d="M11.88 4.51c-.15.27-.36.56-.63.7a.05.05 0 0 1-.07-.02l-.05-.07a.09.09 0 0 0-.08-.04l-.22.03a.05.05 0 0 1-.04-.03v-.05c.13-.12.27-.26.33-.42.03-.1.09-.18.18-.24l.01-.02v-.02a.04.04 0 0 0-.03-.03h-.12l-.04-.02a.06.06 0 0 1-.02-.04c0-.03.02-.06.05-.09a1 1 0 0 0 .14-.13c.04-.05.1-.06.16-.05.13.02.27.03.41.02a.1.1 0 0 1 .06.02.1.1 0 0 1 .04.05c.03.07.03.14.02.2a.81.81 0 0 1-.1.25Z" fill="#85511C" /><ns0:path d="M7.43 5.17c.07-.22.17-.46.3-.72.02-.02.04-.03.07-.02.04.02.06.05.05.1-.01.17-.08.35-.2.52-.1.17-.1.35-.15.54a.05.05 0 0 1-.04.03c-.03 0-.05 0-.06-.02a.27.27 0 0 1-.03-.16c0-.09.03-.18.06-.27Z" fill="#B87C29" /><ns0:path d="m8.62 5.94-.32.2c-.09.04-.17.04-.24 0-.12-.05-.13-.21-.15-.33-.01-.05-.01-.1 0-.14l.06-.24c.02-.2.21-.34.39-.43.16-.08.32-.05.47.08.21.2.12.46.07.7 0 .02-.02.04-.05.04a.43.43 0 0 0-.23.12Z" fill="#E1B051" /><ns0:path d="M6.72 5.52a.75.75 0 0 0-.11.24c0 .03-.04.05-.09.04-.06-.26-.23-.4-.5-.4.18-.08.32-.18.44-.32.04-.05.09-.08.14-.08a.1.1 0 0 1 .1.06.1.1 0 0 1 .01.04l.01.42ZM12.02 5.78c.13-.01.2-.1.24-.24a.03.03 0 0 1 .01-.02.03.03 0 0 1 .03 0h.02l.04.04v.04a5.2 5.2 0 0 0-.04.8c0 .06-.03.07-.07.03-.05-.04-.08-.13-.1-.26a.09.09 0 0 0-.03-.06c-.11-.09-.23-.12-.26-.28a.8.8 0 0 1 .16-.65l.02-.02h.02v.02l-.06.19c-.01.02 0 .05.02.07.05.04.07.08.06.14a.1.1 0 0 1-.04.06.2.2 0 0 0-.07.07.05.05 0 0 0 .02.06h.03Z" fill="#B87C29" /><ns0:path d="M6.02 5.4c.27 0 .44.14.5.4a.95.95 0 0 1-.22.38l-.27.06c-.19-.18-.22-.4-.08-.63V5.6h-.03a.57.57 0 0 1-.14.14c-.03 0-.04 0-.04-.02.05-.19.15-.3.28-.32Z" fill="#0B0802" /><ns0:path d="m5.62 5.89-.01.04a.43.43 0 0 1-.13.1.14.14 0 0 0-.1.13c0 .1-.01.2-.04.29-.04.17.02.28.18.32.08.01.14 0 .18-.07a3 3 0 0 1 .27-.3l.06-.02c.06 0 .06.04 0 .12a57.27 57.27 0 0 1-.31.27.56.56 0 0 0-.12.13l-.1.15-.27.1v-.02c0-.01.01-.02.03-.02 0 0 .02 0 .03-.02v-.01a1.75 1.75 0 0 1-.05-.7l.06-.22c.03-.09.04-.17.04-.26a.35.35 0 0 0-.06-.21.07.07 0 0 0-.06-.03c-.11 0-.18.05-.21.13a.76.76 0 0 1-.13.22.91.91 0 0 0-.13.24c-.06.16-.14.31-.23.44 0 .02-.04.05-.09.1a.18.18 0 0 0-.05.14c0 .02 0 .04-.02.06a.19.19 0 0 0-.04.13c0 .02.01.03.04.02h.05a1.65 1.65 0 0 0 .39.17.05.05 0 0 1 .02.04v.02a1.1 1.1 0 0 0-.1.57c.02.22.07.4.15.55.01.02.03.04.06.05.03.01.04 0 .04-.02l.01-.07.17.27c-.16.26-.03.49.08.72a.11.11 0 0 1-.01.11 1 1 0 0 1-.37.31c-.12.06-.23 0-.3-.09l-.05-.03h-.07c-.06.03-.1.02-.13-.05-.08-.26-.16-.53-.23-.82a2.62 2.62 0 0 1 .1-1.56c.06-.13.1-.27.12-.42a2.66 2.66 0 0 1 .2-.6.1.1 0 0 0 .03-.06c0-.04.02-.08.08-.12.16-.07.27-.2.3-.38a.1.1 0 0 1 .04-.05c.13-.12.22-.17.29-.18.28-.03.4.1.4.39Z" fill="#EFE2AD" /><ns0:path d="M6.04 6.25c-.3-.04-.38-.21-.26-.52.06-.03.1-.08.14-.14h.02v.02c-.12.23-.1.45.1.64Z" fill="#FCF9F5" /><ns0:path d="M5.23 7.15a.13.13 0 0 0-.06.07.32.32 0 0 0-.1.17c.01-.1-.05-.1-.16 0-.15.12-.2.37-.2.55a1.1 1.1 0 0 1 .1-.6.05.05 0 0 0-.01-.03l-.02-.01a1.65 1.65 0 0 1-.37-.16.05.05 0 0 0-.05 0c-.03 0-.04 0-.04-.02 0-.05.01-.1.04-.13a.09.09 0 0 0 .02-.06c0-.06.02-.1.05-.14l.1-.1c.08-.13.16-.28.22-.44.04-.1.08-.17.13-.24.06-.06.1-.14.13-.22.03-.08.1-.13.2-.13.03 0 .05 0 .07.03.04.06.06.13.06.2 0 .1-.01.18-.04.27l-.06.22a1.75 1.75 0 0 0 .05.71c-.01.02-.02.02-.03.02-.02 0-.03 0-.03.02v.02Z" fill="#FAF2CD" /><ns0:path d="M5.74 5.7c0 .02.01.03.04.03-.12.3-.04.48.26.51l.26-.06a.1.1 0 0 0-.03.05.48.48 0 0 1-.24.15l-.06.01c-.24 0-.35-.26-.36-.46l.01-.04c.06-.06.1-.12.12-.18Z" fill="#5B4F40" /><ns0:path d="M6.28 5.73c-.02.03-.02.07 0 .08.02.02.06 0 .08-.03.03-.03.02-.06 0-.08-.02-.02-.06 0-.08.03Z" fill="#FCF9F5" /><ns0:path d="M8.12 7.34c-.05 0-.07.01-.07.06 0 .14 0 .27-.04.39a.76.76 0 0 0-.03.2c0 .14-.05.24.02.4v.34a7.45 7.45 0 0 0 .36.46c.14.14.15.29.03.43-.1.12-.17.23-.33.26-.23.05-.43.13-.61.24-.13.09-.29.12-.43.17-.1.03-.1.07 0 .11l.32.14c.3.13.6.14.93.08.21-.04.3-.26.41-.42.1-.15.31-.15.46-.28.1-.1.24-.19.4-.27a.1.1 0 0 0 .04-.06c.04-.1.08-.22.19-.29.26-.16.5-.28.75-.36.22-.08.41-.2.63-.3a.05.05 0 0 1 .07.02c.02.03.02.05 0 .08-.11.18-.2.38-.38.52l-.5.4c-.1.1-.1.28-.12.4-.01.13-.09.24-.22.34l-.4.25c-.08.04-.09.1-.02.15a.1.1 0 0 0 .07.03.1.1 0 0 1 .07.02l.2.17v.02a.04.04 0 0 1 0 .04l-.02.01c-.25.05-.5.1-.6.36a.07.07 0 0 0 .03.08l.03.02c.04 0 .08 0 .13-.02.18-.1.4-.17.6-.1.12.05.24.08.36.08s.23.04.33.12c.02.01.04.02.07.01a.2.2 0 0 0 .13-.06c.05.07.18.1.37.08.07 0 .12-.05.18-.08l.58-.35c.07-.05.13-.06.2-.01h.05c.2-.07.24-.22.34-.38a.15.15 0 0 1 .1-.07c.24-.06.4-.28.47-.5a.64.64 0 0 1 .14-.23c.08-.09.12-.2.13-.33 0-.03 0-.05-.03-.07-.05-.05-.06-.1-.05-.17a.43.43 0 0 0-.06-.38.1.1 0 0 1-.03-.06l.01-.71.2.6a2.93 2.93 0 0 1 .22 1.8c-.04-.1-.09-.08-.14.08-.05.17-.04.3-.13.46a.97.97 0 0 0-.1.4l-.06.6c0 .1-.06.18-.16.23a.1.1 0 0 0-.05.05c-.04.08-.05.15-.12.22-.13.12-.42.38-.47.56-.02.1-.1.14-.19.18.06-.07.1-.15.12-.24.02-.14.04-.22.06-.25l.15-.3c.19-.3.12-.66.08-1a.09.09 0 0 0-.03-.05.1.1 0 0 0-.06-.03.93.93 0 0 0-.44.07c-.25.1-.46.18-.68.38-.16.14-.26.35-.43.46-.2.13-.47.27-.82.4-.36.14-.72.28-1.08.4l-.3.14c-.35.2-.51.56-.91.65-.12.03-.24.08-.35.16-.15.1-.33.13-.5.16-.2.04-.38.12-.59.16l-.57-.2c-.21-.07-.4-.15-.55-.24-.23-.12-.43-.25-.6-.36a4.28 4.28 0 0 1-.7-.57c-.22-.21-.22-.49-.08-.74.1-.28.16-.53.17-.76l.06-.8c0-.07.04-.2.1-.4.08-.23.09-.47.03-.72 0-.03 0-.04.03-.05h.05c.08.09.19.15.3.1a1 1 0 0 0 .38-.32.11.11 0 0 0 .01-.1c-.1-.24-.24-.47-.08-.73 0 .05 0 .1-.02.15-.01.05 0 .1.02.14l.02.05c.02.11.1.2.2.26.15.08.3.14.46.19.14.04.28-.01.4-.16.1 0 .27.04.5.11.13.04.25 0 .34-.09a2.75 2.75 0 0 0 1.03-.3v-.04A.03.03 0 0 0 8.09 9a.03.03 0 0 0-.03 0c-.21.07-.44.11-.68.12-.09 0-.17.03-.26.06-.15.05-.44-.08-.57-.15-.01-.1.02-.16.1-.21a.12.12 0 0 0 .04-.05c.02-.05.06-.07.11-.07.07.01.17 0 .32-.03.1-.02.14-.06.14-.12v-.04a.08.08 0 0 0-.04-.03.18.18 0 0 1-.07-.08c-.01-.01 0-.02.01-.03h.04c.02.04.04.06.08.07.02.01.04 0 .07-.02.07-.05.1-.14.1-.26a.5.5 0 0 1 .23-.2c.03 0 .04-.02.03-.05a.72.72 0 0 0-.16-.33c-.08-.1-.21-.13-.32-.21-.13-.1-.31-.09-.46-.04-.01 0-.02 0-.02.02s0 .03-.02.03a.2.2 0 0 0-.1.03c-.1-.1-.21-.18-.35-.25-.23-.14-.52-.12-.77-.12l.1-.15c.02-.05.06-.1.11-.13a56.4 56.4 0 0 0 .31-.27c.06-.08.06-.12 0-.12.1-.02.18-.07.24-.15l.25-.22h.05c.05.05.06.1.03.14a2.55 2.55 0 0 0-.25.48c0 .02 0 .03.03.03a.3.3 0 0 0 .18-.12c.1-.13.25-.24.45-.34l.05.01.02.04c.01.06.03.06.07.02.1-.13.22-.27.38-.4.02-.01.03-.01.05.01.04.09.05.17 0 .26-.06.1-.11.22-.16.34 0 .02-.02.03-.04.03h-.04a.04.04 0 0 0-.04.06l.07.17a.4.4 0 0 1 .02.09l.02.18c0 .02.01.03.03.04a.07.07 0 0 0 .11-.02l.12-.3a.06.06 0 0 1 .05-.03.06.06 0 0 1 .05.03c.1.16.16.33.17.51 0 .01 0 .02.02.03l.03.02.13.05Z" fill="#E0C06E" /><ns0:path d="M9.52 6.44a.29.29 0 0 1-.14.03c-.02 0-.04 0-.06.02-.08.07-.14.16-.24.2a.55.55 0 0 1-.39.03c-.12-.18-.13-.35-.04-.51a.03.03 0 0 1 .03-.02.03.03 0 0 1 .02 0c.03.04.07.06.11.06.05 0 .06-.01.04-.05-.13-.3-.44.03-.5.15-.06.15-.01.28.16.4l.01.02v.05l-.04.01c-.13-.03-.32-.05-.4-.17a.67.67 0 0 1-.08-.2c0-.03 0-.05.02-.07l.28-.25.31-.2c.24-.06.43-.03.57.08a1.95 1.95 0 0 1 .34.38v.04Z" fill="#0B0802" /><ns0:path d="M5.6 5.93c.02.2.13.45.37.46a3 3 0 0 0-.27.31c-.04.06-.1.08-.18.07-.16-.04-.22-.15-.18-.32.03-.1.04-.2.04-.3 0-.06.04-.1.1-.13a.43.43 0 0 0 .13-.1Z" fill="#E1B051" /><ns0:path d="M8.7 6.72c-.03.03-.09.04-.2.03-.16-.12-.21-.25-.14-.4.05-.12.36-.45.5-.15.01.04 0 .06-.05.05a.15.15 0 0 1-.1-.05.03.03 0 0 0-.03-.01.03.03 0 0 0-.03.02c-.1.16-.08.33.04.51Z" fill="#FCF9F5" /><ns0:path d="M12.03 8.25a2.05 2.05 0 0 0-.43-.03h-.43c-.3-.02-.57.02-.84.13a11.32 11.32 0 0 0-1.05.48c-.04 0-.08 0-.11-.02a.76.76 0 0 0-.54-.05.1.1 0 0 1-.09 0 .37.37 0 0 1-.13-.17.13.13 0 0 0-.13-.08c-.13 0-.22-.03-.28-.12-.07-.16-.02-.26-.02-.4 0-.07.01-.14.03-.2.03-.12.04-.25.04-.4 0-.04.02-.06.07-.05l.57.02c.18 0 .3.04.43-.1a.15.15 0 0 1 .06-.04c.09-.03.17-.06.24-.11a2 2 0 0 0 .54-.65.1.1 0 0 1 .09-.05c.22.03.43.02.64-.02h.04l.02.04v.03c.02.03.04.04.07.04l.16-.01.08.01.2.1c.04.02.06.02.1.02a.03.03 0 0 0 .01-.02v-.03l-.09-.13v-.03a.03.03 0 0 1 .03-.01h.24c.03 0 .04.02.04.05l-.04.16c0 .01 0 .02.02.02h.02a.7.7 0 0 0 .09-.16v-.01a.03.03 0 0 1 .04 0h.01c.03.04.05.08.04.13 0 .02 0 .03.02.04l.15.17c.02.01.02.03.01.05-.06.1-.04.2.06.3l.01.04a.2.2 0 0 1-.03.08c-.07.09-.01.23.06.29.02.01.02.03 0 .04a.5.5 0 0 0-.1.26c0 .03 0 .05.03.06l.1.06.03.06c0 .08-.03.15-.08.21Z" fill="#FAF2CD" /><ns0:path d="M9.52 6.44c0 .03-.02.06-.04.09-.13.13-.28.3-.46.36-.21.06-.35-.02-.54-.05a.1.1 0 0 0 .03-.02c.02-.01.02-.03.01-.05l-.01-.02c.1 0 .16 0 .18-.03.14.04.27.03.4-.03.1-.04.15-.13.23-.2a.09.09 0 0 1 .06-.02c.05 0 .1-.01.14-.03ZM5.5 7.05c.26 0 .55-.02.78.12l-.08.05c-.04.1-.1.13-.2.1a1.64 1.64 0 0 0-.72-.06c-.03 0-.07 0-.1-.04 0-.02.02-.04.05-.07l.28-.1Z" fill="#5B4F40" /><ns0:path d="M6.28 7.17c.14.07.25.15.35.25l.03.06c-.03.15-.14.42-.3.5a.13.13 0 0 0-.06.06.13.13 0 0 1-.06.06l-.31.2c-.11.08-.27.11-.38.05-.17-.1-.31-.24-.42-.42v-.11c.02-.02.05-.02.07 0 .04.02.07.02.1 0 .1-.02.1-.05 0-.07a.52.52 0 0 1-.21-.11.48.48 0 0 1-.01-.25c0-.06.04-.11.1-.17.03.03.07.05.1.04.24-.03.48-.02.72.06.1.03.16 0 .2-.1l.08-.05Z" fill="#0B0802" /><ns0:path d="M7.46 8.17c0-.02-.02-.05-.07-.08-.02 0-.03-.02-.02-.05.02-.07 0-.13-.06-.18l-.26-.29a.38.38 0 0 0-.26-.13c-.03 0-.05.02-.04.06l-.1-.02-.02-.06a.2.2 0 0 1 .1-.03c.01 0 .02-.01.02-.03 0-.01 0-.02.02-.02.15-.05.33-.07.46.04.1.08.24.11.32.21.08.1.14.2.16.33 0 .03 0 .05-.03.06a.5.5 0 0 0-.22.2Z" fill="#EFE2AD" /><ns0:path d="M5.07 7.39c-.01.09 0 .17.02.25l.04.27v.02c-.22.16-.27.34-.15.52v.07c-.01.02-.02.03-.04.02a.12.12 0 0 1-.07-.05 1.47 1.47 0 0 1-.15-.55c0-.18.04-.43.19-.55.11-.1.17-.1.16 0ZM7.46 8.17c0 .12-.04.2-.11.26-.03.02-.05.03-.07.02-.04 0-.06-.03-.08-.07h-.04c-.02 0-.02.02-.01.03.01.03.04.06.07.08l.03.03.01.04c0 .06-.05.1-.14.12a.82.82 0 0 1-.32.03.28.28 0 0 1-.18-.14.09.09 0 0 1 0-.06.8.8 0 0 0 0-.23c0-.09.04-.17.1-.23a.09.09 0 0 0 .03-.06V7.5c0-.04 0-.06.04-.06.1.02.2.05.26.13l.26.29c.06.05.08.11.06.18-.01.03 0 .04.02.05.05.03.08.06.07.08Z" fill="#FCF9F5" /><ns0:path d="M6.66 7.48c.04.02.07.03.09.02v.49l-.03.06c-.06.06-.1.14-.1.23a.8.8 0 0 1 0 .23v.06c.05.08.1.12.18.14-.05 0-.09.02-.11.07 0 .02-.02.04-.04.05a.21.21 0 0 0-.1.2l-.34-.12-.34-.13a.84.84 0 0 0-.6 0c-.05.1-.04.2.02.28a.4.4 0 0 0 .2.14c.11.02.31.05.39.13.01.02.03.03.06.03h.3c-.13.14-.27.19-.4.15a2.42 2.42 0 0 1-.47-.2.38.38 0 0 1-.2-.25.16.16 0 0 0-.02-.05.17.17 0 0 1-.02-.14l.02-.15-.17-.27c-.12-.18-.07-.36.15-.52.1.18.25.32.42.42.11.06.27.03.38-.05l.31-.2a.13.13 0 0 0 .06-.06.13.13 0 0 1 .07-.07c.14-.07.26-.34.29-.49ZM5.09 7.64c.08.06.15.1.21.1.1.03.1.06 0 .09-.03.01-.06 0-.1-.01-.03-.02-.05-.02-.06 0-.01.02-.02.05-.01.09l-.04-.27Z" fill="#968C78" /><ns0:path d="M6.04 7.96c.09.04.17.05.18.03 0-.02-.06-.07-.15-.1-.1-.04-.17-.05-.18-.03-.01.02.06.07.15.1Z" fill="#5B4F40" /><ns0:path d="M12.03 8.25a.58.58 0 0 0-.2.55v.04l-.11.19c-.02.02-.04.03-.06 0l-.03-.02-.02-.01h-.03c-.04.02-.06.05-.05.09 0 .11.03.23.05.35a.17.17 0 0 1-.05.15c-.13.13-.41.37-.42.56 0 .08-.02.14-.06.18a.48.48 0 0 1-.2.13v.03c.01.02.03.03.06.03.14-.03.27-.1.39-.21h.02l.01.01v.02l-.18.3v.04c0 .07 0 .14-.02.2a.04.04 0 0 0 .02.05h.05a.4.4 0 0 1 .13-.03.05.05 0 0 1 .06.04.34.34 0 0 1-.12.31c-.09.08-.19.2-.3.33a.2.2 0 0 1-.12.06l-.07-.01a.52.52 0 0 0-.33-.12.99.99 0 0 1-.37-.08c-.2-.07-.41 0-.6.1a.17.17 0 0 1-.12.02.08.08 0 0 1-.05-.04.07.07 0 0 1 0-.06c.08-.26.34-.31.59-.36a.04.04 0 0 0 .03-.03.04.04 0 0 0-.01-.04l-.2-.17a.1.1 0 0 0-.07-.02.1.1 0 0 1-.07-.03c-.07-.05-.06-.1.02-.15l.4-.25c.13-.1.2-.2.22-.33.02-.13.02-.31.13-.4l.5-.41c.16-.14.26-.34.37-.52a.07.07 0 0 0 0-.08.05.05 0 0 0-.07-.02c-.22.1-.4.23-.63.3-.24.08-.5.2-.75.36-.11.07-.15.18-.2.3a.1.1 0 0 1-.04.05 2.5 2.5 0 0 0-.4.27c-.14.13-.34.13-.45.28-.1.16-.2.38-.4.42-.34.06-.63.05-.94-.08l-.33-.14c-.1-.04-.1-.08 0-.11.15-.05.3-.08.44-.17.18-.11.38-.2.6-.24.17-.03.25-.14.34-.26.12-.14.1-.29-.03-.43A7.45 7.45 0 0 1 8 8.73v-.34c.06.09.15.13.28.12a.14.14 0 0 1 .13.08c.03.07.07.12.13.16a.1.1 0 0 0 .09.01.76.76 0 0 1 .54.05c.03.02.07.02.1.02.04 0 .08-.02.1-.03.3-.16.62-.3.96-.45.27-.1.55-.15.84-.13h.43c.14 0 .29 0 .43.03Z" fill="#E7CF90" /><ns0:path d="M6.55 9.04c.13.07.42.2.57.15.09-.03.17-.06.26-.06a2.31 2.31 0 0 0 .7-.12.03.03 0 0 1 .02.02v.02a.05.05 0 0 1-.02.05c-.28.12-.47.18-.57.2-.23.02-.37.05-.44.07l-.31-.14-.33-.1c-.4-.07-.78-.19-1.16-.35.2-.07.4-.07.6 0a100.73 100.73 0 0 0 .68.26Z" fill="#0B0802" /><ns0:path d="M5.27 8.78c.38.16.77.28 1.16.36.13.02.24.06.33.1l.31.13c-.1.1-.2.13-.33.09-.24-.07-.4-.1-.5-.1h-.3c-.03 0-.05-.01-.06-.03-.08-.08-.28-.1-.39-.13a.4.4 0 0 1-.2-.14c-.06-.08-.07-.17-.02-.28Z" fill="#5B4F40" /><ns0:path d="m12.1 11.23-.57.35h-.07l-.01-.03a.04.04 0 0 1 0-.04l.27-.39c.04-.05.05-.1.06-.16 0-.03-.02-.05-.05-.05-.2 0-.18-.17-.2-.32 0-.06.02-.12.06-.15.3-.23.54-.5.74-.8.16-.25.42-.38.61-.58a.03.03 0 0 1 .03-.01H13v.02a.7.7 0 0 1-.16.49c-.13.15-.19.31-.3.47a.1.1 0 0 0-.01.07c.04.19 0 .34-.1.46a.83.83 0 0 0-.15.21c-.07.15-.12.3-.16.46Z" fill="#B87C29" /><ns0:path d="M5.08 10.5c-.06.01-.06.06 0 .15l.1.1c.3.25.46.5.86.65a.1.1 0 0 1 .06.06l.08.18c.04.15.14.27.28.39a.08.08 0 0 0 .07.01.08.08 0 0 0 .05-.04l.02-.02a.04.04 0 0 1 .06 0c.19.16.26.57.32.82l.01.03a.06.06 0 0 0 .09 0c.17-.18.28-.38.32-.63 0-.02.02-.03.05-.03h.02a.02.02 0 0 1 .01.01v.11c0 .03 0 .04.03.04a24.62 24.62 0 0 0 .2-.36c.03-.08.1-.14.2-.2.2-.09.4-.17.57-.3a2.49 2.49 0 0 1 .47-.3.03.03 0 0 0-.01-.03H8.9c.14-.06.24-.1.3-.14.15-.1.21-.05.16.12-.02.1-.07.22-.12.33a.4.4 0 0 1-.18.19c-.23.12-.37.33-.6.43-.26.12-.47.33-.55.6-.08.24-.23.44-.37.65-.11.17-.4.42-.64.49a.9.9 0 0 0-.21.09.05.05 0 0 1-.08-.03.88.88 0 0 1-.06-.24c-.03-.3-.12-.6-.26-.92a.9.9 0 0 0-.2-.28c-.32-.3-.63-.62-.95-.95-.14-.14-.2-.3-.3-.47a1.32 1.32 0 0 1-.1-.71l.02-.02h.05l.27.22Z" fill="#E1B051" /><ns0:path d="m5.08 10.5.3.21.2.17c.2.21.58.3.87.38.17.04.4.05.67.05a13.33 13.33 0 0 0 1.83-.16.03.03 0 0 1 0 .03h-.02c-.15.08-.3.17-.45.29-.17.13-.38.21-.57.3a.42.42 0 0 0-.2.2l-.16.33c0 .02-.02.03-.04.03s-.04-.01-.03-.04v-.1a.02.02 0 0 0-.01-.02h-.02c-.03 0-.05 0-.05.03-.04.25-.15.45-.32.63l-.03.02a.06.06 0 0 1-.07-.05c-.06-.25-.13-.66-.32-.82l-.03-.01H6.6l-.02.03a.08.08 0 0 1-.05.04.08.08 0 0 1-.07-.01.85.85 0 0 1-.28-.39 1.89 1.89 0 0 0-.08-.18.1.1 0 0 0-.06-.06c-.4-.15-.56-.4-.86-.65a.58.58 0 0 1-.1-.1c-.06-.09-.06-.14 0-.15Z" fill="#B87C29" /><ns0:path d="M13.8 10.72c.02.15.04.29.08.42.04.2.03.37.04.57 0 .2.07.45.08.68v.46c-.02.28-.58.72-.88.97-.25.22-.49.31-.71.29-.12-.08-.3-.08-.51 0-.07.02-.07 0-.03-.04.1-.1.17-.21.21-.36l.05-.06a.95.95 0 0 1 .25-.15c.09-.04.17-.09.2-.18.04-.18.33-.44.46-.56.07-.07.08-.14.12-.22a.1.1 0 0 1 .05-.05c.1-.05.15-.13.16-.23l.05-.6a.96.96 0 0 1 .11-.4c.1-.16.08-.3.13-.46.05-.16.1-.18.14-.08Z" fill="#C89539" /><ns0:path d="M12.38 13.5a.94.94 0 0 0-.25.15.13.13 0 0 0-.05.06.92.92 0 0 1-.2.36c-.05.05-.05.06.02.04.22-.08.39-.08.51 0 0 .07-.02.13-.07.2a.36.36 0 0 1-.17.1c-.28.09-.54.2-.77.31-.18.09-.37.1-.56.15-.06.02-.12 0-.17.05a.09.09 0 0 1-.07.02 1.4 1.4 0 0 0-.42.01c-.12.02-.25.04-.37.04-.83 0-1.7.03-2.54-.05a.76.76 0 0 1-.33-.1 13.3 13.3 0 0 1-.34-.23c.2-.04.4-.12.58-.16.18-.03.36-.06.51-.16.11-.08.23-.13.35-.16.4-.09.56-.46.9-.65.1-.05.2-.1.3-.13l1.1-.4c.34-.14.61-.28.81-.4.17-.12.27-.33.43-.47.22-.2.43-.27.68-.38a.93.93 0 0 1 .44-.07.1.1 0 0 1 .06.03c.02.01.03.03.03.05.04.34.11.7-.08 1l-.15.3c-.02.03-.04.11-.06.25a.53.53 0 0 1-.12.24Z" fill="#E7CF90" /></g><g transform="translate(18, 36) scale(1.0, 1.0)"><ns0:path fill="#0099FA" d="M0 0h18v18H0z" /><ns0:path d="M3.886 9.115c0-.755.163-1.47.456-2.115h2.115a3.248 3.248 0 00-.779 2.115c0 1.08.526 2.038 1.336 2.631v2.083a5.116 5.116 0 01-3.128-4.714zm4.128 5.02a5.115 5.115 0 003.003-9.722v2.189a3.26 3.26 0 01-3.003 5.64v1.892z" fill="#fff" /><ns0:path d="M8 4H5.998v2H8v4h2V4H8z" fill="#fff" /></g><g transform="translate(36, 36) scale(1.0, 1.0)"><ns0:path fill="#345D9D" d="M0 0h18v18H0z" /><ns0:path d="M6.188 10.306l-.804.315.388-1.559.81-.326L7.752 4h2.886l-.855 3.487.793-.32-.383 1.541-.798.326L8.917 11h4.342l-.49 2H5.526l.663-2.694z" fill="#fff" /></g><g transform="translate(54, 36) scale(1.0, 1.0)"><ns0:path fill="url(#ayp5zlrdb)" d="M0 0h18v18H0z" /><ns0:path d="M12.38 6.9a.35.35 0 0 1-.24.1H4.21c-.17 0-.27-.19-.17-.32L5.6 5.1c.07-.06.15-.1.24-.1h7.96c.17 0 .27.19.17.32L12.38 6.9Z" fill="url(#byp5zlrdb)" /><ns0:path d="M12.38 12.9a.35.35 0 0 1-.24.1H4.21c-.17 0-.27-.19-.17-.32L5.6 11.1c.07-.07.15-.1.24-.1h7.96c.17 0 .27.19.17.32l-1.58 1.59Z" fill="url(#cyp5zlrdb)" /><ns0:path d="M12.38 8.1a.35.35 0 0 0-.24-.1H4.21c-.17 0-.27.19-.17.32L5.6 9.9c.07.06.15.1.24.1h7.96c.17 0 .27-.19.17-.32l-1.58-1.59Z" fill="url(#dyp5zlrdb)" /><ns0:defs><ns0:linearGradient id="ayp5zlrdb" x1="3.35" y1="3.12" x2="21.9" y2="24.43" gradientUnits="userSpaceOnUse"><ns0:stop stop-color="#1A1E21" /><ns0:stop offset="1" stop-color="#06060A" /></ns0:linearGradient><ns0:linearGradient id="byp5zlrdb" x1="4.35" y1="7.81" x2="13.48" y2="5.12" gradientUnits="userSpaceOnUse"><ns0:stop stop-color="#6E73E3" /><ns0:stop offset=".32" stop-color="#41B8C8" /><ns0:stop offset=".58" stop-color="#27E2B7" /><ns0:stop offset="1" stop-color="#16FC99" /></ns0:linearGradient><ns0:linearGradient id="cyp5zlrdb" x1="3.8" y1="12.68" x2="14.2" y2="11.22" gradientUnits="userSpaceOnUse"><ns0:stop stop-color="#9E48FF" /><ns0:stop offset=".34" stop-color="#8D4DF9" /><ns0:stop offset=".57" stop-color="#6B7AE1" /><ns0:stop offset=".95" stop-color="#45B3CE" /></ns0:linearGradient><ns0:linearGradient id="dyp5zlrdb" x1="4.39" y1="9" x2="13.81" y2="9" gradientUnits="userSpaceOnUse"><ns0:stop stop-color="#8654F3" /><ns0:stop offset=".47" stop-color="#549AD6" /><ns0:stop offset=".93" stop-color="#26D9B2" /></ns0:linearGradient></ns0:defs></g><g transform="translate(72, 36) scale(1.0, 1.0)"><ns0:path fill="#283C4A" d="M0 0h18v18H0z" /><ns0:path d="M11.893 7.776c-.704-2.79-2.17-3.532-2.545-4.057A5.767 5.767 0 018.94 3c-.02.248-.056.404-.29.592-.471.377-2.47 1.84-2.638 5.009-.157 2.954 2.418 4.776 2.758 4.965.261.115.58.002.735-.104a5.502 5.502 0 002.39-5.686" fill="#10AA50" /><ns0:path d="M9.046 11.992c-.065.731-.111 1.156-.276 1.574 0 0 .108.696.184 1.434h.268c.065-.52.162-1.035.293-1.544-.347-.154-.456-.822-.47-1.464z" fill="#B8C4C2" /><ns0:path d="M9.515 13.457c-.352-.146-.5-.829-.515-1.465v-8.93c.11.227.206.446.348.657.374.525 1.842 1.268 2.545 4.056a5.497 5.497 0 01-2.378 5.682z" fill="#12924F" /></g><g transform="translate(90, 36) scale(1.0, 1.0)"><ns0:path fill="#FC0001" d="M0 0h18v18H0z" /><ns0:path d="M3 4.01c0 .17.1.88.47 1.26A7.94 7.94 0 004.9 6.59a16.11 16.11 0 00.91.64l.46.3c.48.33 1.2.82 1.61 1.33.06.09.4.33.4.29 0-.03-.18-.48-.21-.52a5.2 5.2 0 00-1.22-1.4l-.07-.04c-.37-.3-.74-.6-1.16-.82-.34-.2-.67-.5-.99-.78l-.27-.23A15.43 15.43 0 013.1 4.08C3.06 4 3 3.98 3 4zm1.93.4c-.05.04.19.47.22.5.1.18.57.87 1.01 1.17l.41.34c.3.24.65.51.94.79.3.29.53.55.66.78.18.28.34.58.5.88.16.3.32.6.5.89.35.56.82 1 1.3 1.2.21.1.68.14 1.28.1a5 5 0 011.42.12 3.64 3.64 0 011.6 1.03c.21.23.22.24.23.18 0-.23-.03-.35-.1-.5a1.97 1.97 0 00-.29-.44c-.06-.08-.1-.15-.1-.18 0-.09-.07-.23-.17-.3-.12-.1-.46-.27-.54-.3-.05 0-.1-.03-.16-.05l-.27-.1a3 3 0 01-.53-.2.33.33 0 01-.13-.23c0-.13.05-.26.1-.4.05-.1.09-.2.1-.3.07-.43-.14-.7-.84-1.07-.38-.2-.78-.35-1.18-.49L9.6 7.4l-.86-.29c-.4-.12-.84-.35-1.23-.55l-.03-.02a7.35 7.35 0 01-2.55-2.13zM3.45 5.8l.2.43a5.07 5.07 0 002.13 2.1l.44.25c.57.3 1.4.76 2.07 1.35l-.05-.13c-.05-.15-.13-.37-.16-.41a3.86 3.86 0 00-.65-.68c-.25-.23-.52-.39-.8-.54-.17-.1-.35-.2-.52-.33-.5-.27-.89-.54-1.32-.84l-.01-.01a23.2 23.2 0 00-.57-.47l-.03-.02c-.11-.1-.26-.24-.54-.53a.9.9 0 00-.19-.17zm2.33 3.92c-.02.02.33.36.56.54.23.19.86.53 1.08.64.39.2.67.26.93.32a3.58 3.58 0 01.58.17c.08.03.17.05.25.1.34.15.43.19.44.18.01-.01-.01-.04-.04-.07l-.3-.27-.16-.17c-.1-.1-.54-.43-.63-.5l-.04-.02c-.25-.16-.5-.32-.78-.44a1.48 1.48 0 01-.1-.05.67.67 0 00-.25-.1c-.04 0-.04 0 0 .03.11.06.46.28.46.4 0 .02-.01.04-.03.05-.11.1-.5-.02-.7-.1a4.08 4.08 0 01-1.22-.7c-.02-.01-.04-.02-.05-.01zm4.94 2.68c-.06-.1-1.04-1.18-1.43-1.55-.2-.2-.24-.27-.1-.16.3.25.63.45 1 .56.48.16.94.1 1.43.04a5.85 5.85 0 011.35 0 4.2 4.2 0 011.32.66c.07.05.05.05-.08.04h-.15c-.35 0-.56.05-.9.23-.3.15-.57.28-.9.3-.26.01-.27.03-.08.21.17.17.37.24.77.27.23.01.38.06.43.12.04.05.05.23.02.4-.02.08-.05.11-.05.04a.77.77 0 00-.11-.27c-.23-.3-.94-.14-.94.3 0 .1.07.21.21.33.06.04.1.08.09.09a.86.86 0 01-.32-.1.89.89 0 01-.36-.45c-.06-.15-.06-.16-.11-.16-.02 0-.07 0-.11.03a.86.86 0 01-.49 0 .93.93 0 01-.27-.13h.12c.1 0 .11 0 .11-.03 0-.04-.01-.05-.14-.12-.07-.04-.3-.2-.38-.28a5.36 5.36 0 01-.54-.57c-.04-.06 0-.06.05 0a1.34 1.34 0 00.5.28c.06 0 .08-.04.06-.08z" fill="#fff" /></g><g transform="translate(108, 36) scale(1.0, 1.0)"><ns0:path fill="#F0F3FA" d="M0 0h18v18H0z" /><ns0:path d="M11.612 5c-.984 0-1.753.743-2.45 1.688C8.205 5.466 7.406 5 6.448 5 4.496 5 3 7.549 3 10.247 3 11.935 3.814 13 5.178 13c.981 0 1.687-.464 2.942-2.665l.883-1.565c.126.204.258.424.398.66l.589.993C11.136 12.347 11.774 13 12.932 13 14.261 13 15 11.92 15 10.198 15 7.373 13.47 5 11.612 5zM7.163 9.74c-1.017 1.6-1.37 1.958-1.936 1.958-.583 0-.93-.514-.93-1.43 0-1.958.974-3.96 2.134-3.96.629 0 1.154.363 1.958 1.518C7.626 9.002 7.163 9.74 7.163 9.74zm3.84-.202l-.704-1.177a25.54 25.54 0 00-.548-.858c.634-.981 1.157-1.471 1.779-1.471 1.292 0 2.326 1.909 2.326 4.254 0 .893-.292 1.412-.896 1.412-.58 0-.857-.384-1.957-2.16z" fill="#0281FB" /></g><g transform="translate(126, 36) scale(1.0, 1.0)"><ns0:path fill="url(#paint0_linear)" d="M0 0h18v18H0z" /><ns0:path d="M13 10.597a4.83 4.83 0 01-.678 1.287c-.269.363-.489.614-.658.753-.262.23-.544.347-.845.353-.217 0-.478-.059-.782-.177a2.34 2.34 0 00-.84-.176c-.268 0-.556.058-.864.176-.309.118-.558.18-.748.186-.288.012-.577-.108-.864-.362-.184-.151-.413-.412-.688-.78a5.289 5.289 0 01-.728-1.37A4.777 4.777 0 015 8.857c0-.603.138-1.124.413-1.56a2.424 2.424 0 012.034-1.142c.23 0 .531.068.905.2.373.133.612.2.717.2.079 0 .345-.079.796-.236.426-.145.787-.205 1.082-.182.799.062 1.399.36 1.798.898-.714.41-1.068.985-1.061 1.722.007.574.226 1.053.658 1.432.196.176.415.312.658.409zM10.99 4c.006.06.01.12.01.18 0 .45-.174.87-.52 1.26-.417.462-.922.73-1.47.687a1.325 1.325 0 01-.01-.17c0-.433.198-.895.55-1.273.176-.192.4-.35.671-.478A2.09 2.09 0 0110.99 4z" fill="#fff" /><ns0:defs><ns0:linearGradient id="paint0_linear" x1="3.349" y1="3.122" x2="21.904" y2="24.434" gradientUnits="userSpaceOnUse"><ns0:stop stop-color="#1A1E21" /><ns0:stop offset="1" stop-color="#06060A" /></ns0:linearGradient></ns0:defs></g><g transform="translate(144, 36) scale(1.0, 1.0)"><ns0:path fill="#01B1AC" d="M0 0h18v18H0z" /><ns0:path d="M4.56 8.02l-.94.92a2.07 2.07 0 000 2.95c.82.81 2.17.81 2.99 0L8.7 9.83a.48.48 0 01.6 0L7.5 8.06a2.14 2.14 0 00-2.94-.04z" fill="#DDD" /><ns0:path d="M14.38 8.94L10.5 5.11a2.14 2.14 0 00-3 0L4.55 8a2.13 2.13 0 012.95.05l1.8 1.78 2.1 2.05c.81.81 2.16.81 2.98 0 .83-.81.83-2.14 0-2.95z" fill="#fff" /></g><g transform="translate(162, 36) scale(1.0, 1.0)"><ns0:path fill="url(#paint0_linear)" d="M0 0h18v18H0z" /><ns0:path d="M9 8.556H7V7.15c0-.295-.016-.92-.515-.92-.453 0-.485.533-.485.808v4.02c0 .278.039.793.485.793.483 0 .515-.546.515-.852v-.666h-.273V9H9v4H7.977l-.187-.593c-.27.36-.812.593-1.48.593-1.017 0-2.072-.492-2.243-1.435-.045-.25-.067-.622-.067-1.12V7.748C4 6.108 4.538 5 6.485 5 8.52 5 9 5.866 9 7.494v1.062z" fill="#fff" /><ns0:path d="M14 7.667h-2v-.741c0-.256-.13-.575-.499-.575-.286 0-.501.177-.501.553 0 .53.292.917.803 1.156C13.241 8.735 14 9.39 14 10.923 14 12.342 12.979 13 11.562 13 9.678 13 9 11.986 9 10.333h2v.715c0 .297.1.635.518.635.317 0 .482-.194.482-.582 0-.426-.132-.704-.28-.835-.15-.131-.42-.529-1.011-.835C9.638 8.87 9 8.428 9 7.176 9 5.684 9.885 5 11.356 5 13.121 5 14 5.644 14 7.176v.49z" fill="#FF4D44" /><ns0:defs><ns0:linearGradient id="paint0_linear" x1="3.349" y1="3.122" x2="21.904" y2="24.434" gradientUnits="userSpaceOnUse"><ns0:stop stop-color="#1A1E21" /><ns0:stop offset="1" stop-color="#06060A" /></ns0:linearGradient></ns0:defs></g><g transform="translate(0, 54) scale(1.0, 1.0)"><ns0:path fill="#0062FF" d="M0 0h18v18H0z" /><ns0:path d="M6.499 5L4 6.667l2.499 1.666L9 6.667 6.499 5zm5 0L9 6.667l2.498 1.666L14 6.667 11.498 5zM4 10l2.499 1.667L9 10 6.499 8.333 4 10zm7.498-1.667L9 10l2.498 1.667L14 10l-2.502-1.667zm-5 4L9 14l2.498-1.667L9 10.623l-2.501 1.71z" fill="#fff" /></g><g transform="translate(18, 54) scale(1.0, 1.0)"><ns0:path fill="#F7931A" d="M0 0h18v18H0z" /><ns0:path d="M12.836 7.94c.166-1.123-.684-1.721-1.855-2.128l.38-1.513-.926-.23-.369 1.476-.738-.177.375-1.486-.925-.23-.38 1.518-.588-.139v-.005l-1.278-.32-.246.988s.684.16.674.166c.374.096.438.342.427.535L6.96 8.128l.096.032-.102-.022-.604 2.423c-.043.112-.16.283-.423.214.011.016-.668-.16-.668-.16l-.46 1.053 1.203.3.658.17-.385 1.535.925.23.374-1.519.744.193-.38 1.513.925.23.38-1.535c1.577.3 2.765.182 3.262-1.246.401-1.15-.021-1.807-.85-2.246.604-.133 1.059-.534 1.176-1.353h.005zm-2.112 2.963c-.283 1.15-2.219.524-2.845.374l.508-2.037c.626.16 2.637.465 2.337 1.658v.005zm.284-2.979c-.257 1.043-1.872.514-2.39.385l.46-1.844c.523.128 2.202.374 1.93 1.46z" fill="#fff" /></g><g transform="translate(36, 54) scale(1.0, 1.0)"><ns0:path fill="#F60" d="M0 0h18v18H0z" /><ns0:path d="M5.41 12.05a.56.56 0 0 1-.2-.13c-.54-.66.16-1.45.96-1.9V8.73c.2.15.28.16.3.19l.6-.78-.2-.66c1.8-.8 2.52-1.1 3.98-1.42l-.26-.3.43-.33c.98.43 1.9.53 1.74 1.58.04-.7-.64-.98-1.7-1.36l-.2.16.38.41c-1.74.4-2.82.83-4.1 1.4l.17.57-.63.8c.1.05 1.22.53 2.39-.51l.02-.03c-.04-.08-.11-.15-.2-.26.33.03.55.41.5.8h-.15a.73.73 0 0 0-.05-.35c-.89.84-1.94.96-2.83.57v1c-.44.18-1.2.8-1.2 1.39.03.28.14.38.25.45z" fill="#010101" /><ns0:path d="M9.05 11.8A6.12 6.12 0 0 1 5.73 13c-1.85-.04-2.13-1.63-1.25-3.28A8.55 8.55 0 0 1 8.72 5.6c.6-.27 1.5-.6 2.35-.6 1.24-.01 2.44.48 2.36 2-.04 1.16-1.35 2.82-2.03 4-.3.5-.35.84.15.82a9.98 9.98 0 0 0 4.45-1.5c-1.03.9-5.85 4.01-5.88 1.67 0-.29.12-.6.3-.93.17-.33.4-.69.65-1.05.37-.54 1.28-1.82 1.58-2.6.52-1.46-.64-1.53-1.63-1.99l-.43.33.26.3c-1.46.32-2.18.62-3.97 1.42l.2.66-.6.78c-.02-.02-.12-.04-.3-.19v1.3c-.81.44-1.5 1.23-.96 1.9.06.06.14.11.2.13H5.4c.98.72 3.65-.26 3.64-.26z" fill="#fff" /></g><g transform="translate(54, 54) scale(1.0, 1.0)"><ns0:path fill="url(#paint0_linear)" d="M0 0h18v18H0z" /><ns0:path d="M12.907 10.562c-.272-.344-.482-.59-.482-1.251V7.116c0-.926-.063-1.793-.745-2.428C11.134 4.185 10.235 4 9.525 4c-1.5 0-2.84.61-3.168 2.25-.028.186.109.265.218.292l1.422.13c.137 0 .219-.132.246-.264.11-.556.602-1.023 1.148-1.023.3 0 .892.302.892.937v.794c-.874 0-1.849.059-2.613.376C6.77 7.863 6 8.574 6 9.712c0 1.455 1.12 2.25 2.32 2.25 1.01 0 1.56-.262 2.35-1.03.247.37.399.634.863 1.03.11.054.246.054.327-.025.272-.24.748-.74 1.047-.978.137-.107.11-.265 0-.397zM10.283 8.5c0 .529-.103 1.849-1.44 1.849-.687 0-.701-.81-.701-.81 0-1.04 1.104-1.386 2.141-1.386v.347z" fill="#fff" /><ns0:path d="M13.123 12.897C12.013 13.58 10.352 14 9.005 14a8.229 8.229 0 01-4.961-1.633c-.106-.088 0-.176.106-.132a11.035 11.035 0 004.828 1.08c1.215 0 2.746-.22 3.986-.661.184-.044.343.132.159.243zm.396-.464c-.132-.154-.924-.066-1.267-.044-.107 0-.132-.066-.027-.132.607-.376 1.636-.265 1.742-.133.105.133-.027.993-.607 1.39-.08.067-.185.022-.132-.043.132-.266.423-.883.29-1.038z" fill="#FFB300" /><ns0:defs><ns0:linearGradient id="paint0_linear" x1="3.349" y1="3.122" x2="21.904" y2="24.434" gradientUnits="userSpaceOnUse"><ns0:stop stop-color="#1A1E21" /><ns0:stop offset="1" stop-color="#06060A" /></ns0:linearGradient></ns0:defs></g><g transform="translate(72, 54) scale(1.0, 1.0)"><ns0:path fill="#95BF47" d="M0 0h18v18H0z" /><ns0:path fill-rule="evenodd" d="M10.972 4.304a.425.425 0 00-.151.01c-.007 0-.133.038-.34.103-.206-.574-.558-1.095-1.19-1.095h-.06C9.058 3.103 8.83 3 8.645 3c-1.464 0-2.17 1.77-2.39 2.672-.261.08-.488.147-.662.199-.206.06-.337.1-.362.11-.32.097-.326.103-.366.393C4.832 6.593 4 12.819 4 12.819l6.475 1.172.012-.002V14L14 13.266s-1.231-8.061-1.238-8.12a.178.178 0 00-.113-.096c-.04 0-.912-.064-.912-.064s-.605-.586-.678-.644a.13.13 0 00-.087-.039zm-1.395.37c.193-.064.386-.122.545-.167-.14-.412-.346-.767-.678-.805.086.225.133.508.133.856v.116zm-.393.052c0-.425-.06-.734-.146-.953-.346.148-.766.547-.985 1.358.235-.073.466-.142.69-.209l.441-.132v-.064zm-.386-1.288a.325.325 0 00-.186-.065c-1.052 0-1.65 1.34-1.89 2.164.153-.048.31-.095.472-.143.14-.04.281-.083.426-.128.206-1.081.706-1.616 1.178-1.828zm.067 4.726L9.29 6.92s-.292-.167-.865-.16c-1.537 0-2.295.99-2.295 2.015 0 .688.395.999.742 1.271.27.212.509.4.509.725 0 .18-.133.425-.46.425-.492 0-1.078-.49-1.078-.49l-.3.953s.56.67 1.678.67c.925 0 1.61-.676 1.61-1.726 0-.807-.56-1.205-1.003-1.52-.289-.205-.527-.374-.527-.598 0-.103.033-.522.718-.522.46 0 .846.2.846.2z" fill="#fff" /></g><g transform="translate(90, 54) scale(1.0, 1.0)"><ns0:path fill="#E84142" d="M0 0h18v18H0z" /><ns0:path d="M6.51 12H4.83c-.36 0-.53 0-.64-.06a.38.38 0 0 1-.19-.3c0-.12.08-.25.26-.53l4.15-6.6c.17-.28.26-.42.38-.47a.47.47 0 0 1 .38 0c.12.05.2.2.38.47l.86 1.35c.2.3.29.46.33.62.05.17.05.36 0 .53-.04.16-.14.31-.33.62L8.23 11.1v.01c-.2.3-.3.46-.43.58a1.3 1.3 0 0 1-.52.27c-.18.04-.37.04-.77.04Zm4.25 0h2.4c.36 0 .54 0 .65-.06a.38.38 0 0 0 .19-.3c0-.12-.08-.25-.25-.5l-.01-.04-1.21-1.86-.01-.02c-.17-.26-.26-.39-.37-.44a.47.47 0 0 0-.39 0c-.1.05-.2.2-.37.47l-1.2 1.86c-.18.28-.27.41-.27.53.01.12.08.23.2.3.1.06.28.06.64.06Z" fill="#fff" /></g><g transform="translate(108, 54) scale(1.0, 1.0)"><ns0:path fill="#00D84D" d="M0 0h18v18H0z" /><ns0:path d="M9 4a5 5 0 100 10A5 5 0 009 4zm2.293 7.211a.312.312 0 01-.429.104c-1.174-.717-2.652-.88-4.392-.482a.312.312 0 01-.139-.608c1.905-.435 3.539-.248 4.857.558.146.09.193.282.103.428zm.612-1.361a.39.39 0 01-.536.129c-1.344-.827-3.393-1.066-4.983-.583a.39.39 0 01-.226-.746c1.816-.551 4.073-.284 5.617.664a.39.39 0 01.128.536zm.053-1.418c-1.612-.957-4.27-1.045-5.81-.578a.468.468 0 11-.27-.895c1.765-.536 4.701-.432 6.557.669a.467.467 0 11-.477.804z" fill="#fff" /></g><g transform="translate(126, 54) scale(1.0, 1.0)"><ns0:path fill="#0078B9" d="M0 0h18v18H0z" /><ns0:path d="M13 5.868v-.036c0-.935-.008-1.446-.498-1.98-.547-.597-1.535-.852-2.8-.852h-3.67a.518.518 0 00-.518.424l-1.51 9.227a.289.289 0 00.071.243.314.314 0 00.24.106H6.58l.529-3.28a.573.573 0 01.07-.082.5.5 0 01.347-.144h1.098c1.127 0 2.288-.561 3.14-1.097.846-.533 1.226-1.528 1.235-2.529z" fill="#fff" /><ns0:path d="M12.957 6.337a4.803 4.803 0 01-.04.193c-.51 2.228-2.256 2.998-4.486 2.998H7.295c-.273 0-.502.169-.545.397l-.581 3.136-.165.654a.212.212 0 00.007.106.238.238 0 00.059.093.29.29 0 00.099.064c.038.015.08.023.121.023h2.014c.239 0 .441-.148.479-.348l.02-.087.38-1.811.024-.113c.037-.2.24-.348.478-.348h.302c1.95 0 3.478-.674 3.925-2.623.186-.814.09-1.494-.404-1.973a1.921 1.921 0 00-.551-.361z" fill="#ADCFE5" /><ns0:path d="M12.423 6.156a4.636 4.636 0 00-.496-.094A7.396 7.396 0 0010.926 6H7.892a.537.537 0 00-.315.099.4.4 0 00-.163.25L6.77 9.823l-.019.101a.456.456 0 01.186-.284.612.612 0 01.36-.113H8.43c2.23 0 3.976-.77 4.486-2.998a4.19 4.19 0 00.04-.193 3 3 0 00-.534-.181z" fill="#E6EFF6" /></g><g transform="translate(144, 54) scale(1.0, 1.0)"><ns0:path fill="#FF5F30" d="M0 0h18v18H0z" /><ns0:path d="M13.71 9.37l.02-.37a4.73 4.73 0 00-7-4.15 4.29 4.29 0 015.3 4.52h-.77c.02-.12.02-.25.02-.37a3.51 3.51 0 00-5.82-2.64 2.75 2.75 0 013.5 3.01H5.7v-.82h2.36a1.87 1.87 0 10-.3 1.55h1a2.75 2.75 0 01-3.3 1.53 3.5 3.5 0 005.65-1.53h.8a4.28 4.28 0 01-5.19 3.04 4.73 4.73 0 006.87-3.05h.8a5.5 5.5 0 11.1-.72h-.78z" fill="#fff" /></g><g transform="translate(162, 54) scale(1.0, 1.0)"><ns0:path fill="url(#ak1jmh2jr)" d="M0 0h18v18H0z" /><ns0:path d="M4.05 12 9.5 9h2.89c.05 0 .07-.02.12.02a.16.16 0 0 1 .05.12.14.14 0 0 1-.08.14l-2.29 1.26c-.17.1-.19.3-.19.46v1h3V6.2a.2.2 0 0 0-.06-.14.21.21 0 0 0-.16-.06H9.5L4 9.33V12h.05Z" fill="#fff" /><ns0:defs><ns0:linearGradient id="ak1jmh2jr" x1="3.35" y1="3.12" x2="21.9" y2="24.43" gradientUnits="userSpaceOnUse"><ns0:stop stop-color="#1A1E21" /><ns0:stop offset="1" stop-color="#06060A" /></ns0:linearGradient></ns0:defs></g><g transform="translate(0, 72) scale(1.0, 1.0)"><ns0:path fill="url(#paint0_linear)" d="M0 0h18v18H0z" /><ns0:path fill-rule="evenodd" clip-rule="evenodd" d="M14 6.131L6.131 4 4 11.869 11.869 14 14 6.131zm-3.968 2.277l-1.624-.44-.44 1.624 1.624.44.44-1.624z" fill="url(#paint1_linear)" /><ns0:defs><ns0:linearGradient id="paint0_linear" x1="3.349" y1="3.122" x2="21.904" y2="24.434" gradientUnits="userSpaceOnUse"><ns0:stop stop-color="#1A1E21" /><ns0:stop offset="1" stop-color="#06060A" /></ns0:linearGradient><ns0:linearGradient id="paint1_linear" x1="10.394" y1="5.335" x2="8.526" y2="12.503" gradientUnits="userSpaceOnUse"><ns0:stop stop-color="#fff" /><ns0:stop offset="1" stop-color="#A1ADBB" /></ns0:linearGradient></ns0:defs></g><g transform="translate(18, 72) scale(1.0, 1.0)"><ns0:path fill="#FEFD00" d="M0 0h18v18H0z" /><ns0:circle cx="9" cy="9" r="9" fill="#FEFD00" /><ns0:path d="M5 11.31c.09.91.17 2.1.18 3.13a.4.4 0 0 0 .11.27c.04.04.08.06.12.08.05.02.1.02.15.02h.02c.06 0 .11-.03.16-.06a.37.37 0 0 0 .12-.12l.13-.24a.37.37 0 0 1 .1-.11.34.34 0 0 1 .26-.07c.04.01.09.03.13.06.46.31 1.26.73 2.49.73 2.47 0 4.03-1.75 4.03-3.85 0-2.12-1.48-2.82-2.56-3.27-.68-.29-1.35-.51-2-.85-.31-.16-1.03-.53-1.03-1.4 0-.76.63-1.69 1.7-1.69.82 0 1.48.5 1.97 1.22a4.98 4.98 0 0 1 .55 1.27.4.4 0 0 0 .1.12.34.34 0 0 0 .3.05.38.38 0 0 0 .23-.2.4.4 0 0 0 0-.3c-.12-.92-.22-1.83-.28-2.75a.4.4 0 0 0-.12-.25.33.33 0 0 0-.41-.05.36.36 0 0 0-.12.13l-.12.2a.34.34 0 0 1-.44.14 4.41 4.41 0 0 0-1.95-.43c-2.08 0-3.72 1.29-3.72 3.47 0 1.96 1.4 2.67 2 2.98h.01c.44.21.89.39 1.32.58 1.47.6 2.22 1 2.22 2a1.9 1.9 0 0 1-1.95 1.93c-1.54 0-2.28-1.22-2.49-1.58-.23-.4-.4-.83-.5-1.3a.38.38 0 0 0-.15-.21.33.33 0 0 0-.25-.06H5.3a.35.35 0 0 0-.23.14.4.4 0 0 0-.07.27Z" fill="#221F20" /></g><g transform="translate(36, 72) scale(1.0, 1.0)"><ns0:path fill="#F0F3FA" d="M0 0h18v18H0z" /><ns0:path d="M15 8.78C15 6.698 12.314 5 9 5 5.687 5 3 6.698 3 8.78v.221C3 11.211 5.348 13 9 13c3.674 0 6-1.789 6-3.998V8.78z" fill="#002F6D" /><ns0:path d="M14.77 8.778c0 1.963-2.583 3.555-5.769 3.555s-5.768-1.592-5.768-3.555S5.815 5.223 9 5.223s5.77 1.592 5.77 3.555z" fill="#FFE900" /><ns0:path d="M7.086 7.657c-.003.005-.06.063-.024.109.092.112.373.176.657.115.17-.037.386-.203.597-.364.227-.174.454-.349.68-.418a.806.806 0 01.497-.013c.112.032.243.103.453.255.395.285 1.982 1.62 2.256 1.85a14.05 14.05 0 012.537-.786c-.116-.685-.55-1.311-1.205-1.825-.914.37-2.032.563-3.125.05-.005-.003-.597-.273-1.18-.26-.867.02-1.242.381-1.64.764l-.503.523z" fill="#fff" /><ns0:path d="M12.138 9.337c-.019-.016-1.867-1.573-2.285-1.877-.242-.175-.377-.22-.519-.237a.734.734 0 00-.246.023c-.195.051-.45.215-.676.388-.234.18-.454.349-.66.393-.26.056-.58-.01-.726-.105a.314.314 0 01-.12-.128c-.054-.12.045-.216.061-.232l.51-.532c.06-.057.119-.114.18-.17-.164.02-.316.061-.464.101-.185.05-.363.098-.543.098-.075 0-.477-.064-.553-.084a8.487 8.487 0 01-1.472-.512c-.724.52-1.21 1.17-1.35 1.886.105.026.273.074.343.09 1.64.35 2.152.713 2.244.788a.555.555 0 01.851.048.636.636 0 01.391-.132c.076 0 .155.013.235.04.185.06.28.18.33.287a.565.565 0 01.228-.047c.089 0 .18.02.273.058.303.125.35.411.322.627a.64.64 0 01.715.623.603.603 0 01-.077.296c.098.053.346.172.565.146.174-.022.24-.079.264-.111.016-.022.034-.048.017-.067l-.462-.495s-.077-.07-.051-.097c.026-.027.073.012.106.04.236.189.523.475.523.475.005.003.024.039.13.057a.496.496 0 00.366-.082.552.552 0 00.08-.079l-.004.004c.118-.146-.014-.294-.014-.294l-.54-.584s-.077-.069-.051-.097c.024-.024.073.013.107.04.171.138.413.371.644.59.046.032.25.153.519-.018.164-.103.196-.23.192-.326-.012-.126-.114-.217-.114-.217l-.738-.715s-.078-.064-.05-.096c.022-.028.072.012.106.039.235.189.871.751.871.751a.462.462 0 00.501-.01.32.32 0 00.165-.254c.009-.182-.124-.29-.124-.29z" fill="#fff" /><ns0:path d="M8.558 10.243c-.115-.001-.24.064-.257.055-.009-.006.007-.05.018-.076.011-.025.162-.462-.206-.614-.28-.116-.452.015-.512.074-.015.015-.022.014-.024-.006a.391.391 0 00-.285-.362.565.565 0 00-.626.214.396.396 0 00-.397-.338.396.396 0 00-.403.388c0 .214.18.387.402.387a.407.407 0 00.279-.108c.002.002.003.006.002.013-.017.096-.048.445.33.587a.407.407 0 00.389-.058c.032-.022.037-.013.032.016-.013.09.004.282.283.39a.369.369 0 00.421-.075c.036-.031.046-.026.047.023.01.26.234.465.506.465.28 0 .506-.217.507-.487a.5.5 0 00-.506-.488z" fill="#fff" /><ns0:path d="M8.558 11.184a.459.459 0 01-.47-.432c0-.021-.002-.076-.05-.076-.02 0-.038.011-.058.028a.335.335 0 01-.383.07c-.267-.105-.271-.282-.26-.354.003-.019.004-.038-.01-.054l-.016-.014h-.017c-.014 0-.027.005-.047.018a.402.402 0 01-.227.078.367.367 0 01-.127-.024c-.352-.132-.325-.453-.307-.55.002-.019-.003-.034-.016-.044l-.025-.02-.023.022a.37.37 0 01-.253.098.36.36 0 01-.366-.352.36.36 0 01.366-.353c.183 0 .338.133.362.308l.012.095.054-.08a.54.54 0 01.426-.225c.052 0 .105.008.16.024a.358.358 0 01.259.332c.003.046.037.048.044.048.019 0 .033-.011.042-.021.041-.041.13-.11.27-.11a.53.53 0 01.202.044c.344.143.188.564.186.569-.03.07-.03.1-.003.119l.014.006h.01c.015 0 .035-.007.067-.017a.466.466 0 01.654.414c0 .25-.211.453-.47.453zm3.651-2.034c-.569-.478-1.884-1.58-2.24-1.837-.204-.148-.343-.226-.465-.26a.798.798 0 00-.228-.035.992.992 0 00-.29.047c-.23.07-.46.246-.68.416l-.012.009c-.207.158-.42.321-.582.356-.07.016-.143.023-.216.023-.18 0-.343-.05-.404-.125-.01-.012-.004-.032.02-.061l.003-.004.5-.52c.393-.378.763-.734 1.616-.753h.042c.53 0 1.061.228 1.12.255a3.583 3.583 0 001.529.353c.538 0 1.093-.128 1.677-.387a4.68 4.68 0 00-.203-.155c-.513.214-1.002.323-1.473.322-.481 0-.963-.111-1.43-.33-.024-.012-.61-.278-1.22-.279h-.048c-.716.017-1.12.262-1.39.477-.264.006-.492.067-.695.122-.18.048-.336.09-.489.09-.062 0-.175-.006-.185-.006-.175-.005-1.057-.213-1.759-.47-.072.05-.14.1-.208.151.733.29 1.625.514 1.907.531.078.005.161.014.245.014.186 0 .372-.05.552-.099a4.31 4.31 0 01.347-.083l-.099.095-.509.53c-.04.039-.127.143-.07.27a.349.349 0 00.134.144c.122.078.339.131.54.132.077 0 .149-.008.216-.022.213-.046.437-.218.673-.4.19-.144.458-.327.663-.381a.778.778 0 01.232-.022c.136.017.267.061.501.23.418.303 2.266 1.86 2.284 1.875.001.001.119.1.11.262-.004.09-.056.171-.147.227a.463.463 0 01-.242.073.409.409 0 01-.214-.06c-.007-.005-.64-.564-.873-.752-.038-.03-.073-.057-.11-.057a.06.06 0 00-.048.022c-.037.044.004.104.052.144l.74.716c.001 0 .092.083.102.193.006.119-.053.218-.175.295a.49.49 0 01-.263.084.391.391 0 01-.21-.062l-.107-.1c-.194-.185-.394-.375-.54-.492-.036-.029-.074-.055-.11-.055a.064.064 0 00-.047.019c-.017.018-.028.05.013.103.017.022.038.04.038.04l.54.584c.004.005.11.127.011.25l-.019.022a.488.488 0 01-.05.047.443.443 0 01-.337.075c-.053-.01-.088-.024-.106-.044l-.006-.006a8.137 8.137 0 00-.527-.478c-.03-.024-.067-.054-.105-.054a.065.065 0 00-.049.02c-.044.048.023.118.051.144l.46.489a.102.102 0 01-.017.03c-.017.022-.072.075-.24.096a.513.513 0 01-.06.003c-.173 0-.356-.08-.45-.129a.64.64 0 00.064-.28.675.675 0 00-.71-.662c.012-.167-.013-.482-.349-.621a.745.745 0 00-.287-.061.605.605 0 00-.21.037.573.573 0 00-.337-.275.78.78 0 00-.246-.042c-.14 0-.269.04-.384.118a.59.59 0 00-.861-.046c-.144-.106-.712-.454-2.233-.786a8.545 8.545 0 01-.347-.092c-.017.079-.03.16-.038.24l.335.077c1.554.332 2.068.678 2.155.743a.547.547 0 00-.045.216.573.573 0 00.689.552c.048.227.203.4.439.488a.593.593 0 00.34.023c.044.107.142.24.361.326.077.03.154.045.229.045.061 0 .12-.01.178-.03a.7.7 0 001.127.21c.11.059.344.166.58.166.031 0 .06-.002.089-.005.234-.029.344-.117.394-.186a.288.288 0 00.024-.038.7.7 0 00.186.028.643.643 0 00.376-.13c.122-.084.21-.206.222-.31a.06.06 0 000-.004.644.644 0 00.126.012c.132 0 .262-.04.386-.118.24-.151.28-.348.277-.478a.65.65 0 00.489-.094.507.507 0 00.171-.712 15.343 15.343 0 012.397-.723 2.293 2.293 0 00-.033-.24c-1.306.28-2.28.686-2.525.79z" fill="#002F6D" /></g><g transform="translate(54, 72) scale(1.0, 1.0)"><ns0:path fill="#F12E45" d="M0 0h18v18H0z" /><ns0:circle cx="7.75" cy="7.75" r=".938" fill="#fff" /><ns0:circle cx="10.25" cy="7.75" r=".938" fill="#fff" /><ns0:circle cx="10.25" cy="10.25" r=".938" fill="#fff" /><ns0:circle cx="7.75" cy="10.25" r=".938" fill="#fff" /><ns0:path fill-rule="evenodd" d="M9 13a4 4 0 100-8 4 4 0 000 8zm0 1A5 5 0 109 4a5 5 0 000 10z" fill="#fff" /></g><g transform="translate(72, 72) scale(1.0, 1.0)"><ns0:path fill="#F06A69" d="M0 0h18v18H0z" /><ns0:path d="M11 6a2 2 0 11-4 0 2 2 0 014 0zm-3 5a2 2 0 11-4 0 2 2 0 014 0zm4 2a2 2 0 100-4 2 2 0 000 4z" fill="#fff" /></g><g transform="translate(90, 72) scale(1.0, 1.0)"><ns0:path fill="url(#paint0_linear)" d="M0 0h18v18H0z" /><ns0:path fill-rule="evenodd" d="M6.456 6.656l.001.001c.09.081.157.142.2.185l.025.027a.262.262 0 01.018.022c.09.126.056.24-.097.328-.085.05-.26.1-.347.1-.1 0-.133-.04-.133-.04l-.02-.018c-.05-.042-.106-.092-.364-.561a261.286 261.286 0 00-.761-1.196c-.022-.02-.022-.02.719 1.333.095.225.054.336.033.392a.112.112 0 00-.01.034c0 .082-.021.125-.12.237-.164.188-.238.398-.291.834-.06.489-.227.834-.69 1.425-.272.346-.317.409-.385.548a1.04 1.04 0 00-.12.496c-.01.234.01.386.08.61.061.196.126.325.29.584.14.224.222.39.222.455 0 .052.01.052.229.001.524-.12.95-.333 1.188-.594.148-.16.183-.25.184-.47.001-.145-.004-.176-.042-.259-.062-.135-.176-.248-.425-.422-.328-.229-.468-.413-.506-.666-.032-.208.005-.354.186-.742.187-.401.234-.572.265-.977.02-.26.049-.364.122-.447.077-.086.146-.115.335-.142.31-.043.507-.125.669-.277a.6.6 0 00.208-.451l.007-.146-.079-.093C6.763 6.428 4.017 4 4 4a19.846 19.846 0 002.456 2.656zm-1.59 4.412a.26.26 0 00-.078-.339c-.101-.069-.26-.036-.26.054a.065.065 0 00.006.026l.004.007c.004.006.009.01.015.016l.013.01.011.006c.056.03.06.063.016.13-.045.07-.041.13.01.171.083.067.2.03.262-.08z" fill="#FF0A6F" /><ns0:path d="M6.697 4.71c-.016-.005-.003-.008.03-.013.114-.018.385.006.57.052.435.105.83.375 1.252.855l.112.128.16-.027a3.319 3.319 0 011.938.249c.158.074.408.223.439.261a.71.71 0 01.04.174c.043.29.021.51-.065.676a.513.513 0 00-.03.064l-.005.018c-.01.037-.003.066.017.114a.185.185 0 00.165.107c.143 0 .297-.236.368-.564l.029-.13.056.064c.307.356.549.841.59 1.187l.01.09-.05-.082a1.005 1.005 0 00-.293-.314c-.207-.14-.425-.187-1.003-.218-.521-.028-.817-.074-1.11-.171-.498-.166-.749-.387-1.34-1.18-.264-.353-.426-.548-.587-.704-.368-.357-.728-.544-1.19-.617a1.095 1.095 0 01-.103-.019z" fill="#FF0A6F" /><ns0:path d="M11.315 5.515c.014-.236.045-.392.108-.534a.57.57 0 01.052-.102.359.359 0 01-.024.092 1.238 1.238 0 00-.022.547c.04.278.063.318.351.62.135.14.293.319.35.395l.103.139-.103-.1a4.438 4.438 0 00-.483-.392.137.137 0 00-.038-.016h-.01c-.01.003-.017.01-.028.021-.025.025-.03.063-.034.24-.005.276-.042.454-.13.63-.049.097-.056.076-.013-.032.033-.08.036-.116.036-.384 0-.537-.063-.666-.43-.888a3.735 3.735 0 00-.34-.18 1.254 1.254 0 01-.165-.082c.01-.01.367.096.511.152.214.084.25.095.275.085.018-.007.026-.059.034-.21zm-4.651-.412c-.035.414.125.97.382 1.332.2.28.509.498.737.52.15.013.195-.035.127-.136a2.563 2.563 0 01-.24-.448 5.029 5.029 0 01-.092-.376c-.107-.512-.213-.71-.456-.862a1.451 1.451 0 00-.39-.148l-.058-.01-.01.128zm4.339 4.026C9.8 8.634 9.377 8.205 9.377 7.48c0-.107.003-.194.007-.194a.87.87 0 01.104.078c.244.2.517.285 1.273.398.445.067.696.12.927.198.734.25 1.188.754 1.296 1.441.032.2.014.575-.037.772-.04.156-.164.437-.196.448-.005.002-.009-.005-.012-.019a.319.319 0 01-.009-.061 1.003 1.003 0 00-.354-.698c-.244-.214-.572-.385-1.373-.714zm-.903-.055c.018.052.044.169.059.26.096.586-.205 1.06-.79 1.243a10.04 10.04 0 01-.295.064l-.109.02-.14.024c-.478.082-.691.14-.906.245-.152.075-.337.187-.325.198.001.002.009 0 .02-.002a.507.507 0 00.057-.017c.27-.097.571-.147 1.029-.171l.2-.013.087-.006.087-.007.04-.004.045-.005c.408-.052.69-.178.91-.407a1.06 1.06 0 00.254-.412c.037-.106.042-.146.043-.333 0-.192-.005-.227-.045-.344a1.055 1.055 0 00-.194-.36l-.057-.066.03.093z" fill="#FF0A6F" /><ns0:path d="M10.71 10.335c-.16-.351-.196-.69-.109-1.006.01-.034.024-.062.034-.062a.627.627 0 01.084.046c.073.051.22.137.614.356.491.273.771.485.962.727.167.212.27.453.32.748.028.166.011.567-.03.735-.133.53-.44.945-.877 1.188a1.122 1.122 0 01-.128.065c-.002 0-.002-.005.001-.013l.005-.017a1.48 1.48 0 01.046-.105c.147-.314.164-.62.052-.96-.068-.21-.207-.463-.487-.893-.327-.5-.407-.633-.487-.81zM7.7 11.486c-.507.084-1.062.357-1.508.742l-.133.115.116.019c.61.097.774.183 1.197.628.243.256.325.313.527.366.297.077.589-.065.69-.335a.63.63 0 00-.013-.421c-.123-.239-.479-.316-.65-.141-.144.146-.102.365.076.403.04.009.04.007-.01-.016-.079-.036-.112-.086-.113-.166 0-.186.208-.291.402-.202.143.066.2.152.2.302a.371.371 0 01-.418.377.609.609 0 01-.345-.184.473.473 0 01.155-.728.72.72 0 01.707.066c.249.166.355.319.57.819.07.162.16.346.2.407.203.31.446.463.74.463a.88.88 0 00.436-.108c.114-.058.275-.169.263-.18a.404.404 0 00-.105.033c-.32.127-.645.119-.835-.023-.119-.089-.215-.266-.264-.488a10.664 10.664 0 01-.063-.376c-.065-.428-.128-.62-.276-.841-.15-.226-.44-.415-.763-.5a2.305 2.305 0 00-.784-.031z" fill="#FF0A6F" /><ns0:path fill-rule="evenodd" d="M6.99 8.178a.553.553 0 01.33-.367.634.634 0 01.374.036c.174.09.3.296.273.444-.034.181-.321.326-.652.329-.169 0-.231-.022-.296-.11-.04-.055-.055-.231-.028-.332zm.66-.267c.086.054.108.134.057.208-.035.051-.143.1-.223.1-.12 0-.25-.087-.25-.166 0-.16.25-.245.415-.142z" fill="#FF0A6F" /><ns0:defs><ns0:linearGradient id="paint0_linear" x1="2.038" y1="9" x2="18" y2="4.366" gradientUnits="userSpaceOnUse"><ns0:stop stop-color="#FFF0F6" /><ns0:stop offset="1" stop-color="#FFB3CF" /></ns0:linearGradient></ns0:defs></g><g transform="translate(108, 72) scale(1.0, 1.0)"><ns0:path fill="#21B3E6" d="M0 0h18v18H0z" /><ns0:path d="M7.17 8.98a.58.58 0 01-.3.53l-1.99 1.14a.59.59 0 01-.8-.21.58.58 0 01.21-.8L5.41 9l-1.12-.64a.58.58 0 01-.21-.8.59.59 0 01.8-.21l2 1.14a.58.58 0 01.29.5zm.36 1.64c.1-.07.22-.09.34-.08.3.02.54.27.54.58v2.3c0 .32-.26.58-.58.58a.59.59 0 01-.6-.59v-1.28l-1.11.64a.59.59 0 11-.59-1.01l2-1.14zm2.94-3.24a.59.59 0 01-.34.08.59.59 0 01-.54-.58v-2.3c0-.32.26-.58.58-.58.33 0 .6.26.6.58v1.29l1.1-.65a.58.58 0 11.59 1.01l-1.99 1.15zm-2.94 0l-2-1.14a.58.58 0 11.59-1.02l1.12.65V4.58a.59.59 0 011.17 0v2.3a.59.59 0 01-.88.5zm2.94 3.24l2 1.14a.59.59 0 11-.6 1.01l-1.1-.64v1.28a.59.59 0 01-1.18 0v-2.29c0-.3.24-.56.54-.58.11-.01.23.01.34.08zM12.6 9l1.12-.64a.58.58 0 00.21-.8.59.59 0 00-.8-.21l-2 1.14a.59.59 0 00-.26.68c.04.14.13.26.26.34l2 1.14a.58.58 0 10.59-1.01L12.59 9zm-3.06-.15c.03.04.06.1.06.15 0 .06-.03.11-.06.15l-.38.38a.2.2 0 01-.15.06.2.2 0 01-.14-.06l-.4-.38a.22.22 0 010-.3l.4-.38a.21.21 0 01.29 0l.38.38zm-.23 1.56l1.11-1.1c.04-.04.06-.1.06-.15v-.32c0-.05-.02-.11-.06-.14l-1.1-1.11a.22.22 0 00-.15-.06h-.32c-.05 0-.11.02-.14.06L7.6 8.69a.23.23 0 00-.06.15v.32c0 .05.03.11.06.14l1.1 1.11c.04.03.1.06.15.06h.32c.05 0 .11-.03.14-.06z" fill="#fff" /></g><g transform="translate(126, 72) scale(1.0, 1.0)"><ns0:path fill="url(#paint0_linear)" d="M0 0h18v18H0z" /><ns0:path fill="#DB0916" d="M6 4h2v10H6zM10 4h2v10h-2z" /><ns0:path d="M10 14h2L8 4H6l4 10z" fill="#FF3540" /><ns0:defs><ns0:linearGradient id="paint0_linear" x1="3.349" y1="3.122" x2="21.904" y2="24.434" gradientUnits="userSpaceOnUse"><ns0:stop stop-color="#1A1E21" /><ns0:stop offset="1" stop-color="#06060A" /></ns0:linearGradient></ns0:defs></g><g transform="translate(144, 72) scale(1.0, 1.0)"><ns0:path fill="#F44238" d="M0 0h18v18H0z" /><ns0:path d="M12.86 5h-2.02c-.07 0-.15.06-.15.14v.73c0 .08.08.13.15.13h.43L5 11.97v.89c0 .08.06.14.14.14h2.72c.08 0 .14-.06.14-.14v-.71c0-.08-.06-.15-.14-.15H6.42L12 6.7v.33c0 .08.08.13.15.13h.7c.09 0 .15-.05.15-.13V5.14a.14.14 0 00-.14-.14zM6 6h3.59c.07 0 .14-.04.14-.12v-.74A.14.14 0 009.59 5H5.14a.14.14 0 00-.14.14v1.71c0 .08.06.15.14.15h.7c.08 0 .16-.07.16-.15V6zm6 6H9.15c-.07 0-.15.06-.15.14v.73c0 .07.08.13.15.13h3.71c.08 0 .14-.06.14-.13v-1.71c0-.08-.06-.16-.14-.16h-.7c-.07 0-.16.08-.16.16V12z" fill="#fff" /></g><g transform="translate(162, 72) scale(1.0, 1.0)"><ns0:path fill="#F0F3FA" d="M0 0h18v18H0z" /><ns0:path d="M13.243 6.31a2.858 2.858 0 00-4.958 0 5.798 5.798 0 012.479-.552c.886 0 1.727.198 2.479.553z" fill="#EF5530" /><ns0:path d="M10.098 4.098a2.857 2.857 0 00-3.505 3.506A5.795 5.795 0 017.955 5.46a5.797 5.797 0 012.143-1.362z" fill="#F5911E" /><ns0:path d="M6.31 4.757a2.858 2.858 0 000 4.958 5.798 5.798 0 01-.552-2.479 5.8 5.8 0 01.553-2.479z" fill="#FFCC25" /><ns0:mask id="a" maskUnits="userSpaceOnUse" x="4" y="7" width="4" height="5"><ns0:path d="M4 7.902h3.604v3.603H4V7.902z" fill="#fff" /></ns0:mask><ns0:g mask="url(#a)"><ns0:path d="M4.098 7.902a2.858 2.858 0 003.506 3.505 5.8 5.8 0 01-2.144-1.362 5.8 5.8 0 01-1.362-2.143z" fill="#B8CF32" /></ns0:g><ns0:path d="M4.757 11.69a2.858 2.858 0 004.958 0 5.798 5.798 0 01-2.479.552 5.798 5.798 0 01-2.479-.553z" fill="#1EA34E" /><ns0:path d="M7.902 13.902a2.858 2.858 0 003.505-3.506 5.8 5.8 0 01-1.362 2.144 5.798 5.798 0 01-2.143 1.362z" fill="#4290CD" /><ns0:path d="M11.69 13.243a2.858 2.858 0 000-4.958c.354.752.552 1.592.552 2.479 0 .886-.198 1.727-.553 2.479z" fill="#6F54A1" /><ns0:path d="M13.902 10.098a2.858 2.858 0 00-3.506-3.505 5.8 5.8 0 012.144 1.362 5.799 5.799 0 011.362 2.143z" fill="#CF1874" /></g><g transform="translate(0, 90) scale(1.0, 1.0)"><ns0:path fill="url(#paint0_linear)" d="M0 0h18v18H0z" /><ns0:path d="M4.226 8.444S5.334 6.752 7.5 6.585V6C5.1 6.194 3 8.32 3 8.32S4.2 11.687 7.5 12v-.622c-2.422-.307-3.274-2.934-3.274-2.934zm3.274 1.76v.569c-1.83-.329-2.361-2.246-2.361-2.246s.901-.98 2.361-1.14v.625c-.766-.093-1.39.628-1.39.628s.358 1.214 1.39 1.563zM7.5 5v1c.07-.005.118-.01.189-.012 2.728-.093 4.505 2.333 4.505 2.333s-2.041 2.5-4.168 2.5c-.195 0-.355-.017-.526-.048v.605c.147.019.276.03.434.03 1.98 0 3.41-.956 4.797-2.162.23.186 1.17.637 1.364.834-1.318 1.112-4.39 1.946-6.13 1.946-.168 0-.307-.01-.465-.026v1H15V5H7.5zm0 2.387v-.802c.07-.005.117-.009.189-.01 1.962-.063 3.249 1.777 3.249 1.777s-1.39 1.945-2.88 1.945c-.215 0-.385-.035-.558-.094v-2.19c.764.092.895.432 1.354 1.203l1.02-.867s-.744-.985-2.001-.985c-.137 0-.245.01-.373.023z" fill="#76B900" /><ns0:defs><ns0:linearGradient id="paint0_linear" x1="3.349" y1="3.122" x2="21.904" y2="24.434" gradientUnits="userSpaceOnUse"><ns0:stop stop-color="#1A1E21" /><ns0:stop offset="1" stop-color="#06060A" /></ns0:linearGradient></ns0:defs></g><g transform="translate(18, 90) scale(1.0, 1.0)"><ns0:path fill="#3253DC" d="M0 0h18v18H0z" /><ns0:path d="M10.508 13.769a5 5 0 111.645-.888l.628 1.57a.4.4 0 01-.372.549h-1.138a.4.4 0 01-.372-.251l-.391-.98zm.84-2.9a3 3 0 10-1.586 1.034l-.543-1.354A.4.4 0 019.591 10h1.138a.4.4 0 01.372.251l.246.617z" fill="#fff" /></g><g transform="translate(36, 90) scale(1.0, 1.0)"><ns0:path fill="url(#paint0_linear)" d="M0 0h18v18H0z" /><ns0:path d="M3 5.308h1.895v4.439c0 .729.336 1.163.6 1.35-.28.248-1.306.465-1.946-.063-.377-.31-.549-.822-.549-1.303V5.308zM14.369 9v-.616H15V6.846h-.631C14.21 5.77 13.249 5 12.158 5c-1.258 0-2.526.923-2.526 2.318v3.99c.358.05.928-.08 1.292-.38.377-.31.605-.831.605-1.312l-.003-.308H12V7.766h-.473l-.002-.205.002-.1c0-.317.154-.615.473-.615.32 0 .474.298.474.616V9c0 1.425 1.268 2.308 2.526 2.308v-1.7c-.32 0-.631-.29-.631-.608zM7.5 6.846v2.43c0 .142-.07.34-.236.34-.15 0-.264-.198-.264-.34v-2.43H5.211v2.87c0 .527.18 1.194.998 1.411.82.218 1.1-.232 1.1-.232-.044.296-.129.513-.581.56a2.58 2.58 0 01-1.044-.146v1.538c.557.163 1.358.197 1.886.095 1.045-.201 1.746-1.07 1.746-2.226v-3.87H7.5z" fill="#fff" /><ns0:defs><ns0:linearGradient id="paint0_linear" x1="0" y1="0" x2="18" y2="18" gradientUnits="userSpaceOnUse"><ns0:stop stop-color="#FF08F3" /><ns0:stop offset="1" stop-color="#FF09C8" /></ns0:linearGradient></ns0:defs></g><g transform="translate(54, 90) scale(1.0, 1.0)"><ns0:path fill="url(#aoqyqro0e)" d="M0 0h18v18H0z" /><ns0:path d="M11.9 4L7.83 5.06l-.6 1.04H5.99L3 9l2.99 2.9h1.23l.6 1.04L11.91 14 13 10.03 12.38 9 13 7.97 11.9 4zM7.32 6.27l3.13-.78-1.8 3.04H5.07L7.3 6.27zm0 5.46L5.06 9.47h3.59l1.79 3.04-3.13-.78zm4 .3L9.52 9l1.8-3.02.86 3.02-.87 3.02z" fill="#fff" /><ns0:defs><ns0:linearGradient id="aoqyqro0e" x1="3.35" y1="3.12" x2="21.9" y2="24.43" gradientUnits="userSpaceOnUse"><ns0:stop stop-color="#1A1E21" /><ns0:stop offset="1" stop-color="#06060A" /></ns0:linearGradient></ns0:defs></g><g transform="translate(72, 90) scale(1.0, 1.0)"><ns0:path fill="#380D76" d="M0 0h18v18H0z" /><ns0:path d="M9 14l1.84-6H7.16L9 14z" fill="#E34329" /><ns0:path d="M4.58 8l-.56 1.82c-.05.17 0 .35.14.45L9 14 4.58 8z" fill="#FCA325" /><ns0:path d="M4.58 8h2.58L6.05 4.63c-.06-.17-.3-.17-.36 0L4.58 8z" fill="#E34329" /><ns0:path d="M13.42 8l.56 1.82c.05.17 0 .35-.14.45L9 14l4.42-6z" fill="#FCA325" /><ns0:path d="M13.42 8h-2.58l1.11-3.37c.06-.17.3-.17.36 0L13.42 8z" fill="#E34329" /><ns0:path d="M9 14l1.84-6h2.58L9 14zM9 14L4.58 8h2.58L9 14z" fill="#FC6E26" /></g><g transform="translate(90, 90) scale(1.0, 1.0)"><ns0:path d="M0 0h18v18H0V0z" fill="#FB3147" /><ns0:path d="M12.373 3.952a.62.62 0 10-1.066-.638l-1.118 1.872a3.997 3.997 0 00-5 5.03l1.358-2.263A2.667 2.667 0 0111.667 9a2.665 2.665 0 01-4.314 2.094l.865-1.472a.999.999 0 10-.164-.946L6.37 11.542l-1.583 2.515a.62.62 0 101.065.638l1.35-2.127c.54.273 1.151.426 1.798.426 2.21 0 4-1.788 4-3.994 0-1.348-.669-2.54-1.693-3.263l1.066-1.785z" fill="#fff" /></g><g transform="translate(108, 90) scale(1.0, 1.0)"><ns0:path fill="#F0F3FA" d="M0 0h18v18H0z" /><ns0:path fill="#F0502A" d="M5 5h4v4H5z" /><ns0:path fill="#82BA22" d="M9 5h4v4H9z" /><ns0:path fill="#FDB92C" d="M9 9h4v4H9z" /><ns0:path fill="#1CA7ED" d="M5 9h4v4H5z" /></g><g transform="translate(126, 90) scale(1.0, 1.0)"><ns0:path fill="url(#ajaz0yiim)" d="M0 0h18v18H0z" /><ns0:path d="M10.1 6.25C10.24 5.6 9.45 4 9.45 4c4.1 2.53 2.96 4 2.96 4-.23-1.08-2.31-1.75-2.31-1.75zM9.06 7.72c-.1-.46-.23-.9-.41-1.33l-1.35-.9s.7 1.08.59 1.8l1.17.43zm-2.52-.24c.15.37.27.76.36 1.15l-1.07-.27c.12-.7-.56-1.56-.56-1.56l1.27.68zm7.41 2.87c-.31-1.28-5.08-4.57-5.08-4.57a5.73 5.73 0 01.07 5.66c.25-.88.34-1.8.25-2.7v-.07l-.03-.16-2.28-1.5a5.72 5.72 0 01-.07 4.84c.2-.8.26-1.63.18-2.45v-.1L4.83 8.18A4.71 4.71 0 014 13.5c9.13-3.8 9.5-1.3 9.5-1.3s.69-.89.45-1.85z" fill="#fff" /><ns0:defs><ns0:linearGradient id="ajaz0yiim" x1="3.35" y1="3.12" x2="21.9" y2="24.43" gradientUnits="userSpaceOnUse"><ns0:stop stop-color="#1A1E21" /><ns0:stop offset="1" stop-color="#06060A" /></ns0:linearGradient></ns0:defs></g><g transform="translate(144, 90) scale(1.0, 1.0)"><ns0:path fill="#E82127" d="M0 0h18v18H0z" /><ns0:path d="M9 15l1.5-8c1.334 0 1.654.272 1.715.872 0 0 .894-.335 1.346-1.016C11.8 6.037 10 6 10 6L9 7.25 8 6s-1.8.037-3.56.856c.45.68 1.345 1.016 1.345 1.016.061-.6.39-.871 1.715-.872L9 15z" fill="#fff" /><ns0:path d="M9 5.608a11.35 11.35 0 014.688.955C13.91 6.16 14 6 14 6c-1.823-.724-3.53-.994-5-1-1.47.006-3.177.276-5 1 0 0 .114.2.313.563A11.349 11.349 0 019 5.607z" fill="#fff" /></g><g transform="translate(162, 90) scale(1.0, 1.0)"><ns0:path fill="#FF7A59" d="M0 0h18v18H0z" /><ns0:path d="M11.679 7.622v-1.31a.976.976 0 00.402-.37c.098-.161.15-.348.151-.54v-.03c0-.267-.1-.524-.28-.713a.937.937 0 00-.68-.295h-.029a.937.937 0 00-.678.295c-.18.19-.282.446-.282.713v.03c.001.192.054.379.152.54.098.16.237.289.402.37v1.31c-.474.076-.92.282-1.293.598l-3.42-2.798a1.18 1.18 0 00.04-.284c0-.224-.063-.444-.182-.631a1.095 1.095 0 00-.485-.42 1.033 1.033 0 00-.625-.066c-.21.044-.403.152-.554.31a1.155 1.155 0 00-.297.582c-.042.22-.02.45.06.657.082.208.22.385.399.51.177.126.386.193.6.193.188-.001.371-.053.533-.152L8.98 8.873a2.971 2.971 0 00-.453 1.62c.008.577.18 1.137.495 1.608l-1.024 1.076a.84.84 0 00-.256-.044.858.858 0 00-.494.158.925.925 0 00-.327.419.977.977 0 00-.05.539.949.949 0 00.243.478c.124.13.283.219.455.255.172.036.35.018.513-.053a.9.9 0 00.399-.343.967.967 0 00.15-.519.964.964 0 00-.042-.269l1.013-1.064c.33.267.715.451 1.123.538.409.087.831.075 1.234-.036.404-.11.778-.317 1.093-.603.316-.286.565-.644.729-1.047a3 3 0 00-.126-2.524 2.825 2.825 0 00-.83-.96 2.658 2.658 0 00-1.146-.48zm-.42 4.308c-.277 0-.548-.087-.779-.25a1.46 1.46 0 01-.515-.66 1.542 1.542 0 01-.08-.851c.055-.286.188-.548.384-.754.196-.206.446-.346.718-.402.271-.057.553-.028.81.083.255.112.474.3.628.542a1.526 1.526 0 01-.174 1.86c-.263.276-.62.43-.991.43" fill="#fff" /></g><g transform="translate(0, 108) scale(1.0, 1.0)"><ns0:path fill="#C4342B" d="M0 0h18v18H0z" /><ns0:path opacity=".12" d="M13.491 7.27l-1.275-.909-.026-.02a.57.57 0 00-.168-.092l-.005-.005-3.424-.842-3.057-.755-.076-.02a.781.781 0 00-.312-.041.214.214 0 00-.086.03l-.03.026a.352.352 0 00-.083.127l-.005.02v.113l.005.015 1.94 5.48 1.5 4.22c.03.097.117.158.224.169h.026a.264.264 0 00.234-.133l1.868-2.76 1.362-2.021.562-.827.933-1.377.02-.026v-.03c.011-.082.011-.256-.127-.348v.005zm-2.184 1.005l-1.337.709.786-.857 1.005-1.092.006-.01.102-.113.081-.081c.3.208.597.419.893.632-.514.267-1.026.538-1.536.812zm-1.133-.123L9.14 9.28a668.669 668.669 0 00-2.02-2.475l-.91-1.102-.203-.255-.133-.158.822.204.73.178 4.107 1.01-1.357 1.48v-.01zm-1.188 4.67l.081-.766.061-.613.103-.97v-.05c.025-.21.05-.424.06-.638a.704.704 0 01.088-.04l.102-.052 1.643-.867 1.653-.873c-.502.739-1.002 1.479-1.5 2.22L9.99 12.07c-.169.255-.347.51-.51.765-.194.27-.388.562-.577.842.023-.286.05-.572.082-.857zM5.7 5.855l-.092-.26L7.51 7.918l.97 1.188c.066.072.127.154.188.23.082.097.158.199.25.296l-.081.735-.051.505-.031.321-.051.475-.005.02-.148 1.444-.061.597-.036-.102a10.68 10.68 0 01-.102-.296l-.255-.714L5.7 5.857z" fill="#fff" /><ns0:path fill-rule="evenodd" d="M4.629 4.165a.5.5 0 01.49-.15l7.063 1.727a.5.5 0 01.175.081l1.437 1.047a.5.5 0 01.119.686l-4.944 7.226a.5.5 0 01-.884-.114l-3.556-10a.5.5 0 01.1-.503zM6.37 6.862l1.932 5.43.317-2.814L6.37 6.862zm3.236 2.79l-.328 2.907 2.774-4.054-2.446 1.147zm2.916-2.472l-1.207.566.81-.855.397.29zm-1.413-.671L6.395 5.356 9.158 8.57l1.95-2.062z" fill="#fff" /></g></svg>