<svg xmlns:ns0="http://www.w3.org/2000/svg" xmlns="http://www.w3.org/2000/svg" width="280" height="196"><g transform="translate(0, 0) scale(0.4, 0.4)"><ns0:g id="surface1">
<ns0:path style=" stroke:none;fill-rule:nonzero;fill:rgb(0%,0%,0%);fill-opacity:1;" d="M 0 35 L 0 70 L 70 70 L 70 0 L 0 0 Z M 40.199219 23.726562 C 42.601562 24.949219 43.824219 27.699219 42.976562 29.925781 C 42.125 32.199219 40.324219 33.5 38.050781 33.5 C 36.324219 33.5 35.324219 33.050781 34.199219 31.800781 C 31.824219 29.175781 32.601562 25.398438 35.875 23.675781 C 36.925781 23.101562 39.050781 23.148438 40.199219 23.726562 Z M 30.25 36.5 L 30.25 49.5 L 19.75 49.5 L 19.75 34 L 9.5 34 L 9.5 23.5 L 30.25 23.5 Z M 60.75 23.675781 C 60.75 23.773438 60.148438 25.273438 59.398438 27 C 58.675781 28.726562 57.175781 32.199219 56.125 34.75 C 54.300781 39.125 53.574219 40.824219 51 46.925781 L 49.925781 49.5 L 37.773438 49.5 L 38.648438 47.425781 C 39.148438 46.300781 39.773438 44.800781 40.050781 44.125 C 40.324219 43.425781 41.148438 41.476562 41.875 39.75 C 42.625 38.023438 43.851562 35.101562 44.625 33.25 C 45.398438 31.398438 46.175781 29.523438 46.375 29.125 C 46.550781 28.699219 46.925781 27.800781 47.199219 27.125 C 47.476562 26.425781 47.949219 25.351562 48.25 24.675781 L 48.773438 23.5 L 54.75 23.5 C 58.050781 23.5 60.75 23.574219 60.75 23.675781 Z M 60.75 23.675781 " />
</ns0:g>
</g><g transform="translate(28, 0) scale(0.5, 0.5)"><ns0:path fill="#21B3E6" d="M0 0h56v56H0z" /><ns0:path d="M21.78 27.94a1.97 1.97 0 01-1 1.78L14 33.62a2 2 0 01-2.73-.73 1.98 1.98 0 01.73-2.71L15.79 28 12 25.82a1.98 1.98 0 01-.73-2.71 2 2 0 012.73-.73l6.78 3.9a1.98 1.98 0 011 1.66zM23 33.5c.36-.22.77-.3 1.16-.26 1.03.07 1.84.93 1.84 1.98v7.8a2 2 0 11-4 0v-4.37l-3.8 2.18a1.99 1.99 0 11-2-3.44l6.8-3.9zm10-11a2 2 0 01-1.16.26A2 2 0 0130 20.78v-7.8c0-1.09.89-1.98 2-1.98a2 2 0 012 1.99v4.36l3.79-2.19a1.99 1.99 0 112 3.44L33 22.5zm-10 0l-6.79-3.9a1.99 1.99 0 112-3.44L22 17.35v-4.36a2 2 0 014 0v7.8a2 2 0 01-1.84 1.97A2 2 0 0123 22.5zm10 11l6.78 3.89a1.99 1.99 0 11-2 3.44L34 38.65v4.36a2 2 0 01-4 0v-7.8c0-1.04.81-1.9 1.84-1.97.4-.04.8.04 1.16.26zm7.21-5.5L44 25.82a1.98 1.98 0 00.73-2.71 2 2 0 00-2.73-.73l-6.78 3.9a2 2 0 00-.9 2.3c.13.47.45.88.9 1.14l6.78 3.9a2 2 0 002.73-.73c.55-.95.23-2.16-.73-2.71L40.21 28zm-10.4-.5c.1.12.19.3.19.5s-.09.38-.2.5l-1.3 1.3a.7.7 0 01-.5.2.7.7 0 01-.5-.2l-1.31-1.3a.73.73 0 010-1l1.32-1.3a.71.71 0 01.98 0l1.32 1.3zm-.78 5.3l3.77-3.77c.11-.1.2-.32.2-.47v-1.11a.77.77 0 00-.2-.48l-3.77-3.77a.75.75 0 00-.48-.2h-1.11a.76.76 0 00-.47.2l-3.77 3.77c-.11.1-.2.32-.2.48v1.11c0 .15.09.36.2.47l3.77 3.77c.1.1.32.2.47.2h1.11c.16 0 .37-.1.48-.2z" fill="#fff" /></g><g transform="translate(56, 0) scale(0.5, 0.5)"><ns0:path fill="#3253DC" d="M0 0h56v56H0z" /><ns0:path fill-rule="evenodd" d="M32.658 43.312A16 16 0 0128 44c-8.837 0-16-7.163-16-16s7.163-16 16-16 16 7.163 16 16c0 5.567-2.843 10.47-7.156 13.336l2.587 6.283A1 1 0 0138.508 49H35.67a1 1 0 01-.925-.62l-2.087-5.069zm-1.917-4.656C29.864 38.88 28.946 39 28 39c-6.075 0-11-4.925-11-11s4.925-11 11-11 11 4.925 11 11a10.98 10.98 0 01-4.114 8.579l-1.631-3.96A1 1 0 0032.33 32h-2.837a1 1 0 00-.924 1.38l2.172 5.276z" fill="#fff" /></g><g transform="translate(84, 0) scale(0.5, 0.5)"><ns0:path fill="url(#attxriias)" d="M0 0h56v56H0z" /><ns0:path d="M37.5 12l-13.07 3.4-1.94 3.33-3.92-.03L9 28l9.57 9.3 3.92-.02 1.94 3.31L37.5 44 41 31.3 39.01 28 41 24.71 37.5 12zm-14.7 7.26l10-2.5-5.73 9.74H15.59l7.22-7.24zm0 17.48l-7.2-7.24h11.48l5.74 9.74-10-2.5zm12.8.93L29.86 28l5.74-9.67L38.38 28l-2.78 9.67z" fill="#fff" /><ns0:defs><ns0:linearGradient id="attxriias" x1="10.42" y1="9.71" x2="68.15" y2="76.02" gradientUnits="userSpaceOnUse"><ns0:stop stop-color="#1A1E21" /><ns0:stop offset="1" stop-color="#06060A" /></ns0:linearGradient></ns0:defs></g><g transform="translate(112, 0) scale(0.5, 0.5)"><ns0:path fill="#E21D38" d="M0 0h56v56H0z" /><ns0:path d="M44 28c0 8.837-7.163 16-16 16-4.67 0-8.873-2-11.798-5.192 2.733.506 5.967.858 9.645.934V38.66c-2.162-.14-3.168-.432-3.318-.864-.285-.818-.6-8.372-.529-11.796h3.8c.294-.133.646-.26.997-.388.42-.153.837-.305 1.155-.464V24H22s.096-3.21.172-4.583c.075-.94.94-1.589 1.513-1.589 1.006-.075 1.946.358 2.886.79.254.108.505.235.757.362.251.127.503.254.757.362.216.075.507.141.723-.075l.157-.193c.236-.293.47-.582.708-.813.141-.216.076-.357 0-.433-.44-.345-.847-.655-1.266-.975l-.604-.463c-.358-.291-1.006-.291-1.59-.291-.157-.05-.306-.034-.452-.017a1.885 1.885 0 01-.215.017c-.573 0-1.372.14-2.67.432-2.81.79-6.27 2.736-6.636 5.979-.075.508-.24 1.807-.24 1.807-.434.042-.833.093-1.225.143-.32.04-.636.08-.962.115-.04.347-.059.673-.078 1-.016.284-.032.569-.063.87.394-.04.812-.06 1.24-.078.358-.016.724-.033 1.088-.063-.019 2.888.143 6.638.253 9.19.029.667.054 1.252.071 1.719-.075.291-.353.436-1.077.436l.83 1.021A15.94 15.94 0 0112 28c0-8.837 7.163-16 16-16 5.091 0 9.627 2.378 12.557 6.084-.51-.067-1.012-.157-1.519-.247a27.964 27.964 0 00-1.938-.3 58.47 58.47 0 00-5.265-.432c-1.24 3.459-2.688 7.859-4.202 12.474 7.86.649 10.886 2.811 10.745 5.763-.14 1.589-1.654 3.102-3.6 3.243-2.303.141-3.384-.79-4.033-1.805-.34-.557-.706-1.11-1.083-1.681-.26-.392-.523-.791-.788-1.205-.136-.282-.414-.088-.627.06l-.021.015c-.342.291-.65.616-.946.93-.144.152-.285.301-.427.443-.291.291-.216.508-.14.724l.129.302c.39.906.778 1.812 1.167 2.65.724.432 3.968 1.005 6.346.79 1.654-.142 3.676-.79 5.405-2.022 1.655-1.297 2.886-3.027 3.102-5.838.076-1.73-.216-3.534-1.73-5.189-1.513-1.654-4.107-3.027-9.372-3.384.132-.391.248-.767.363-1.135.138-.446.272-.881.427-1.319 3.168.141 5.979.358 8.367.649.103-.448.174-.88.243-1.302.06-.365.12-.723.197-1.08A15.925 15.925 0 0144 28z" fill="#fff" /></g><g transform="translate(140, 0) scale(0.5, 0.5)"><ns0:path fill="#C3A634" d="M0 0h56v56H0z" /><ns0:path d="m22.46 8.05-.51-.36a.19.19 0 0 0-.3.18l.08.5-.05 2a.2.2 0 0 1-.06.14l-.05.05a.33.33 0 0 0-.09.16c-.15.62-.3 1.26-.43 1.9a.93.93 0 0 1-.24.44l-.43.46c-.54.58-.47.68.23.3.53-.3 1.06-.65 1.62-1.07.18-.14.5-.18.93-.13.08.01.15.04.2.1.18.19.37.33.58.45.07.03.11.1.12.18.05.34 0 .7-.24.96a2.72 2.72 0 0 0-.68 1.82c0 .1-.04.17-.12.22-.51.3-.54.87-.96 1.27-.2.18-.4.34-.62.48l-.04-1.34a.31.31 0 0 0-.33-.3c-.16 0-.32.1-.46.26-.35.43-.8.76-1.34.97-.42.1-.7.43-.87 1-.08.2-.2.4-.37.58.05-.91-.36-1.32-1.23-1.23-.19.02-.49.2-.9.55a.32.32 0 0 0-.1.18c-.12.56-.43.96-.96 1.2-.17.04-.25-.04-.24-.21 0-.03 0-.05.02-.08.66-1.25.67-2.74 1.82-3.74a3.6 3.6 0 0 1 1.05-.68c1.99-.7 3.03-2.01 3.13-3.96l.06-1.96a7.7 7.7 0 0 1 .33-2.09.36.36 0 0 1 .44-.24l.55.15c.07.02.12.06.15.13l.3.76Z" fill="#E1B051" /><ns0:path d="m22.46 8.05.37.43c.56.77 1.02 1.6 1.4 2.48.12.29.41.6.89.95.27.21 0 .32-.83.3a6.26 6.26 0 0 1-1.46-1.75 1.7 1.7 0 0 1-.24-.75 1.71 1.71 0 0 0-.54-1.13.13.13 0 0 0-.22.08l-.01.24c-.07-.14-.1-.32-.1-.52l-.06-.51a.19.19 0 0 1 .29-.18l.5.36Z" fill="#B87C29" /><ns0:path d="M38.21 8.46c-.21.02-.32.16-.3.4 0 .38.2.64.2 1 0 .23-.01.45-.03.68-.04.53.42 1.02.56 1.52.2.68.24 1.29.14 1.81-.1.51-.17 1.04-.22 1.6a.91.91 0 0 1-.33.65.16.16 0 0 0-.04.2l.06.06c.25.15.42.36.5.62a.12.12 0 0 0 .23.01c.11-.22.16-.44.15-.66.1.1.17.2.18.26.2.55.44 1.09.7 1.6.28.57.45 1.05.53 1.45.17.86.28 1.72.33 2.57.02.41.14 1.03.3 1.4.43 1.08.73 2.17.9 3.29v2.24c-.01.07.01.14.06.2.25.33.31.73.2 1.2-.05.22 0 .4.15.53.07.06.1.13.1.22-.02.41-.16.76-.41 1.05-.2.21-.33.45-.42.7-.24.73-.73 1.41-1.5 1.6a.48.48 0 0 0-.29.21c-.31.52-.4.98-1.04 1.22a.18.18 0 0 1-.19-.03c-.18-.13-.38-.1-.6.07.13-.5.3-1 .52-1.47.11-.24.26-.46.45-.66.34-.38.44-.86.3-1.46a.3.3 0 0 1 .05-.23c.34-.49.53-1 .92-1.48.35-.44.52-.94.5-1.52a.09.09 0 0 0-.05-.08h-.06a.1.1 0 0 0-.04.03c-.6.65-1.41 1.04-1.9 1.8-.63 1-1.39 1.84-2.28 2.55-.15.12-.21.28-.2.48.06.47 0 .99.63 1 .1.01.14.06.14.15 0 .2-.06.38-.17.53a36.43 36.43 0 0 0-.87 1.3.13.13 0 0 0 .12.13l.16.01c-.18.1-.34.23-.56.25-.6.06-.99-.03-1.17-.25.34-.43.65-.77.92-1.03.3-.26.4-.6.36-.98a.16.16 0 0 0-.17-.15c-.15.02-.28.06-.42.12a.14.14 0 0 1-.2-.16c.05-.2.06-.42.04-.63-.01-.06 0-.11.03-.16l.55-.93a.07.07 0 0 0-.02-.1.07.07 0 0 0-.09 0c-.37.37-.77.6-1.2.68-.09.02-.14-.02-.17-.1l-.02-.08.01-.01c.26-.1.47-.23.62-.4a.87.87 0 0 0 .2-.57c0-.61.88-1.37 1.29-1.78a.53.53 0 0 0 .15-.47 13.2 13.2 0 0 1-.17-1.1c-.01-.13.04-.22.15-.27a.16.16 0 0 1 .1-.02c.03 0 .06.02.09.04l.08.08c.07.06.13.05.17-.03l.36-.6a.19.19 0 0 0 .02-.12c-.1-.7.1-1.28.58-1.71.16-.2.25-.42.26-.68a.18.18 0 0 0-.1-.18l-.3-.2a.2.2 0 0 1-.1-.2c.04-.3.15-.56.33-.8.04-.05.04-.1-.01-.14-.23-.18-.4-.63-.2-.9.05-.08.09-.17.1-.26a.16.16 0 0 0-.04-.15c-.3-.28-.36-.58-.17-.91.03-.07.03-.13-.02-.18l-.49-.51a.18.18 0 0 1-.05-.15.54.54 0 0 0-.13-.4.1.1 0 0 0-.08-.04.1.1 0 0 0-.08.06c-.07.18-.16.34-.27.5l-.06.02c-.05 0-.07-.03-.06-.08l.1-.5c.02-.08-.01-.13-.1-.13l-.74-.03a.1.1 0 0 0-.09.15l.27.4a.1.1 0 0 1 .01.09.1.1 0 0 1-.07.06.39.39 0 0 1-.26-.04l-.66-.33a.45.45 0 0 0-.22-.04l-.5.03c-.11 0-.18-.04-.2-.14l-.03-.08a.16.16 0 0 0-.18-.12 6.2 6.2 0 0 1-2 .07.28.28 0 0 0-.28.15 6.3 6.3 0 0 1-1.67 2.04c-.22.17-.47.25-.72.34a.46.46 0 0 0-.2.13c-.41.46-.78.35-1.34.34-.6-.01-1.18-.04-1.76-.07a.9.9 0 0 0-.4-.16.18.18 0 0 1-.15-.16 3.81 3.81 0 0 0-.52-1.61.18.18 0 0 0-.18-.1.19.19 0 0 0-.16.12l-.35.92a.22.22 0 0 1-.36.08.22.22 0 0 1-.06-.13l-.09-.58a1.3 1.3 0 0 0-.07-.27l-.2-.55a.13.13 0 0 1 .06-.16.13.13 0 0 1 .06-.01h.13c.07 0 .11-.03.14-.1.12-.38.29-.75.48-1.1a.79.79 0 0 0-.01-.8c-.04-.07-.1-.08-.16-.02-.47.4-.86.83-1.18 1.24-.1.15-.17.13-.2-.05a.2.2 0 0 0-.05-.13c-.05-.04-.1-.05-.17-.02-.61.3-1.08.65-1.4 1.07a.92.92 0 0 1-.56.37c-.08.01-.1-.02-.09-.1a8.07 8.07 0 0 1 .78-1.52c.1-.14.06-.28-.1-.42-.05-.06-.1-.06-.16 0l-.75.7a.3.3 0 0 1 .07-.2c.3-.28.53-.67.7-1.16.15.01.24-.04.27-.15.07-.3.2-.51.35-.75.22-.14.43-.3.62-.48.42-.4.45-.97.96-1.27a.24.24 0 0 0 .12-.22c0-.7.23-1.3.68-1.82.23-.27.29-.62.24-.96a.23.23 0 0 0-.12-.18c-.21-.12-.4-.26-.57-.45a.33.33 0 0 0-.2-.1c-.45-.05-.76 0-.94.13-.56.42-1.1.78-1.62 1.07-.7.38-.77.28-.23-.3l.43-.46c.12-.13.2-.28.24-.44l.43-1.9a.33.33 0 0 1 .09-.16l.05-.05a.2.2 0 0 0 .06-.14l.05-2c-.01.21.02.39.09.53.08.2.2.35.34.43a.24.24 0 0 1 .12.22.23.23 0 0 1-.15.2c-.44.18-.4.73-.13 1.03.24.28.4.6.45.95.01.12.08.2.19.27.56.3 1.1.37 1.65.22.82 0 1.1-.1.83-.3 1.1.07 2.15.22 3.15.45.3.06.61.1.92.1.58 0 1.11.16 1.7.21.58.05 1.16.2 1.7-.08.3-.16.55-.38.75-.65.4 0 .71-.1.94-.3.2-.17.36-.37.5-.59.04-.05.1-.1.15-.12.48-.22.82-.58 1.03-1.09.13-.33.06-.7.07-1.05a.3.3 0 0 1 .08-.2c.47-.53 1.6-.41 2.1-.14Z" fill="#C89539" /><ns0:path d="M38.21 8.46c.4.22.7.62.87 1.2a9.6 9.6 0 0 1 .42 4.38l-.37 2.31c.01.22-.04.44-.15.66a.12.12 0 0 1-.22-.01 1.1 1.1 0 0 0-.51-.62.16.16 0 0 1-.07-.2.16.16 0 0 1 .05-.06c.2-.16.3-.38.33-.65.05-.56.12-1.09.22-1.6.1-.52.06-1.13-.14-1.8-.14-.5-.6-1-.56-1.53l.03-.67c0-.37-.2-.63-.2-1.01-.02-.24.09-.37.3-.4ZM24.3 12.22a2.2 2.2 0 0 1-1.66-.22.35.35 0 0 1-.2-.27c-.05-.35-.2-.67-.44-.95-.26-.3-.3-.85.13-1.03a.23.23 0 0 0 .15-.2.24.24 0 0 0-.12-.22.79.79 0 0 1-.34-.43l.01-.24a.13.13 0 0 1 .22-.08c.33.32.51.7.54 1.13.02.26.1.51.24.75.39.7.88 1.28 1.46 1.76Z" fill="#85511C" /><ns0:path d="M34.06 12.81a.24.24 0 0 1 .13-.05c.25-.03.34.07.28.3a.27.27 0 0 1-.1.14c-.57.42-.87 1-.9 1.73-.04.55.35.83.34 1.36l-.03.09c-.04.04-.08.06-.13.06-.16-.01-.26-.1-.3-.24-.08-.3-.2-.58-.38-.83a.27.27 0 0 0-.14-.1.58.58 0 0 1-.4-.38.45.45 0 0 0-.12-.19l-.58-.5a.46.46 0 0 1-.18-.4.14.14 0 0 1 .14-.12c.03 0 .05 0 .07.02.27.17.55.24.84.22.07 0 .13-.03.19-.08l1.27-1.03Z" fill="#B87C29" /><ns0:path d="M37.43 14.92a5.41 5.41 0 0 1-1.97 2.2.16.16 0 0 1-.21-.06l-.13-.22a.26.26 0 0 0-.26-.12l-.68.09a.15.15 0 0 1-.12-.25c.39-.37.84-.81 1-1.33.1-.31.29-.57.56-.77a.11.11 0 0 0-.05-.2l-.38-.02a.19.19 0 0 1-.17-.17c0-.11.04-.2.14-.28.16-.13.31-.26.44-.41a.5.5 0 0 1 .51-.17c.4.07.82.1 1.26.06a.32.32 0 0 1 .32.22c.07.22.09.45.05.66-.04.22-.15.48-.31.77Z" fill="#85511C" /><ns0:path d="M23.62 16.99c.22-.68.54-1.43.97-2.26.04-.08.1-.1.18-.06.13.05.18.15.17.29a3.56 3.56 0 0 1-.6 1.66c-.35.54-.33 1.1-.49 1.7a.15.15 0 0 1-.13.1c-.09.01-.15-.01-.18-.07a.86.86 0 0 1-.1-.49c.04-.29.1-.58.18-.87Z" fill="#B87C29" /><ns0:path d="m27.3 19.44-.96.63c-.29.12-.53.13-.75.02-.38-.2-.41-.71-.48-1.09a.84.84 0 0 1 .03-.44c.08-.24.14-.49.17-.74.07-.63.65-1.07 1.2-1.36.51-.25 1-.17 1.47.26.65.6.38 1.46.21 2.2a.17.17 0 0 1-.14.13c-.31.06-.56.19-.74.39Z" fill="#E1B051" /><ns0:path d="M21.44 18.1a2.4 2.4 0 0 0-.35.75c-.03.11-.12.16-.27.15-.2-.85-.72-1.28-1.55-1.3.54-.22.99-.55 1.34-.98.14-.17.3-.25.46-.26a.31.31 0 0 1 .33.3l.04 1.34ZM37.86 18.91c.4-.03.65-.28.74-.76a.09.09 0 0 1 .05-.06.09.09 0 0 1 .07 0l.08.03a.24.24 0 0 1 .14.25c-.12.86-.17 1.7-.16 2.5 0 .19-.07.22-.22.1-.13-.13-.23-.4-.28-.81a.28.28 0 0 0-.1-.2c-.35-.27-.72-.38-.8-.88-.13-.78.03-1.47.49-2.06a.1.1 0 0 1 .06-.04c.02 0 .04 0 .06.02v.04l-.2.58c-.02.09 0 .16.07.22.16.12.22.27.18.44a.31.31 0 0 1-.13.2.61.61 0 0 0-.2.21.15.15 0 0 0 .07.2c.02.02.05.02.08.02Z" fill="#B87C29" /><ns0:path d="M19.27 17.7c.83.02 1.34.45 1.55 1.3-.17.49-.4.88-.7 1.17l-.81.22c-.6-.6-.68-1.26-.27-2 .02-.03.01-.05-.02-.07-.02-.02-.05-.01-.07.01-.11.18-.26.32-.42.45-.1-.01-.14-.04-.13-.1.16-.56.45-.9.87-.99Z" fill="#0B0802" /><ns0:path d="M18.03 19.27c0 .06-.01.1-.05.11-.17.17-.3.28-.39.3-.2.08-.3.22-.3.43-.01.32-.05.63-.12.92-.14.55.05.88.55 1a.5.5 0 0 0 .56-.2c.25-.34.53-.66.84-.97l.17-.04c.2 0 .2.12.01.38a1.4 1.4 0 0 1-.24.26l-.72.58c-.15.12-.28.26-.38.42l-.3.48-.86.31.02-.07c0-.04.03-.06.08-.05.03 0 .06-.02.09-.07a.06.06 0 0 0 .01-.05c-.2-.7-.24-1.44-.15-2.2l.19-.7c.07-.26.11-.54.11-.82 0-.24-.06-.46-.19-.66a.2.2 0 0 0-.19-.1c-.33.02-.55.16-.65.43-.08.25-.21.49-.38.7-.16.2-.3.45-.41.75-.2.51-.43.97-.7 1.39a3.2 3.2 0 0 1-.3.31c-.1.11-.15.26-.14.44 0 .07-.03.13-.07.19a.6.6 0 0 0-.12.4c0 .08.03.1.1.06.05-.02.1-.02.16 0a5.08 5.08 0 0 0 1.21.54.17.17 0 0 1 .06.13l-.01.07a3.55 3.55 0 0 0-.3 1.79c.07.7.23 1.28.47 1.74.04.08.1.13.2.17.07.02.11 0 .12-.07l.04-.22.52.84c-.51.82-.08 1.54.25 2.29a.35.35 0 0 1-.04.34c-.3.42-.69.74-1.16.97-.36.18-.7-.01-.94-.28l-.14-.1a.2.2 0 0 0-.2 0c-.2.1-.33.06-.4-.15-.26-.82-.5-1.69-.72-2.6a8.4 8.4 0 0 1 .33-4.9c.15-.43.27-.87.35-1.33.1-.51.25-1.05.47-1.61.04-.1.1-.2.16-.29a.33.33 0 0 0 .07-.18c0-.15.09-.28.24-.38.53-.24.84-.64.96-1.2a.32.32 0 0 1 .1-.18c.41-.35.71-.53.9-.55.87-.1 1.28.32 1.23 1.23Z" fill="#EFE2AD" /><ns0:path d="M19.3 20.39c-.9-.12-1.16-.65-.78-1.61.17-.13.32-.27.43-.45.02-.02.04-.03.07-.01.03.02.04.04.02.07-.41.74-.32 1.4.27 2ZM19.41 18.47a.1.1 0 0 1 .1.03.1.1 0 0 1 .02.09.3.3 0 0 1-.18.21c-.12.06-.17.02-.14-.1.03-.13.1-.2.2-.23Z" fill="#FCF9F5" /><ns0:path d="M16.8 23.25a.41.41 0 0 0-.17.23 1 1 0 0 0-.3.5c.02-.28-.16-.27-.51.02-.46.36-.61 1.18-.6 1.73a3.54 3.54 0 0 1 .31-1.86.17.17 0 0 0-.06-.13 5.08 5.08 0 0 1-1.21-.53.15.15 0 0 0-.16 0c-.07.03-.1.01-.1-.07-.01-.16.03-.3.12-.4a.27.27 0 0 0 .07-.2c0-.17.04-.32.15-.43.15-.16.25-.26.28-.31.28-.42.51-.88.71-1.4.11-.29.25-.53.41-.74.17-.21.3-.45.38-.7.1-.27.32-.41.65-.43a.2.2 0 0 1 .2.1c.12.2.19.42.18.66 0 .28-.04.56-.11.83l-.19.7a5.63 5.63 0 0 0 .15 2.22l-.01.02c-.03.05-.06.07-.1.07-.04-.01-.07 0-.07.05l-.02.07Z" fill="#FAF2CD" /><ns0:path d="M18.4 18.69c0 .05.03.08.13.09-.39.96-.13 1.5.78 1.6l.8-.21a.3.3 0 0 0-.06.19c-.21.23-.46.39-.76.46l-.17.04c-.75-.03-1.1-.82-1.14-1.48.04 0 .06-.05.05-.11.17-.19.29-.38.37-.58Z" fill="#5B4F40" /><ns0:path d="M20.07 18.75c-.07.1-.07.22 0 .27.07.05.19.01.25-.08.07-.1.07-.22 0-.27-.07-.05-.19-.01-.25.08Z" fill="#FCF9F5" /><ns0:path d="M25.77 23.85c-.15-.03-.22.03-.22.17.02.46-.02.88-.12 1.23-.05.2-.08.41-.09.62 0 .46-.16.77.05 1.29l.02 1.06c0 .08.03.16.08.22.35.44.7.85 1.04 1.23.41.46.44.92.08 1.37-.3.37-.54.7-1.03.81-.7.15-1.34.4-1.89.77-.4.27-.88.37-1.34.52-.32.11-.33.23-.01.36l1.02.43c.95.42 1.87.45 2.88.26.65-.12.93-.84 1.27-1.32.33-.5.97-.49 1.41-.88.35-.3.76-.6 1.23-.88a.3.3 0 0 0 .14-.16c.14-.35.24-.71.58-.92.81-.5 1.6-.88 2.34-1.14.7-.24 1.29-.64 1.97-.94a.16.16 0 0 1 .2.07c.05.08.05.15 0 .23-.35.57-.64 1.21-1.17 1.64l-1.54 1.3c-.34.28-.32.84-.38 1.25-.05.4-.29.74-.7 1.04-.4.28-.8.55-1.24.8-.25.14-.27.3-.04.49.05.04.12.07.2.07.08 0 .16.03.22.08l.61.53a.13.13 0 0 1 0 .2.13.13 0 0 1-.06.02c-.76.15-1.56.3-1.84 1.14a.23.23 0 0 0 .16.3c.14.04.28.02.4-.05.56-.3 1.24-.55 1.86-.3.38.15.76.22 1.14.22.36 0 .7.13 1 .38.07.05.15.07.23.06.17-.03.3-.1.4-.21.17.22.56.3 1.16.25.22-.02.38-.14.56-.25l1.78-1.08c.22-.18.42-.2.6-.07.06.04.12.05.19.03.64-.25.73-.7 1.04-1.22.07-.1.17-.18.3-.21.76-.19 1.25-.87 1.5-1.6.08-.25.22-.49.4-.7.26-.29.4-.64.42-1.05a.26.26 0 0 0-.1-.22c-.15-.14-.2-.31-.15-.53.11-.47.05-.87-.2-1.2a.32.32 0 0 1-.07-.2l.02-2.24c.18.66.4 1.3.65 1.9.31.77.5 1.36.58 1.78.23 1.3.26 2.61.07 3.92-.13-.34-.27-.26-.43.24-.16.52-.11.94-.4 1.43-.22.4-.29.83-.33 1.27-.07.65-.13 1.28-.17 1.9-.02.32-.2.56-.51.73a.3.3 0 0 0-.14.15c-.12.26-.16.48-.38.69-.4.39-1.3 1.22-1.44 1.76-.08.3-.33.46-.6.58.19-.23.3-.48.36-.76.09-.43.15-.7.2-.8.13-.33.3-.64.46-.92.59-.98.38-2.09.24-3.16a.28.28 0 0 0-.26-.24c-.53-.04-.98.03-1.38.2-.76.34-1.4.56-2.1 1.2-.5.45-.8 1.1-1.32 1.46-.62.41-1.47.84-2.54 1.27-1.12.44-2.25.86-3.38 1.27-.32.11-.63.26-.93.43-1.06.6-1.58 1.75-2.81 2.05-.37.09-.73.25-1.07.5-.46.31-1.04.4-1.58.5-.6.11-1.16.37-1.8.51-.56-.2-1.15-.42-1.77-.62a9.58 9.58 0 0 1-1.72-.77c-.7-.4-1.32-.78-1.88-1.15a13.33 13.33 0 0 1-2.15-1.79c-.66-.68-.66-1.54-.24-2.34.31-.88.5-1.67.53-2.38.05-.85.11-1.69.18-2.51.02-.25.13-.67.32-1.27.23-.73.26-1.5.1-2.3-.02-.08.01-.13.08-.15.05-.02.1-.01.16 0 .25.28.58.47.94.3.47-.24.86-.56 1.16-.98a.36.36 0 0 0 .04-.34c-.33-.75-.76-1.47-.25-2.29 0 .15-.03.3-.07.47a.54.54 0 0 0 .06.44l.07.17c.07.35.28.62.62.8.45.26.93.46 1.44.61.42.13.84-.03 1.25-.49.3.01.82.12 1.55.34.4.12.74.02 1.03-.28.2-.08.66-.16 1.35-.24.3-.04.9-.24 1.78-.6a.14.14 0 0 0 .07-.08.15.15 0 0 0 0-.1v-.06a.09.09 0 0 0-.09-.06h-.03c-.67.23-1.37.35-2.12.37-.28 0-.54.12-.8.2-.47.16-1.37-.27-1.78-.49a.67.67 0 0 1 .31-.65c.06-.04.1-.1.13-.16.06-.15.18-.22.35-.22.2.05.53.01.98-.1.28-.06.43-.19.44-.37a.25.25 0 0 0-.13-.22.57.57 0 0 1-.23-.25c-.02-.04 0-.08.05-.1l.06-.01c.03-.01.05 0 .06.02.05.12.13.2.24.22.07.02.14 0 .22-.06.23-.18.34-.45.33-.82.14-.25.38-.45.71-.62.07-.04.1-.1.08-.17-.07-.4-.24-.75-.48-1.05-.26-.3-.68-.41-1-.67-.41-.33-.97-.27-1.44-.12a.09.09 0 0 0-.06.05v.03c0 .04-.02.07-.07.07a.6.6 0 0 0-.3.12 3.9 3.9 0 0 0-1.08-.81c-.7-.43-1.6-.38-2.4-.36l.3-.48c.1-.16.22-.3.37-.42l.72-.58c.1-.09.18-.17.24-.26.19-.26.18-.38-.01-.38.3-.07.55-.23.76-.46l.75-.7c.06-.06.11-.06.17 0 .15.14.18.28.1.42a8.1 8.1 0 0 0-.79 1.52c-.02.08 0 .11.09.1a.92.92 0 0 0 .56-.37c.32-.42.79-.77 1.4-1.07.06-.03.12-.02.16.02a.2.2 0 0 1 .07.13c.02.18.09.2.2.05.3-.41.7-.83 1.17-1.24.07-.06.12-.05.16.02.15.28.15.55 0 .8-.18.35-.35.72-.47 1.1-.03.07-.07.1-.14.1h-.13a.13.13 0 0 0-.12.11v.06l.2.55c.04.09.06.18.07.27l.09.58a.22.22 0 0 0 .33.16.22.22 0 0 0 .1-.11l.34-.92a.19.19 0 0 1 .34-.02c.3.51.47 1.05.52 1.6a.18.18 0 0 0 .15.17c.16.03.3.08.4.16Z" fill="#E0C06E" /><ns0:path d="M30.1 21a.88.88 0 0 1-.42.08.26.26 0 0 0-.2.08c-.23.22-.41.5-.72.64-.4.18-.8.2-1.2.09-.39-.56-.43-1.1-.15-1.63a.1.1 0 0 1 .18-.02c.09.11.2.17.33.18.14 0 .18-.06.13-.19-.41-.92-1.38.12-1.55.5-.2.46-.04.88.48 1.24l.04.08c.02.05.01.1-.03.15a.3.3 0 0 1-.1.05c-.4-.11-.99-.18-1.21-.54-.13-.21-.22-.43-.27-.65a.2.2 0 0 1 .06-.2l.87-.8.97-.62c.71-.2 1.3-.11 1.75.25.33.26.67.61 1 1.06.04.04.06.08.06.11l-.01.13Z" fill="#0B0802" /><ns0:path d="M17.98 19.38c.03.66.4 1.45 1.14 1.48-.3.3-.59.63-.84.97a.5.5 0 0 1-.56.2c-.5-.12-.69-.45-.55-1 .07-.3.1-.6.12-.92 0-.2.1-.35.3-.42.09-.04.22-.14.39-.3Z" fill="#E1B051" /><ns0:path d="M27.55 21.89c-.07.09-.26.11-.57.08-.52-.36-.68-.78-.48-1.24.17-.38 1.14-1.42 1.55-.5.05.13.01.2-.13.19a.45.45 0 0 1-.33-.18.1.1 0 0 0-.18.02c-.28.53-.24 1.07.14 1.63Z" fill="#FCF9F5" /><ns0:path d="M37.88 26.73a6.24 6.24 0 0 0-1.32-.1 15 15 0 0 1-1.32-.03 5.75 5.75 0 0 0-2.6.43c-1.07.45-2.06.92-2.97 1.41a.8.8 0 0 1-.3.1.7.7 0 0 1-.36-.07c-.6-.26-1.15-.3-1.67-.14a.29.29 0 0 1-.25-.04c-.2-.13-.33-.3-.42-.51a.42.42 0 0 0-.42-.26c-.37.03-.66-.1-.86-.37-.21-.51-.05-.82-.05-1.28 0-.2.04-.41.1-.62.09-.36.13-.77.11-1.23 0-.14.07-.2.22-.17.58.03 1.17.06 1.76.07.56.01.93.12 1.35-.34.05-.06.11-.1.19-.13.25-.1.5-.17.72-.34a6.3 6.3 0 0 0 1.67-2.04.28.28 0 0 1 .29-.15c.69.08 1.35.06 1.99-.07a.16.16 0 0 1 .18.12l.02.08c.03.1.1.15.2.14l.51-.03c.08 0 .15 0 .22.04l.66.33c.08.04.17.05.26.04a.1.1 0 0 0 .07-.06.1.1 0 0 0 0-.09l-.28-.4a.1.1 0 0 1 .09-.15l.74.03c.09 0 .12.05.1.13l-.1.5c0 .05.01.08.06.08.02 0 .05 0 .06-.03.11-.15.2-.31.28-.49a.1.1 0 0 1 .07-.06.1.1 0 0 1 .08.04c.1.12.14.25.13.4 0 .06.01.1.05.15l.49.5c.05.06.05.12.02.19-.19.33-.13.63.17.9.04.05.06.1.05.16a.62.62 0 0 1-.11.25c-.2.28-.03.73.2.91.05.04.05.09.01.14-.18.24-.3.5-.33.8a.2.2 0 0 0 .1.2l.3.2c.07.04.1.1.1.18-.01.26-.1.48-.26.68Z" fill="#FAF2CD" /><ns0:path d="M30.1 21c0 .1-.04.19-.12.28-.4.43-.86.95-1.42 1.13-.66.2-1.09-.05-1.67-.16a.3.3 0 0 0 .1-.05c.04-.05.05-.1.03-.15l-.04-.08c.31.04.5 0 .57-.08.42.12.82.09 1.2-.09.32-.14.5-.42.74-.64a.26.26 0 0 1 .2-.08c.15 0 .29-.02.42-.09ZM17.67 22.94c.8-.02 1.7-.07 2.4.36-.15.08-.23.13-.25.16-.11.3-.33.4-.63.3a5 5 0 0 0-2.23-.17c-.09.02-.2-.02-.33-.11a.42.42 0 0 1 .17-.22l.87-.32Z" fill="#5B4F40" /><ns0:path d="M20.07 23.3c.43.22.79.49 1.08.8l.08.18c-.1.48-.43 1.33-.9 1.56a.42.42 0 0 0-.2.2.4.4 0 0 1-.17.2c-.33.19-.66.4-1 .64-.32.24-.8.34-1.16.13-.53-.3-.96-.74-1.31-1.32l.01-.05c-.02-.13 0-.22.03-.27.05-.06.11-.07.19-.03.12.07.23.08.34.04.3-.1.29-.19-.02-.25a1.6 1.6 0 0 1-.66-.35c-.08-.24-.1-.5-.05-.8a1 1 0 0 1 .3-.5c.13.09.24.13.33.11a5 5 0 0 1 2.23.18c.3.1.52-.01.63-.3.02-.04.1-.1.25-.17Z" fill="#0B0802" /><ns0:path d="M23.71 26.47c.03-.09-.03-.17-.2-.25-.07-.04-.1-.1-.07-.17.06-.22 0-.41-.18-.58-.3-.28-.57-.58-.82-.9-.2-.25-.48-.37-.8-.4-.1-.02-.14.04-.12.17-.06.02-.15 0-.29-.06l-.08-.18a.6.6 0 0 1 .3-.1c.05 0 .08-.04.07-.08v-.03a.09.09 0 0 1 .06-.05c.47-.15 1.03-.2 1.44.12.32.26.74.36 1 .67.24.3.4.64.48 1.05.02.08 0 .13-.08.17-.33.17-.57.37-.7.62Z" fill="#EFE2AD" /><ns0:path d="M16.33 23.98c-.05.3-.03.56.05.8l.12.86-.01.05c-.67.52-.82 1.08-.44 1.66l-.04.22c0 .07-.05.1-.11.07a.36.36 0 0 1-.21-.17 4.71 4.71 0 0 1-.46-1.74c-.02-.55.13-1.37.59-1.74.35-.28.53-.29.51 0ZM23.71 26.47c.01.37-.1.64-.33.82-.08.06-.15.08-.22.06-.1-.02-.19-.1-.24-.22-.01-.03-.03-.03-.06-.02l-.06.01c-.06.02-.07.06-.05.1.05.1.13.19.23.25a.25.25 0 0 1 .13.22c0 .18-.16.3-.44.38-.45.1-.78.14-.98.1a.85.85 0 0 1-.55-.44.29.29 0 0 1-.04-.2c.05-.25.06-.49.04-.72-.03-.29.12-.53.3-.73a.29.29 0 0 0 .08-.2v-1.54c-.02-.13.03-.2.13-.18.31.04.6.16.8.41.24.32.52.62.81.9.18.17.24.36.18.58-.02.08 0 .13.07.17.17.08.23.16.2.25Z" fill="#FCF9F5" /><ns0:path d="M21.23 24.28c.14.06.23.08.29.06v1.55c0 .07-.03.14-.08.19-.18.2-.33.44-.3.73.02.23 0 .47-.04.71-.01.08 0 .14.03.2.14.25.33.4.56.44-.17 0-.29.07-.35.22a.37.37 0 0 1-.13.16.67.67 0 0 0-.31.65 312.85 312.85 0 0 1-2.11-.8 2.55 2.55 0 0 0-1.86 0c-.15.33-.13.62.08.87.15.18.36.37.61.43.34.08.96.18 1.2.43.05.05.1.08.18.08l.94-.01c-.4.46-.83.62-1.25.49-.51-.15-.99-.36-1.44-.6a1.19 1.19 0 0 1-.62-.81.5.5 0 0 0-.07-.17.54.54 0 0 1-.06-.44c.04-.17.07-.32.07-.47l-.52-.84c-.38-.58-.23-1.14.44-1.66.35.58.78 1.02 1.3 1.32.37.2.85.1 1.18-.13.33-.24.66-.45.99-.64a.4.4 0 0 0 .18-.2c.04-.09.1-.16.2-.2.46-.23.8-1.08.9-1.56ZM16.38 24.78c.24.2.46.3.66.35.3.06.31.15.02.25-.11.04-.22.03-.34-.04-.08-.04-.14-.03-.19.03-.04.05-.05.14-.03.27l-.12-.86Z" fill="#968C78" /><ns0:path d="M19.31 25.8c.28.12.53.16.56.1.03-.08-.18-.22-.46-.34-.28-.11-.53-.15-.56-.08-.02.07.18.21.46.33Z" fill="#5B4F40" /><ns0:path d="M22.51 26.12c0 .06-.03.1-.09.13-.05.03-.09.01-.1-.05 0-.04 0-.08.02-.12.1-.2.16-.18.17.04Z" fill="#968C78" /><ns0:path d="M37.88 26.73c-.48.43-.67 1-.58 1.71 0 .04 0 .08-.02.12l-.36.6c-.04.08-.1.1-.17.03l-.08-.08a.17.17 0 0 0-.1-.04c-.02 0-.06 0-.09.02-.11.05-.16.14-.15.27.04.36.1.72.17 1.1a.54.54 0 0 1-.15.47c-.4.4-1.28 1.17-1.3 1.78 0 .24-.07.43-.19.57-.15.17-.36.3-.62.4v.01l.01.08c.03.08.08.12.17.1.43-.08.83-.3 1.2-.67a.07.07 0 0 1 .09 0 .07.07 0 0 1 .02.09l-.55.93a.25.25 0 0 0-.04.16c.03.21.02.42-.03.63a.14.14 0 0 0 .13.17l.07-.01c.14-.06.27-.1.42-.12.04 0 .08.01.11.04s.05.06.06.1c.05.4-.07.73-.36 1a9 9 0 0 0-.92 1.02.62.62 0 0 1-.4.2.26.26 0 0 1-.21-.05 1.58 1.58 0 0 0-1-.38c-.4 0-.77-.07-1.15-.22-.62-.25-1.3 0-1.85.3a.53.53 0 0 1-.4.05.24.24 0 0 1-.17-.3c.28-.84 1.08-1 1.84-1.14a.13.13 0 0 0 .06-.22l-.6-.53a.33.33 0 0 0-.23-.08.32.32 0 0 1-.2-.07c-.23-.19-.2-.35.04-.5.44-.24.85-.5 1.24-.79.41-.3.65-.64.7-1.04.06-.41.04-.97.38-1.26l1.54-1.29c.53-.43.82-1.07 1.17-1.64a.21.21 0 0 0 0-.23.16.16 0 0 0-.2-.07c-.68.3-1.27.7-1.97.94-.75.26-1.53.64-2.34 1.14-.34.2-.44.57-.58.92a.3.3 0 0 1-.14.16c-.47.28-.88.57-1.23.88-.44.4-1.08.39-1.41.88-.34.48-.62 1.2-1.27 1.32a4.72 4.72 0 0 1-2.88-.26l-1.02-.43c-.32-.13-.31-.25 0-.36.47-.15.94-.25 1.35-.52a5.48 5.48 0 0 1 1.89-.77c.49-.1.74-.45 1.03-.81.36-.45.33-.9-.08-1.37a23.4 23.4 0 0 1-1.04-1.23.35.35 0 0 1-.08-.22l-.02-1.06c.2.27.49.4.86.36a.42.42 0 0 1 .42.26c.1.21.23.38.42.51a.29.29 0 0 0 .25.04 2.32 2.32 0 0 1 1.67.14.7.7 0 0 0 .36.06.8.8 0 0 0 .3-.09c.91-.49 1.9-.96 2.96-1.4a5.75 5.75 0 0 1 2.6-.44 15 15 0 0 0 1.33.02c.45 0 .89.02 1.32.1Z" fill="#E7CF90" /><ns0:path d="m22.1 27.52-.05-.07c-.04-.07-.02-.1.06-.12.05-.01.1 0 .13.03a.1.1 0 0 1 .04.07c0 .06-.02.1-.07.12-.02.01-.05.01-.07 0a.09.09 0 0 1-.04-.03Z" fill="#968C78" /><ns0:path d="M19.98 27.92a.1.1 0 0 1-.06-.04.1.1 0 0 1-.02-.06c0-.09.02-.16.1-.2.07-.04.12-.03.16.04.03.05.04.1.05.15 0 .1-.05.14-.14.12l-.09-.01Z" fill="#5B4F40" /><ns0:path d="M20.9 29.2c.41.21 1.31.64 1.78.48.26-.08.52-.2.8-.2a7.06 7.06 0 0 0 2.15-.37.09.09 0 0 1 .08.06l.02.05v.1a.14.14 0 0 1-.08.08c-.88.37-1.47.57-1.78.6-.7.1-1.14.17-1.35.25-.3-.15-.63-.3-.97-.44a5.42 5.42 0 0 0-1.01-.3 18.89 18.89 0 0 1-3.61-1.12 2.55 2.55 0 0 1 1.86 0 295.38 295.38 0 0 0 2.1.8Z" fill="#0B0802" /><ns0:path d="M16.93 28.39c1.18.5 2.38.88 3.6 1.13.4.08.74.17 1.02.3.34.14.66.28.97.43-.3.3-.64.4-1.03.28a7.39 7.39 0 0 0-1.55-.34l-.94.01a.25.25 0 0 1-.18-.08c-.24-.25-.86-.35-1.2-.43a1.23 1.23 0 0 1-.61-.43c-.2-.25-.23-.54-.08-.87Z" fill="#5B4F40" /><ns0:path d="m38.13 36.13-1.78 1.08h-.16a.13.13 0 0 1-.1-.2l.85-1.24c.1-.15.16-.33.17-.53 0-.09-.05-.14-.14-.14-.64-.02-.57-.54-.62-1-.02-.21.04-.37.19-.49.9-.71 1.65-1.56 2.28-2.54.49-.77 1.3-1.16 1.9-1.81a.1.1 0 0 1 .1-.03.09.09 0 0 1 .05.08c.02.58-.15 1.08-.5 1.52-.39.47-.58 1-.92 1.48a.3.3 0 0 0-.05.23c.14.6.04 1.08-.3 1.46-.19.2-.34.42-.45.66-.22.48-.4.96-.52 1.47Z" fill="#B87C29" /><ns0:path d="M16.34 33.8c-.18.05-.17.2.02.48.09.1.19.22.3.31.93.78 1.42 1.58 2.67 2.06.08.04.15.1.18.18.1.2.17.39.23.58.16.45.45.86.9 1.22a.25.25 0 0 0 .2.05.24.24 0 0 0 .17-.13.25.25 0 0 1 .06-.08.13.13 0 0 1 .09-.03c.03 0 .06.01.08.03.58.52.8 1.8.99 2.6a.19.19 0 0 0 .23.13c.03 0 .06-.02.08-.05.53-.55.87-1.2 1-1.97.01-.08.06-.11.14-.1h.07a.05.05 0 0 1 .05.03v.02l-.03.33c0 .09.03.12.12.11.06 0 .1-.03.13-.09l.47-1.03c.12-.25.33-.45.63-.61.6-.3 1.24-.58 1.76-.99a7.68 7.68 0 0 1 1.45-.91.1.1 0 0 0-.02-.13c-.02-.01-.06 0-.12.02.42-.18.73-.33.91-.44.5-.3.67-.17.53.39a5.6 5.6 0 0 1-.4 1.04c-.13.25-.3.45-.54.57-.7.4-1.16 1.04-1.88 1.38a3.18 3.18 0 0 0-1.69 1.87c-.24.76-.7 1.4-1.13 2.05a4.4 4.4 0 0 1-2 1.55c-.24.06-.46.16-.66.29a.16.16 0 0 1-.2-.02 2.82 2.82 0 0 1-.23-.83 9.63 9.63 0 0 0-.8-2.89 2.82 2.82 0 0 0-.62-.9 101.1 101.1 0 0 1-2.95-2.98c-.43-.45-.64-.97-.91-1.5a4.22 4.22 0 0 1-.33-2.25.16.16 0 0 1 .07-.05c.02-.01.05-.02.08-.01.03 0 .06.01.08.03l.82.67Z" fill="#E1B051" /><ns0:path d="m16.34 33.8.92.68c.22.16.43.34.62.54.64.65 1.8.94 2.73 1.17.52.13 1.2.19 2.05.17a40.7 40.7 0 0 0 5.65-.55.1.1 0 0 1-.01.16c-.5.24-.97.53-1.42.88-.52.41-1.16.69-1.76.99-.3.16-.51.36-.63.6-.15.36-.31.7-.47 1.04a.15.15 0 0 1-.13.1c-.09 0-.12-.03-.12-.12l.03-.33a.05.05 0 0 0-.05-.05h-.07c-.08-.01-.13.02-.14.1a3.66 3.66 0 0 1-1 1.97.18.18 0 0 1-.18.05.18.18 0 0 1-.13-.13c-.2-.8-.4-2.08-.99-2.6a.13.13 0 0 0-.08-.03c-.04 0-.07 0-.09.03a.26.26 0 0 0-.06.08.23.23 0 0 1-.17.13.25.25 0 0 1-.2-.05 2.7 2.7 0 0 1-.9-1.22c-.06-.2-.14-.39-.23-.58a.33.33 0 0 0-.18-.18c-1.25-.48-1.74-1.28-2.67-2.06-.11-.1-.21-.2-.3-.31-.2-.27-.2-.43-.02-.48Z" fill="#B87C29" /><ns0:path d="M43.38 34.52c.06.44.14.88.23 1.31.14.62.1 1.17.13 1.8.02.65.24 1.4.26 2.13 0 .49 0 .97-.03 1.45-.03.9-1.78 2.3-2.7 3.08-.78.67-1.52.97-2.2.9-.38-.25-.91-.25-1.59 0-.2.07-.22.03-.07-.12.29-.3.5-.68.65-1.13a.42.42 0 0 1 .13-.2c.24-.2.5-.35.8-.47.26-.12.51-.28.59-.58.14-.54 1.04-1.37 1.44-1.76.22-.21.26-.43.38-.7a.3.3 0 0 1 .14-.14c.32-.17.5-.41.51-.73a52 52 0 0 1 .17-1.9c.04-.44.11-.88.34-1.27.28-.49.23-.91.4-1.43.15-.5.3-.58.42-.24Z" fill="#C89539" /><ns0:path d="M38.98 43.27c-.3.12-.55.28-.79.47a.42.42 0 0 0-.13.2 2.9 2.9 0 0 1-.65 1.13c-.15.15-.12.2.08.12.67-.25 1.2-.25 1.58 0a.83.83 0 0 1-.21.61c-.1.13-.28.24-.52.32-.89.29-1.69.62-2.41 1-.55.28-1.13.32-1.72.47-.18.05-.39 0-.54.14a.26.26 0 0 1-.21.07 4.29 4.29 0 0 0-1.29.04c-.39.08-.77.12-1.15.12-2.58.03-5.29.12-7.89-.14a2.32 2.32 0 0 1-1-.35l-1.07-.69c.65-.14 1.22-.4 1.8-.51.55-.1 1.13-.19 1.59-.5.34-.25.7-.41 1.07-.5 1.23-.3 1.75-1.46 2.8-2.05.3-.17.62-.32.94-.43 1.13-.4 2.26-.83 3.38-1.27 1.07-.43 1.92-.86 2.54-1.27.51-.35.83-1 1.32-1.47.7-.63 1.34-.85 2.1-1.19.4-.17.85-.24 1.38-.2a.29.29 0 0 1 .26.24c.14 1.07.35 2.18-.24 3.16-.17.28-.33.6-.47.92-.04.1-.1.37-.19.8a1.7 1.7 0 0 1-.36.76Z" fill="#E7CF90" /><ns0:path opacity=".8" d="M19.93 12H16v8.26h3.93v15.48H16V44H31.83a7.69 7.69 0 0 0 .62-.04 13.88 13.88 0 0 0 5.91-1.94c3.56-2.15 6.64-6.36 6.64-13.5 0-7.5-2.94-11.97-6.5-14.33A13.4 13.4 0 0 0 31.84 12h-.1.1-11.91ZM31.7 35.74h-2.91V20.26h3c.12.02.33.04.6.1.54.12 1.24.36 1.92.8 1.1.74 2.84 2.46 2.84 7.36 0 4.2-1.6 5.68-2.71 6.36a6.26 6.26 0 0 1-2.74.86Z" fill="#fff" /></g><g transform="translate(168, 0) scale(0.5, 0.5)"><ns0:path fill="#95BF47" d="M0 0h56v56H0z" /><ns0:path fill-rule="evenodd" d="M33.47 14.792a1.122 1.122 0 00-.42.03c-.018 0-.369.112-.94.299-.573-1.667-1.551-3.184-3.305-3.184h-.166C28.16 11.3 27.532 11 27.015 11c-4.06 0-6.016 5.151-6.625 7.773-.727.232-1.357.428-1.84.578-.57.178-.932.291-1.002.322-.886.28-.905.3-1.015 1.142-.093.637-2.4 18.75-2.4 18.75l17.958 3.41.033-.008-.002.033 9.745-2.135s-3.415-23.452-3.433-23.62a.501.501 0 00-.314-.281c-.11 0-2.528-.188-2.528-.188s-1.68-1.704-1.883-1.873a.355.355 0 00-.24-.112v.001zM29.6 15.87c.534-.187 1.07-.356 1.512-.487-.387-1.199-.96-2.229-1.882-2.341.24.655.37 1.48.37 2.49v.338zm-1.09.15c0-1.236-.166-2.135-.406-2.772-.96.43-2.122 1.592-2.731 3.952.653-.213 1.292-.413 1.915-.608h.001c.415-.13.823-.257 1.221-.385v-.187zm-1.07-3.746a.874.874 0 00-.517-.188c-2.916 0-4.577 3.896-5.241 6.294.426-.14.863-.276 1.31-.415.386-.12.78-.241 1.181-.372.572-3.146 1.957-4.701 3.267-5.32zm.184 13.748l1.182-3.615s-.812-.487-2.4-.468c-4.263 0-6.367 2.885-6.367 5.863 0 2.002 1.098 2.907 2.058 3.7.747.616 1.412 1.164 1.412 2.107 0 .524-.37 1.236-1.274 1.236-1.365 0-2.99-1.424-2.99-1.424l-.83 2.772s1.55 1.949 4.65 1.949c2.566 0 4.467-1.967 4.467-5.02 0-2.348-1.555-3.507-2.783-4.423-.8-.597-1.462-1.09-1.462-1.74 0-.3.093-1.517 1.994-1.517 1.273 0 2.343.58 2.343.58z" fill="#fff" /></g><g transform="translate(196, 0) scale(0.5, 0.5)"><ns0:path fill="#0099FA" d="M0 0h56v56H0z" /><ns0:path d="M20 11v5h6v14h5V11H20z" fill="#fff" /><ns0:path d="M17.183 28.894c0-4.124 2.276-8.046 5.634-9.894h-7.688C13.163 21.674 12 25.312 12 28.894c0 7.107 4.655 13.137 11 15.275v-5.66c-3.413-1.833-5.817-5.45-5.817-9.615zM33 13.657v5.675c3.358 1.85 5.82 5.437 5.82 9.563 0 6.012-4.846 10.889-10.82 10.889-.891 0-2.172-.11-3-.314v5.32c.842.136 2.12.21 3 .21 8.836 0 16-7.21 16-16.105 0-7.07-4.708-13.07-11-15.238z" fill="#fff" /></g><g transform="translate(224, 0) scale(0.5, 0.5)"><ns0:path fill="#F0F3FA" d="M0 0h56v56H0z" /><ns0:path d="M46 27.34C46 21.093 37.942 16 28 16c-9.94 0-17.998 5.093-17.998 11.34l-.002.664C10 34.632 17.043 40 27.998 40 39.021 40 46 34.633 46 28.006v-.666z" fill="#002F6D" /><ns0:path d="M45.31 27.335c0 5.89-7.748 10.664-17.306 10.664s-17.306-4.774-17.306-10.664 7.748-10.666 17.306-10.666 17.307 4.775 17.307 10.666z" fill="#FFE900" /><ns0:path d="M22.258 23.97c-.01.017-.182.189-.07.327.273.336 1.116.529 1.97.345.507-.11 1.158-.61 1.789-1.091.683-.523 1.362-1.047 2.043-1.255.722-.222 1.184-.127 1.49-.038.335.097.73.31 1.358.764 1.184.857 5.946 4.86 6.769 5.553.662-.289 3.607-1.51 7.609-2.36-.348-2.055-1.646-3.934-3.614-5.474-2.743 1.11-6.095 1.689-9.373.147-.017-.007-1.792-.816-3.542-.776-2.6.058-3.727 1.142-4.92 2.29l-1.51 1.568z" fill="#fff" /><ns0:path d="M37.413 29.01c-.055-.048-5.599-4.72-6.854-5.629-.727-.525-1.132-.659-1.556-.71a2.2 2.2 0 00-.74.067c-.584.153-1.348.645-2.026 1.163-.702.539-1.364 1.046-1.978 1.179-.785.17-1.743-.03-2.18-.315-.178-.115-.303-.248-.363-.383-.161-.36.137-.649.186-.697l1.53-1.594a31 31 0 01.54-.51c-.494.061-.95.183-1.394.302-.554.15-1.087.293-1.627.293-.225 0-1.431-.19-1.66-.25-1.385-.366-2.6-.721-4.415-1.537-2.174 1.559-3.628 3.509-4.048 5.656.312.08.816.224 1.027.27 4.921 1.054 6.454 2.14 6.732 2.366a1.665 1.665 0 011.22-.527c.545 0 1.035.264 1.333.672.282-.215.67-.398 1.173-.398.229 0 .466.04.704.12.555.183.842.539.99.86.187-.08.416-.14.685-.14.265 0 .541.059.819.175.907.375 1.049 1.233.966 1.88.065-.007.13-.01.196-.01 1.076.001 1.95.843 1.95 1.88 0 .321-.085.623-.233.887.293.159 1.039.518 1.694.438.523-.064.722-.236.793-.333.05-.067.1-.144.052-.2l-1.388-1.486s-.229-.209-.153-.289c.078-.083.22.036.32.117.706.568 1.569 1.426 1.569 1.426.014.01.072.118.39.173.276.047.761.02 1.098-.246.085-.068.17-.152.241-.238-.005.003-.01.01-.015.012.355-.438-.04-.881-.04-.881L31.33 30.82s-.232-.207-.153-.29c.07-.072.22.037.321.118.514.413 1.24 1.115 1.934 1.77.135.096.747.46 1.555-.052.491-.31.59-.69.576-.978-.034-.38-.343-.652-.343-.652l-2.214-2.144s-.234-.193-.15-.29c.066-.082.219.036.318.116.706.569 2.615 2.255 2.615 2.255.027.019.687.471 1.502-.029.292-.18.478-.45.494-.764a1.113 1.113 0 00-.372-.87z" fill="#fff" /><ns0:path d="M26.673 31.729c-.344-.004-.72.192-.769.164-.027-.018.021-.15.054-.227.033-.076.485-1.387-.617-1.842-.844-.349-1.36.044-1.537.22-.046.048-.067.044-.072-.016-.017-.235-.127-.874-.855-1.087-1.04-.308-1.71.392-1.879.644a1.19 1.19 0 00-1.192-1.015c-.667 0-1.208.52-1.208 1.163 0 .642.54 1.163 1.207 1.163.324.001.619-.124.835-.324.007.005.01.017.006.039-.05.287-.144 1.333.993 1.759.456.17.843.043 1.164-.174.096-.065.112-.038.098.05-.041.268.011.844.849 1.171.638.25 1.015-.006 1.262-.226.107-.095.137-.08.142.067.03.778.702 1.396 1.517 1.396.84.001 1.52-.653 1.52-1.46.001-.81-.68-1.456-1.518-1.465z" fill="#fff" /><ns0:path d="M26.673 34.55c-.761 0-1.38-.57-1.408-1.295-.002-.063-.008-.228-.154-.228-.06 0-.111.035-.171.086-.167.15-.38.302-.692.302-.141 0-.294-.032-.456-.096-.803-.313-.814-.845-.781-1.058.009-.058.011-.117-.03-.163l-.048-.043h-.05c-.042 0-.083.017-.14.055-.233.157-.456.234-.683.234-.124 0-.252-.024-.38-.072-1.058-.396-.974-1.358-.923-1.648.008-.058-.007-.104-.046-.134l-.075-.06-.07.065a1.11 1.11 0 01-.76.296c-.605 0-1.098-.475-1.098-1.058 0-.584.494-1.058 1.1-1.057.548 0 1.014.396 1.084.923l.038.284.162-.24c.018-.028.462-.675 1.278-.674.155 0 .316.024.477.072.65.191.76.76.778.996.011.138.113.145.133.145.056 0 .098-.034.127-.064.123-.124.39-.329.809-.329.191 0 .395.044.605.131 1.034.428.565 1.693.56 1.707-.09.21-.093.302-.01.356l.042.018h.03c.046 0 .104-.02.2-.05.14-.047.353-.118.552-.118.779.009 1.412.619 1.411 1.36 0 .75-.634 1.358-1.411 1.358zm10.954-6.099c-1.707-1.436-5.653-4.74-6.722-5.513-.61-.442-1.027-.676-1.393-.78a2.394 2.394 0 00-.684-.103 2.98 2.98 0 00-.869.14c-.69.211-1.378.738-2.044 1.247l-.034.026c-.62.475-1.261.966-1.746 1.07-.211.046-.429.07-.646.07-.543 0-1.031-.151-1.214-.376-.03-.037-.01-.098.06-.184l.009-.012 1.502-1.559c1.177-1.133 2.288-2.203 4.846-2.26l.128-.001c1.592 0 3.183.687 3.362.767 1.493.7 3.034 1.057 4.583 1.059 1.614 0 3.28-.385 5.031-1.162-.195-.158-.4-.312-.608-.464-1.539.643-3.005.968-4.419.967-1.444-.001-2.888-.335-4.289-.994-.073-.034-1.831-.832-3.66-.833l-.144.002c-2.149.048-3.359.783-4.173 1.427-.791.018-1.474.202-2.082.366-.542.145-1.01.271-1.467.27-.188 0-.527-.016-.557-.017-.525-.015-3.17-.64-5.276-1.408a13.89 13.89 0 00-.623.452c2.199.868 4.875 1.54 5.72 1.593.234.014.484.04.735.04.559 0 1.116-.15 1.656-.296.318-.086.67-.18 1.04-.248-.099.093-.197.188-.296.283l-1.526 1.59c-.12.117-.381.429-.21.813.07.155.208.303.402.43.364.235 1.015.394 1.62.395.23 0 .446-.022.646-.065.64-.139 1.31-.654 2.022-1.198.566-.433 1.37-.984 1.987-1.146.172-.045.383-.073.553-.073.051 0 .099.002.144.008.407.05.8.184 1.503.692 1.253.906 6.797 5.577 6.85 5.624.005.003.358.296.333.785-.013.272-.17.514-.442.682a1.39 1.39 0 01-.728.218c-.37-.001-.626-.168-.642-.18-.02-.016-1.92-1.694-2.619-2.257-.111-.089-.22-.169-.329-.169a.183.183 0 00-.145.066c-.11.13.013.311.158.43l2.22 2.148c.002.003.275.25.306.58.017.355-.16.653-.527.886-.262.165-.527.25-.787.25-.34 0-.58-.15-.632-.185l-.319-.302c-.581-.552-1.182-1.122-1.621-1.475-.108-.086-.222-.165-.332-.165a.192.192 0 00-.14.057c-.05.054-.084.15.04.31.052.066.112.12.112.12l1.62 1.752c.014.016.334.382.036.748l-.057.07c-.048.051-.1.099-.15.139-.276.218-.645.242-.791.242-.079 0-.154-.007-.22-.018-.16-.028-.266-.07-.318-.13l-.02-.02c-.088-.088-.905-.89-1.58-1.433-.089-.072-.2-.162-.315-.162a.195.195 0 00-.146.063c-.134.14.067.351.152.429l1.381 1.466a.307.307 0 01-.052.09c-.05.066-.217.227-.718.288-.06.007-.122.01-.183.01-.517 0-1.068-.24-1.352-.386.13-.263.196-.552.196-.843.001-1.095-.922-1.985-2.059-1.986-.024 0-.05 0-.074.002.037-.5-.036-1.447-1.045-1.864a2.236 2.236 0 00-.86-.182c-.22 0-.433.036-.632.11a1.718 1.718 0 00-1.009-.825 2.34 2.34 0 00-.739-.125c-.42 0-.806.118-1.151.355-.33-.396-.83-.63-1.356-.63-.46 0-.902.177-1.23.49-.43-.317-2.134-1.36-6.698-2.358a25.57 25.57 0 01-1.039-.276c-.051.238-.09.479-.116.721 0 0 .841.195 1.007.23 4.662.998 6.202 2.035 6.463 2.23a1.64 1.64 0 00-.135.647c0 .927.783 1.683 1.747 1.684.108 0 .215-.009.32-.028.145.683.609 1.2 1.318 1.466.207.077.416.116.622.116.133 0 .267-.016.398-.048.13.32.425.72 1.084.977.23.09.461.136.686.136.183 0 .363-.03.533-.092.316.741 1.067 1.232 1.904 1.232.555 0 1.087-.217 1.476-.603.332.179 1.035.5 1.744.502.092 0 .178-.006.264-.017.704-.086 1.032-.35 1.183-.557a.846.846 0 00.072-.114c.167.046.35.084.56.084.384 0 .753-.126 1.126-.388.367-.255.628-.62.665-.932l.002-.013c.123.025.25.037.377.037.396 0 .785-.119 1.158-.353.718-.454.843-1.047.83-1.434.127.025.255.038.383.038.372 0 .737-.108 1.085-.321.445-.274.712-.694.753-1.183a1.546 1.546 0 00-.239-.954c1.203-.5 3.953-1.466 7.191-2.169a6.85 6.85 0 00-.1-.718c-3.919.837-6.842 2.056-7.575 2.37z" fill="#002F6D" /></g><g transform="translate(252, 0) scale(0.5, 0.5)"><ns0:path fill="#283C4A" d="M0 0h56v56H0z" /><ns0:path d="M36.683 23.908c-2.112-9.29-6.516-11.764-7.639-13.512-.463-.77-.873-1.57-1.228-2.396-.06.825-.168 1.345-.872 1.971-1.413 1.256-7.414 6.13-7.92 16.686-.47 9.842 7.259 15.91 8.28 16.538.785.385 1.741.008 2.208-.346 3.726-2.548 8.816-9.343 7.175-18.941" fill="#10AA50" /><ns0:path d="M28.136 37.954c-.195 2.436-.334 3.852-.828 5.243 0 0 .324 2.32.552 4.776h.806c.192-1.73.485-3.447.878-5.143-1.043-.511-1.368-2.738-1.408-4.876z" fill="#B8C4C2" /><ns0:path d="M29.544 42.831c-1.055-.485-1.407-4.877-1.407-4.877C28.1 28.553 28 8.209 28 8.209c.328.753.618 1.483 1.044 2.186 1.123 1.75 5.528 4.222 7.64 13.512 1.644 9.582-3.419 16.36-7.14 18.924z" fill="#12924F" /></g><g transform="translate(0, 28) scale(0.5, 0.5)"><ns0:path fill="#E84142" d="M0 0h56v56H0z" /><ns0:path d="M20.03 39h-5.38c-1.13 0-1.69 0-2.03-.21-.37-.24-.6-.63-.62-1.06-.02-.4.26-.88.82-1.85L26.1 12.8c.57-.98.86-1.47 1.22-1.65.38-.2.85-.2 1.24 0 .36.18.64.67 1.2 1.65l2.74 4.7.01.02a8.76 8.76 0 0 1 1.06 2.15c.15.6.15 1.25 0 1.86a8.8 8.8 0 0 1-1.06 2.17l-6.98 12.16-.02.04a8.72 8.72 0 0 1-1.36 2c-.47.44-1.03.76-1.65.95-.57.15-1.2.15-2.47.15Zm13.59 0h7.7c1.15 0 1.72 0 2.06-.22.37-.24.6-.63.62-1.06.02-.39-.25-.85-.79-1.76l-.06-.1-3.86-6.5-.04-.08c-.54-.9-.82-1.36-1.17-1.54-.39-.2-.84-.2-1.23 0-.36.18-.64.66-1.2 1.62l-3.86 6.51v.02c-.57.96-.85 1.44-.83 1.83.02.43.25.83.62 1.07.33.21.9.21 2.04.21Z" fill="#fff" /></g><g transform="translate(28, 28) scale(0.5, 0.5)"><ns0:path fill="url(#paint0_linear)" d="M0 0h56v56H0z" /><ns0:path d="M39.71 32.505c-.858-1.075-1.518-1.841-1.518-3.908v-6.86c0-2.894-.198-5.603-2.34-7.586C34.135 12.578 31.31 12 29.08 12c-4.716 0-8.93 1.906-9.958 7.032-.087.581.341.827.686.91l4.47.41c.428 0 .686-.413.773-.827.341-1.737 1.891-3.198 3.606-3.198.944 0 2.805.946 2.805 2.93v2.48c-2.747 0-5.812.185-8.213 1.176-2.83 1.16-5.249 3.382-5.249 6.938 0 4.547 3.52 7.032 7.292 7.032 3.174 0 4.903-.822 7.388-3.221.773 1.16 1.251 1.98 2.708 3.22.345.169.773.169 1.028-.08.857-.746 2.352-2.313 3.293-3.056.429-.333.345-.827 0-1.24zm-8.248-6.44c0 1.653-.326 5.778-4.526 5.778-2.159 0-2.205-2.533-2.205-2.533 0-3.246 3.472-4.328 6.73-4.328v1.082z" fill="#fff" /><ns0:path d="M41.193 40.139C37.643 42.534 32.325 44 28.017 44c-6.166 0-11.655-2.238-15.878-5.714-.336-.31 0-.618.34-.464 4.56 2.395 9.712 3.783 15.452 3.783 3.886 0 8.785-.773 12.754-2.317.59-.154 1.098.464.508.85zm1.267-1.623c-.423-.54-2.956-.23-4.055-.154-.34 0-.422-.233-.086-.462 1.943-1.315 5.236-.93 5.575-.465.337.465-.085 3.476-1.942 4.867-.255.232-.591.075-.423-.154.422-.93 1.353-3.09.93-3.633z" fill="#FFB300" /><ns0:defs><ns0:linearGradient id="paint0_linear" x1="10.418" y1="9.712" x2="68.147" y2="76.017" gradientUnits="userSpaceOnUse"><ns0:stop stop-color="#1A1E21" /><ns0:stop offset="1" stop-color="#06060A" /></ns0:linearGradient></ns0:defs></g><g transform="translate(56, 28) scale(0.5, 0.5)"><ns0:path fill="url(#paint0_linear)" d="M0 0h56v56H0z" /><ns0:path fill-rule="evenodd" clip-rule="evenodd" d="M43 18.82L18.607 12 12 37.18 36.393 44 43 18.82zm-12.302 7.286l-5.033-1.407-1.363 5.195 5.033 1.407 1.363-5.195z" fill="url(#paint1_linear)" /><ns0:path fill-rule="evenodd" clip-rule="evenodd" d="M29.3 31.075l1.351-4.989.483.13-1.482 5.472-5.471-1.482.13-.482 4.989 1.35z" fill="#fff" /><ns0:path d="M19.099 12.134l-6.616 25.172-.483-.13 6.616-25.173.483.13z" fill="#fff" /><ns0:defs><ns0:linearGradient id="paint0_linear" x1="10.418" y1="9.712" x2="68.147" y2="76.017" gradientUnits="userSpaceOnUse"><ns0:stop stop-color="#1A1E21" /><ns0:stop offset="1" stop-color="#06060A" /></ns0:linearGradient><ns0:linearGradient id="paint1_linear" x1="31.821" y1="16.273" x2="25.677" y2="39.114" gradientUnits="userSpaceOnUse"><ns0:stop stop-color="#fff" /><ns0:stop offset="1" stop-color="#A1ADBB" /></ns0:linearGradient></ns0:defs></g><g transform="translate(84, 28) scale(0.5, 0.5)"><ns0:path fill="url(#paint0_linear)" d="M0 0h56v56H0z" /><ns0:path d="M17 9h7v38h-7V9zM32 9h7v38h-7V9z" fill="#DB0916" /><ns0:path d="M31.667 47H39L24.333 9H17l14.667 38z" fill="#FF3540" /><ns0:defs><ns0:linearGradient id="paint0_linear" x1="10.418" y1="9.712" x2="68.147" y2="76.017" gradientUnits="userSpaceOnUse"><ns0:stop stop-color="#1A1E21" /><ns0:stop offset="1" stop-color="#06060A" /></ns0:linearGradient></ns0:defs></g><g transform="translate(112, 28) scale(0.5, 0.5)"><ns0:path fill="#FF7A59" d="M0 0h56v56H0z" /><ns0:path d="M35.804 23.536v-3.81c.51-.236.943-.61 1.247-1.078a2.905 2.905 0 00.469-1.567v-.088c0-.779-.314-1.525-.872-2.075a2.998 2.998 0 00-2.104-.86h-.09c-.789 0-1.546.31-2.104.86a2.914 2.914 0 00-.872 2.075v.088c.003.556.166 1.1.47 1.567.303.469.736.842 1.247 1.078v3.81a8.488 8.488 0 00-4.008 1.74l-10.6-8.14c.075-.269.115-.546.12-.824a3.272 3.272 0 00-.563-1.838 3.343 3.343 0 00-1.502-1.22 3.398 3.398 0 00-1.938-.191c-.65.126-1.249.44-1.718.902-.47.462-.79 1.05-.92 1.691a3.262 3.262 0 00.188 1.911 3.317 3.317 0 001.233 1.486c.55.364 1.199.558 1.862.56A3.353 3.353 0 0017 19.17l10.439 8.007a8.251 8.251 0 00-1.405 4.714 8.256 8.256 0 001.534 4.676l-3.175 3.13a2.76 2.76 0 00-.794-.128c-.544 0-1.076.16-1.529.459a2.724 2.724 0 00-1.014 1.219 2.68 2.68 0 00-.156 1.568c.107.527.369 1.01.754 1.39a2.79 2.79 0 003 .589 2.747 2.747 0 001.236-1c.303-.446.465-.97.465-1.507a2.645 2.645 0 00-.129-.783l3.141-3.096a8.524 8.524 0 003.482 1.565 8.585 8.585 0 003.825-.105 8.508 8.508 0 003.388-1.754 8.356 8.356 0 002.259-3.046 8.245 8.245 0 00-.392-7.341 8.392 8.392 0 00-2.57-2.796 8.536 8.536 0 00-3.555-1.395zm-1.302 12.532a4.39 4.39 0 01-2.413-.724 4.297 4.297 0 01-1.598-1.923 4.227 4.227 0 01-.246-2.475 4.265 4.265 0 011.19-2.192 4.365 4.365 0 012.224-1.172 4.403 4.403 0 012.51.244 4.333 4.333 0 011.95 1.577c.477.704.732 1.532.732 2.379a4.254 4.254 0 01-1.272 3.03 4.377 4.377 0 01-3.073 1.254" fill="#fff" /></g><g transform="translate(140, 28) scale(0.5, 0.5)"><ns0:path fill="#08090D" d="M0 0h56v56H0z" /><ns0:path d="M20.432 27.427c.447-.481.384-.89.821-2.024a7.23 7.23 0 0113.493 0c.438 1.135.375 1.543.821 2.024.435.47.892.573 2.312.573H44c0-4.625-1.986-8.853-5.184-11.788a15.996 15.996 0 00-21.633 0A15.993 15.993 0 0012 28h6.12c1.421 0 1.878-.103 2.312-.573zm21.904 7.689L36.424 29.2C35.19 27.965 35.294 28 33.544 28H22.456c-1.75 0-1.646-.035-2.882 1.201l-5.91 5.915a16.006 16.006 0 005.992 6.55c1.514-1.513 6.054-6.056 6.81-6.812.62-.62.895-.86 1.231-.964a.968.968 0 01.604 0c.336.103.61.343 1.23.964l6.81 6.813a16.003 16.003 0 005.994-6.551z" fill="#fff" /></g><g transform="translate(168, 28) scale(0.5, 0.5)"><ns0:path fill="url(#ab55kpsou)" d="M0 0h56v56H0z" /><ns0:path d="M31.51 18.36c.47-2.17-2.08-7.36-2.08-7.36 13.11 8.26 9.47 13.07 9.47 13.07-.74-3.56-7.39-5.71-7.39-5.71zm-3.32 4.77c-.3-1.48-.74-2.94-1.32-4.34l-4.33-2.9s2.24 3.51 1.9 5.82l3.75 1.42zm-8.05-.76a27.3 27.3 0 011.15 3.72l-3.42-.85c.36-2.3-1.82-5.1-1.82-5.1l4.1 2.23zm23.7 9.35c-1-4.16-16.25-14.9-16.25-14.9a18.99 18.99 0 01.22 18.44 23.75 23.75 0 00.77-9.04l-.05-.5-7.32-4.9a18.8 18.8 0 011.51 5.98 18.8 18.8 0 01-1.74 9.83c.65-2.62.85-5.33.6-8.01-.04-.12-.04-.22-.04-.33l-6.84-3.65a15.6 15.6 0 01.64 11.75c-.7 2.08-1.85 4-3.34 5.61 29.21-12.42 30.4-4.24 30.4-4.24s2.2-2.9 1.44-6.04z" fill="#fff" /><ns0:defs><ns0:linearGradient id="ab55kpsou" x1="10.42" y1="9.71" x2="68.15" y2="76.02" gradientUnits="userSpaceOnUse"><ns0:stop stop-color="#1A1E21" /><ns0:stop offset="1" stop-color="#06060A" /></ns0:linearGradient></ns0:defs></g><g transform="translate(196, 28) scale(0.5, 0.5)"><ns0:path fill="url(#adq1znubl)" d="M0 0h56v56H0z" /><ns0:path d="m11.17 38 18.6-12h10.06a.6.6 0 0 1 .6.6.52.52 0 0 1-.28.5l-9.53 5.55c-.62.37-.62 1.13-.62 1.7V38h12V16.76a.76.76 0 0 0-.78-.76H29.55L11 28.2V38h.17Z" fill="#fff" /><ns0:defs><ns0:linearGradient id="adq1znubl" x1="10.42" y1="9.71" x2="68.15" y2="76.02" gradientUnits="userSpaceOnUse"><ns0:stop stop-color="#1A1E21" /><ns0:stop offset="1" stop-color="#06060A" /></ns0:linearGradient></ns0:defs></g><g transform="translate(224, 28) scale(0.5, 0.5)"><ns0:path fill="url(#paint0_linear)" d="M0 0h56v56H0z" /><ns0:path d="M12.087 26.332s3.692-4.799 10.913-5.3v-1.994C15.002 19.62 8 26 8 26s3.998 10.245 15 11.187V35.32c-8.073-.921-10.913-8.99-10.913-8.99zM23 31.61v1.709c-6.102-.986-7.871-6.738-7.871-6.738S18.134 23.477 23 23v2.035c.003 0-.004 0 0 0-2.554-.278-4.634 1.886-4.634 1.886S19.56 30.562 23 31.61zM23 16v3.038c.235-.017.394-.03.63-.038 9.093-.278 15.018 6.962 15.018 6.962s-6.805 7.503-13.894 7.503c-.65 0-1.183-.054-1.754-.146v2.002c.489.056.92.09 1.448.09 6.597 0 11.368-3.056 15.988-6.672.766.557 3.902 1.91 4.546 2.502-4.392 3.335-14.63 6.023-20.433 6.023-.56 0-1.02-.031-1.549-.077V40h25V16H23zm0 7v-1.967c.232-.015.391-.026.63-.033 6.539-.186 10.829 5.055 10.829 5.055S29.969 32 25 32c-.715 0-1.423-.214-2-.39v-6.575c2.546.28 2.982 1.3 4.513 3.613l3.403-2.602S28.19 23 24 23c-.455 0-.572-.041-1 0z" fill="#76B900" /><ns0:defs><ns0:linearGradient id="paint0_linear" x1="10.418" y1="9.712" x2="68.147" y2="76.017" gradientUnits="userSpaceOnUse"><ns0:stop stop-color="#1A1E21" /><ns0:stop offset="1" stop-color="#06060A" /></ns0:linearGradient></ns0:defs></g><g transform="translate(252, 28) scale(0.5, 0.5)"><ns0:path fill="#ED1C24" d="M0 0h56v56H0z" /><ns0:path d="M23.765 12H12v32l11.765-32zm8.47 0H44v32L32.235 12zM28 23.733L22.823 37.6h5.648l1.882 6.398h5.176L28 23.733z" fill="#fff" /></g><g transform="translate(0, 56) scale(0.5, 0.5)"><ns0:path fill="#0080FF" d="M0 0h56v56H0z" /><ns0:path d="M28.02 44v-6A10 10 0 1 0 18 28h-6a16.06 16.06 0 0 1 21.08-15.21c4.8 1.48 8.6 5.32 10.13 10.11A16.04 16.04 0 0 1 28.02 44zM22 38h6v-6h-6v6zm-5 0v5h5v-5h-5zm0 0h-4v-4h4v4z" fill="#fff" /></g><g transform="translate(28, 56) scale(0.5, 0.5)"><ns0:path fill="#345D9D" d="M0 0h56v56H0z" /><ns0:path d="M19.253 32.617l-2.503.98 1.207-4.847 2.52-1.015L24.117 13h8.978l-2.66 10.85 2.468-.998-1.19 4.796-2.486 1.015L27.74 35h13.51l-1.523 6h-22.54l2.066-8.383z" fill="#fff" /></g><g transform="translate(56, 56) scale(0.5, 0.5)"><ns0:path fill="#494AF4" d="M0 0h56v56H0z" /><ns0:path d="M44.14 37.98a18 18 0 10-32.28 0l.01.02h3.44a15 15 0 1125.38 0h3.44v-.02zM20.66 23.57A13.34 13.34 0 0128.04 21c3.94 0 6.96 1.75 6.96 6.06V38h-4v-2.96c-.98 1.68-3.36 2.96-5.68 2.96-3.23 0-5.32-1.77-5.32-4.66 0-3.67 3.75-4.97 8.53-5.58 1.27-.16 2.47-.58 2.47-1.42 0-1.24-1.53-1.84-3.38-1.84a8.77 8.77 0 00-5.44 2.24l-1.52-3.17zM24 33.08c0 .98 1.2 1.56 2.42 1.56 2.3 0 4.6-1.96 4.58-4.38-3.73.4-7 1-7 2.82z" fill="#fff" /></g><g transform="translate(84, 56) scale(0.5, 0.5)"><ns0:path fill="#F0F3FA" d="M0 0h56v56H0z" /><ns0:path d="M28 8v14.78l12.5 5.59L28 8Z" fill="#8FFCF3" /><ns0:path d="M28 8 15.5 28.37 28 22.78V8Z" fill="#CABCF8" /><ns0:path d="M28 37.95V48l12.5-17.3L28 37.95Z" fill="#CBA7F5" /><ns0:path d="M28 48V37.95L15.5 30.7 28 48Z" fill="#74A0F3" /><ns0:path d="m28 35.62 12.5-7.25L28 22.78v12.84Z" fill="#CBA7F5" /><ns0:path d="M15.5 28.37 28 35.62V22.78l-12.5 5.59Z" fill="#74A0F3" /><ns0:path fill-rule="evenodd" d="m28 35.62-12.5-7.25L28 8l12.5 20.37L28 35.62Zm-11.67-7.84L27.8 9.09v13.59l-11.47 5.1Zm-.17.51 11.64-5.17v11.92l-11.64-6.75Zm12.04-5.17v11.92l11.63-6.75-11.63-5.17Zm0-.44 11.47 5.1L28.2 9.09v13.59Z" fill="#202699" /><ns0:path fill-rule="evenodd" d="m28 37.79-12.5-7.1L28 48l12.5-17.31-12.5 7.1Zm-11.1-5.85 10.9 6.2v8.9l-10.9-15.1Zm11.3 6.2v8.9l10.9-15.1-10.9 6.2Z" fill="#202699" /></g><g transform="translate(112, 56) scale(0.5, 0.5)"><ns0:path fill="#F0F3FA" d="M0 0h56v56H0z" /><ns0:path d="M34 14.5c0 1.93-2.69 3.5-6 3.5s-6-1.57-6-3.5S24.7 11 28 11s6 1.57 6 3.5zm0 27c0 1.93-2.69 3.5-6 3.5s-6-1.57-6-3.5S24.7 38 28 38s6 1.57 6 3.5zM19.35 23.15c1.7-2.93 1.71-6.1.04-7.06-1.68-.97-4.4.63-6.1 3.56-1.7 2.93-1.7 6.1-.04 7.06 1.68.96 4.4-.63 6.1-3.56zm23.38 6.13c1.68.95 1.67 4.06-.02 6.94-1.7 2.88-4.43 4.44-6.1 3.49-1.69-.95-1.68-4.06.01-6.94 1.7-2.88 4.43-4.44 6.11-3.49zM19.4 39.73c1.68-.95 1.67-4.06-.03-6.94-1.69-2.88-4.42-4.44-6.1-3.49-1.69.96-1.68 4.06.02 6.94 1.69 2.88 4.42 4.45 6.1 3.5zm23.33-20.07c1.7 2.93 1.7 6.09.03 7.05-1.67.97-4.4-.62-6.1-3.56-1.68-2.93-1.7-6.09-.03-7.05 1.68-.97 4.4.62 6.1 3.56z" fill="#E6007A" /></g><g transform="translate(140, 56) scale(0.5, 0.5)"><ns0:path fill="#E82127" d="M0 0h56v56H0z" /><ns0:path d="M28 46l4.5-25c4.267 0 5.594.072 5.788 1.99 0 0 2.863-1.072 4.306-3.25C36.961 17.12 31.3 17 31.3 17L28 21l-3.3-4s-5.66.118-11.293 2.74c1.442 2.177 4.306 3.25 4.306 3.25.195-1.92 1.549-1.987 5.787-1.99L28 46z" fill="#fff" /><ns0:path d="M28 15.947c4.554-.035 9.664.717 15 3.053.713-1.29 1-2 1-2-5.833-2.318-11.296-2.98-16-3-4.705.02-10.167.682-16 3 0 0 .364.843 1 2 5.335-2.336 10.446-3.088 15-3.053z" fill="#fff" /></g><g transform="translate(168, 56) scale(0.5, 0.5)"><ns0:path fill="url(#paint0_linear)" d="M0 0h56v56H0z" /><ns0:path fill-rule="evenodd" d="M20.46 20.5l.004.003c.308.26.539.454.685.591l.09.088a.85.85 0 01.062.07c.307.404.192.766-.335 1.05-.293.158-.895.318-1.196.318-.34 0-.458-.125-.458-.125l-.07-.059c-.168-.137-.362-.295-1.254-1.797a830.876 830.876 0 00-1.9-2.786 46.915 46.915 0 00-.72-1.04c-.075-.066-.074-.064 2.476 4.266.328.718.186 1.074.114 1.255a.34.34 0 00-.032.108c0 .26-.075.398-.415.758-.566.6-.82 1.274-1.003 2.67-.204 1.563-.78 2.668-2.378 4.558-.935 1.107-1.088 1.31-1.324 1.756-.297.561-.379.876-.412 1.585-.035.75.033 1.235.275 1.952.21.627.432 1.042.995 1.87.487.716.767 1.248.767 1.456 0 .165.034.166.788.004 1.805-.387 3.27-1.067 4.095-1.9.51-.517.63-.802.634-1.509.002-.463-.015-.56-.147-.826-.214-.433-.605-.793-1.465-1.35-1.128-.733-1.61-1.321-1.742-2.131-.11-.665.017-1.134.64-2.374.646-1.284.806-1.832.915-3.126.07-.836.167-1.166.42-1.43.264-.277.501-.37 1.155-.455 1.066-.138 1.744-.4 2.302-.887.483-.424.686-.831.717-1.445l.023-.465-.27-.299C21.516 19.771 12.06 12 12 12c-.012 0 .31.383.716.851 3.624 4.175 6.408 6.522 7.744 7.65zm-5.48 14.118a.798.798 0 00-.265-1.084c-.35-.22-.894-.117-.894.17a.195.195 0 00.02.084l.013.023a.228.228 0 00.05.05l.044.031.04.02c.194.096.208.202.055.42-.155.22-.142.415.035.546.286.213.691.096.903-.26z" fill="#FF0A6F" /><ns0:path d="M21.29 14.272c-.055-.016-.01-.026.103-.042.394-.058 1.325.02 1.965.165 1.497.338 2.858 1.202 4.311 2.738l.386.408.552-.084c2.327-.355 4.694-.073 6.675.795.544.239 1.403.714 1.51.836.035.039.097.29.14.557.146.925.073 1.634-.225 2.164a1.59 1.59 0 00-.101.205l-.02.058c-.031.117-.01.21.059.363.087.197.33.343.57.342.492 0 1.021-.755 1.267-1.805l.098-.418.193.208c1.058 1.139 1.89 2.692 2.033 3.797l.037.288-.177-.262c-.307-.45-.615-.758-1.009-1.005-.71-.446-1.462-.598-3.452-.698-1.797-.09-2.814-.235-3.822-.547-1.717-.531-2.581-1.238-4.62-3.776-.905-1.128-1.465-1.751-2.021-2.253-1.265-1.142-2.508-1.74-4.099-1.974a4 4 0 01-.353-.06z" fill="#FF0A6F" /><ns0:path d="M37.197 16.849c.046-.756.153-1.254.37-1.71.087-.18.167-.327.18-.327.012 0-.026.133-.084.296-.157.441-.184 1.045-.075 1.748.139.892.217 1.02 1.21 1.983.465.452 1.008 1.022 1.204 1.267l.357.444-.357-.317c-.437-.39-1.441-1.147-1.663-1.256a.494.494 0 00-.131-.05.1.1 0 00-.036 0c-.03.007-.056.028-.095.066-.085.08-.103.2-.115.767-.018.884-.145 1.451-.452 2.019-.165.307-.191.241-.042-.105.113-.259.124-.372.123-1.228-.002-1.72-.217-2.134-1.479-2.842a13.067 13.067 0 00-1.17-.575c-.324-.137-.581-.256-.572-.265.036-.034 1.266.307 1.762.488.736.269.858.304.947.271.06-.021.09-.187.118-.674zm-16.022-1.321c-.119 1.328.43 3.104 1.317 4.263.687.898 1.752 1.595 2.539 1.663.515.044.67-.11.437-.432-.324-.448-.722-1.139-.827-1.434a15.127 15.127 0 01-.316-1.206c-.37-1.636-.733-2.273-1.573-2.757-.306-.176-.96-.407-1.339-.473l-.201-.035-.037.411zm14.947 12.884c-4.144-1.583-5.603-2.957-5.603-5.276 0-.341.012-.62.027-.62.016 0 .176.112.357.25.84.64 1.781.912 4.386 1.273 1.532.212 2.395.384 3.19.634 2.53.796 4.095 2.411 4.468 4.612.108.639.044 1.838-.131 2.47-.14.499-.563 1.398-.675 1.433-.015.004-.03-.019-.041-.06a.956.956 0 01-.029-.198c-.042-.826-.482-1.63-1.22-2.233-.84-.685-1.97-1.23-4.729-2.285zm-3.109-.174c.058.164.148.539.2.832.332 1.874-.705 3.389-2.722 3.976a6.63 6.63 0 01-.451.1 32.83 32.83 0 01-.566.104l-.372.064-.48.079c-1.648.26-2.384.445-3.123.783-.525.24-1.16.598-1.121.634.005.005.031.003.071-.006.05-.01.12-.03.194-.054.932-.311 1.97-.472 3.546-.55.227-.01.465-.024.689-.039l.298-.02.302-.022.135-.012.157-.016c1.404-.168 2.378-.572 3.134-1.303.422-.407.673-.786.875-1.32.128-.34.145-.465.147-1.066 0-.612-.015-.724-.154-1.1-.182-.494-.396-.864-.668-1.154l-.197-.209.106.299z" fill="#FF0A6F" /><ns0:path d="M35.112 32.271c-.55-1.123-.676-2.207-.375-3.219.032-.108.084-.196.116-.196a.43.43 0 01.126.053c.05.026.106.06.162.095.254.162.763.435 2.118 1.136 1.692.876 2.656 1.553 3.312 2.328.574.678.93 1.45 1.101 2.392.097.533.04 1.817-.104 2.354-.455 1.694-1.512 3.024-3.02 3.8a3.96 3.96 0 01-.44.208c-.006 0-.004-.015.005-.042l.018-.052c.031-.08.087-.201.155-.337.508-1.007.565-1.985.182-3.075-.235-.667-.714-1.48-1.68-2.856-1.124-1.6-1.4-2.025-1.676-2.589zm-10.37 3.684c-1.742.269-3.655 1.144-5.193 2.376l-.458.367.402.06c2.1.31 2.666.586 4.122 2.01.838.82 1.12 1.002 1.816 1.17 1.02.247 2.027-.207 2.372-1.072.154-.386.134-1.025-.043-1.346-.421-.765-1.648-1.012-2.24-.452-.494.467-.35 1.17.264 1.29.14.028.137.022-.036-.052-.269-.115-.385-.275-.387-.53-.003-.596.716-.932 1.386-.645.49.21.685.484.685.965 0 .74-.664 1.299-1.437 1.207-.413-.049-.918-.3-1.19-.59-.681-.731-.415-1.885.537-2.328.724-.337 1.687-.254 2.434.21.857.533 1.223 1.02 1.961 2.62.241.52.55 1.107.689 1.303.7.994 1.538 1.482 2.549 1.482.556 0 .976-.097 1.503-.347.392-.185.947-.538.907-.576-.011-.01-.174.037-.361.107-1.103.408-2.224.38-2.876-.073-.41-.285-.74-.852-.91-1.561-.03-.123-.127-.665-.217-1.206-.226-1.369-.443-1.984-.95-2.69-.518-.723-1.516-1.33-2.631-1.6-.695-.169-1.947-.215-2.698-.099z" fill="#FF0A6F" /><ns0:path fill-rule="evenodd" d="M22.302 25.37c.15-.527.637-1.03 1.137-1.176.317-.093.975-.034 1.284.115.6.29 1.034.948.94 1.423-.115.58-1.106 1.043-2.245 1.05-.582.005-.797-.07-1.019-.351-.137-.175-.189-.74-.097-1.06zm2.268-.854c.299.173.376.43.2.666-.121.163-.496.318-.77.318-.41 0-.859-.277-.859-.53 0-.51.86-.784 1.429-.454z" fill="#FF0A6F" /><ns0:defs><ns0:linearGradient id="paint0_linear" x1="6.34" y1="28" x2="56" y2="13.584" gradientUnits="userSpaceOnUse"><ns0:stop stop-color="#FFF0F6" /><ns0:stop offset="1" stop-color="#FFB3CF" /></ns0:linearGradient></ns0:defs></g><g transform="translate(196, 56) scale(0.5, 0.5)"><ns0:path fill="#C4342B" d="M0 0h56v56H0z" /><ns0:path fill-rule="evenodd" d="M15.4 14.484a1 1 0 01.98-.301l21.1 5.166c.127.031.246.087.352.163l4.293 3.13a1 1 0 01.236 1.372l-14.77 21.61a1 1 0 01-1.769-.23L15.2 15.49a1 1 0 01.2-1.005zm3.482 5.397l7.374 20.76 1.213-10.759-8.587-10.001zm10.56 10.348L28.21 41.175 38.64 25.912l-9.199 4.317zm10.139-6.967l-6.723 3.155 4.507-4.77 2.216 1.615zm-4.246-2.379L18.93 16.866l9.618 11.202 6.788-7.185z" fill="#fff" /></g><g transform="translate(224, 56) scale(0.5, 0.5)"><ns0:path fill="#F06A69" d="M0 0h56v56H0z" /><ns0:path d="M35 19a7 7 0 11-14 0 7 7 0 0114 0zm-9 15a7 7 0 11-14 0 7 7 0 0114 0zm11 7a7 7 0 100-14 7 7 0 000 14z" fill="#fff" /></g><g transform="translate(252, 56) scale(0.5, 0.5)"><ns0:path fill="#632CA6" d="M0 0h56v56H0z" /><ns0:path d="M25.37 19.93c1.17-.8 2.69-.48 2.43-.24-.48.46.16.32.23 1.17.05.63-.15.97-.33 1.17a7.47 7.47 0 00-2.18.64l-.22-.16c-.83-.72-.8-1.99.07-2.58zm7.02 4.95a6.17 6.17 0 012.08-.58 4 4 0 011.29 0c.28.15.28.64.09 1.09-.29.65-.69 1.37-1.14 1.43-.74.1-1.44-.3-2.24-.9-.29-.22-.47-.74-.08-1.04zm1.35-6.35c1.1.51.96 1.48.99 2.05l-.01.35c-.15-.08-.4-.14-.77-.13-.11 0-.22.02-.33.04-.4-.22-.64-.64-.86-1.1a2.04 2.04 0 01-.05-.1l-.02-.06-.01-.02c-.12-.38-.04-.46.01-.58.05-.12.25-.22-.04-.32l-.1-.02c.2-.24.78-.3 1.2-.1zm-5.96 11.58a16.38 16.38 0 01-2.94-2.44c-.09-.07-.07-.37-.07-.37.48.38 2.48 1.8 4.59 2.45.74.23 1.89.32 2.88-.24a7.37 7.37 0 002.21-1.95l.1.17c0 .12-.25.68-.38.9.23.13.4.17.66.24l1.75-.27a5.32 5.32 0 00.6-4.2c-.28-.9-1.7-2.68-1.8-2.77-.36-.35.05-1.68-.66-3.13-.75-1.54-2.7-3.14-3.55-3.83.25.18 1.79.8 2.5 1.67.08-.09.1-.56.17-.67-.62-.81-.67-2.25-.67-2.64 0-.7-.36-1.5-.36-1.5s.62.49.78 1.33c.19 1 .59 1.78 1.12 2.45 1 1.25 1.92 1.9 2.38 1.43.55-.56-.56-3.04-1.98-4.43-1.65-1.62-2.08-1.41-3.05-1.07-.77.28-1.19 2.47-3.2 2.43-.34-.04-1.22-.06-1.66-.06l.42-.56s-.67.27-1.25.62l-.04-.07c.2-.41.4-.67.4-.67s-.54.33-1.03.71c.09-.48.43-.8.43-.8s-.69.13-1.55 1.09c-1 .26-1.23.44-2.02.79-1.28-.28-1.88-.73-2.45-1.56-.44-.63-1.22-.73-2.02-.4-1.16.48-2.63 1.14-2.63 1.14s.48-.02.98 0c-.68.26-1.34.61-1.34.61h.71c-.27.23-.42.33-.68.5-.62.46-1.13.98-1.13.98s.42-.19.8-.3c-.26.61-.79 1.06-.7 1.8.1.69.94 2.1 2.02 2.95.1.08 1.57 1.44 2.68.88 1.12-.56 1.56-1.05 1.74-1.82.21-.88.1-1.54-.37-3.45-.15-.63-.55-1.92-.74-2.54l.05-.03c.36.76 1.3 2.79 1.67 4.15.58 2.12.4 3.2.13 3.59-.8 1.19-2.88 1.34-3.82.68-.15 2.29.36 3.3.54 3.8-.09.58.29 1.66.29 1.66s.04-.49.21-.75c.05.58.34 1.26.34 1.26s-.02-.42.12-.79c.18.32.32.4.5.63.17.62.53 1.07.53 1.07s-.06-.33-.03-.67c.87.82 1.01 2.04 1.1 2.97.24 2.55-4.04 4.59-4.86 6.19-.63.95-1.01 2.45.05 3.33 2.58 2.13 1.59 2.72 2.88 3.66 1.76 1.29 3.97.71 4.73-.34 1.04-1.45.77-2.83.39-4.12-.3-1-1.14-2.67-2.16-3.32a4.47 4.47 0 00-2.92-.7l.08-.09a4.8 4.8 0 013.47.5 6.2 6.2 0 012.54 3.64c.58-.08.66-.12 1.19-.2l-1.19-9.24 2.52-.28zm.68 11.6l-.13-1.29L31 36.34l3.03.9 2.61-4.37 3.13 2.07 2.38-4.98.84 9.07-14.53 2.67zM43.03 28.1l-9.56 1.73c-.23.3-.82.84-1.1.98-1.2.6-2.02.43-2.73.25-.45-.12-.71-.18-1.09-.35l-2.33.32 1.42 11.8L44 39.88l-.97-11.78z" fill="#fff" /></g><g transform="translate(0, 84) scale(0.5, 0.5)"><ns0:path fill="#49C2D2" d="M0 0h56v56H0z" /><ns0:path d="M14 27.03h2v-2.873c0-.83-.255-1.157-1-1.157-.737 0-1 .328-1 1.157v2.873zM14 29v2.93c0 .83.264 1.24 1 1.24.737 0 1-.41 1-1.24V30h2v1.85c0 2.096-.943 3.15-2.814 3.15h-.372C12.944 35 12 33.955 12 32.1v-7.693C12 22.06 12.943 21 14.814 21h.372C17.056 21 18 22.061 18 24.157L17.992 29H14zM21 32.701c.093.484.333.725.947.725.684 0 1.079-.34 1.079-1.146v-8.325c0-.805-.395-1.145-1.08-1.145-.613 0-.946.445-.946.725V32.7zM19 21h2v1.022c.154-.446.43-1.065 1.508-1.065 1.588 0 2.492 1.119 2.492 2.784v8.79c0 1.665-.904 2.784-2.492 2.784-1.079 0-1.357-.497-1.508-1.012V39h-2V21zM30 32.65v-4.628l-1.177.68c-.605.287-.823.654-.823 1.46v2.13c0 .68.303 1.012.823 1.012.336 0 .642-.206 1.177-.654zm-3.992-2.524c0-1.746.473-2.444 1.73-2.963L30 26.25v-2.336c0-.833-.314-1.266-1.004-1.266S28 23.081 28 23.914V26h-2v-2.006c0-2.104.884-3.169 2.637-3.169h.763c1.753 0 2.6 1.066 2.6 3.17v11.027h-2v-.886c-.45.52-1.122 1.039-2.069 1.039-1.318 0-1.923-.913-1.923-2.471v-2.578zM39 35h-2V23.84c0-.7-.33-1.012-.851-1.012-.473 0-1.149.698-1.149.698V35h-2V21h1.73v1.022c.505-.546 1.157-1.074 2.112-1.074.889 0 1.476.42 1.794 1.145.62-.6 1.346-1.145 2.341-1.145 1.338 0 2.023.94 2.023 2.47V35h-2V23.84c0-.7-.375-1.012-.897-1.012-.473 0-1.103.698-1.103.698V35zM4 27v2l6 4.5V31l-4-3 4-3v-2.5L4 27zM51 27v2l-6 4.5V31l4-3-4-3v-2.5l6 4.5z" fill="#fff" /></g><g transform="translate(28, 84) scale(0.5, 0.5)"><ns0:path fill="url(#ape3tqdet)" d="M0 0h56v56H0z" /><ns0:path d="M38.14 20.71c-.2.18-.45.29-.71.29h-23.8c-.52 0-.81-.56-.5-.96l4.65-4.74c.2-.19.45-.3.71-.3h23.88c.52 0 .81.57.5.96l-4.73 4.75Z" fill="url(#bpe3tqdet)" /><ns0:path d="M38.14 40.72c-.2.18-.45.28-.72.28h-23.8c-.5 0-.8-.56-.5-.96l4.66-4.75c.2-.19.45-.29.71-.29h23.88c.52 0 .81.57.5.96l-4.73 4.76Z" fill="url(#cpe3tqdet)" /><ns0:path d="M38.14 25.28c-.2-.18-.45-.28-.72-.28h-23.8c-.5 0-.8.56-.5.96l4.66 4.75c.2.18.45.29.71.29h23.88c.52 0 .81-.57.5-.96l-4.73-4.76Z" fill="url(#dpe3tqdet)" /><ns0:defs><ns0:linearGradient id="ape3tqdet" x1="10.42" y1="9.71" x2="68.15" y2="76.02" gradientUnits="userSpaceOnUse"><ns0:stop stop-color="#1A1E21" /><ns0:stop offset="1" stop-color="#06060A" /></ns0:linearGradient><ns0:linearGradient id="bpe3tqdet" x1="14.06" y1="23.44" x2="41.45" y2="15.35" gradientUnits="userSpaceOnUse"><ns0:stop stop-color="#6E73E3" /><ns0:stop offset=".32" stop-color="#41B8C8" /><ns0:stop offset=".58" stop-color="#27E2B7" /><ns0:stop offset="1" stop-color="#16FC99" /></ns0:linearGradient><ns0:linearGradient id="cpe3tqdet" x1="12.39" y1="40.04" x2="43.61" y2="35.66" gradientUnits="userSpaceOnUse"><ns0:stop stop-color="#9E48FF" /><ns0:stop offset=".34" stop-color="#8D4DF9" /><ns0:stop offset=".57" stop-color="#6B7AE1" /><ns0:stop offset=".95" stop-color="#45B3CE" /></ns0:linearGradient><ns0:linearGradient id="dpe3tqdet" x1="14.18" y1="28" x2="42.42" y2="28" gradientUnits="userSpaceOnUse"><ns0:stop stop-color="#8654F3" /><ns0:stop offset=".47" stop-color="#549AD6" /><ns0:stop offset=".93" stop-color="#26D9B2" /></ns0:linearGradient></ns0:defs></g><g transform="translate(56, 84) scale(0.5, 0.5)"><ns0:path fill="#F0F3FA" d="M0 0h56v56H0z" /><ns0:path d="M43.688 25.714H28v5.742h9.044C35.722 35.181 32.178 37.6 28 37.6a9.599 9.599 0 01-9.6-9.6c0-5.303 4.297-9.6 9.6-9.6a9.54 9.54 0 016.369 2.431l4.525-4.525C36.038 13.644 32.216 12 28 12c-8.837 0-16 7.163-16 16s7.163 16 16 16 16-7.163 16-16c0-.865-.11-1.27-.313-2.286z" fill="#FFC107" /><ns0:path d="M13.844 20.553l5.26 3.856C20.524 20.888 23.968 18.4 28 18.4a9.54 9.54 0 016.369 2.431l4.525-4.525C36.038 13.644 32.216 12 28 12c-6.147 0-11.475 3.469-14.156 8.553z" fill="#FF3D00" /><ns0:path d="M28 44c4.131 0 7.888-1.581 10.728-4.153l-4.953-4.19A9.535 9.535 0 0128 37.6c-4.163 0-7.694-2.653-9.025-6.356l-5.219 4.019C16.403 40.443 21.781 44 28 44z" fill="#4CAF50" /><ns0:path d="M43.688 25.714H28v5.742h9.044c-.635 1.79-1.788 3.075-3.272 4.2h.003l4.953 4.19C38.378 40.164 44 36 44 28c0-1.072-.11-1.27-.313-2.286z" fill="#1976D2" /></g><g transform="translate(84, 84) scale(0.5, 0.5)"><ns0:path fill="#F44238" d="M0 0h56v56H0z" /><ns0:path d="M18 18h11.55c.25 0 .45-.15.45-.4v-2.16c0-.24-.2-.44-.45-.44h-14.1c-.25 0-.45.2-.45.44v6.11c0 .25.2.45.45.45h2.1c.24 0 .45-.2.45-.45V18zm20 20H27.45c-.25 0-.45.2-.45.45v2.1c0 .25.2.45.45.45h13.1c.25 0 .45-.2.45-.44v-6.12c0-.24-.2-.44-.45-.44h-2.07c-.25 0-.48.2-.48.44V38zm2.54-23h-7.09c-.25 0-.45.2-.45.45v2.12c0 .25.2.43.45.43h2.39L15 37.93v2.61c0 .25.2.46.46.46h8.1c.25 0 .44-.2.44-.46v-2.06c0-.25-.2-.48-.45-.48h-4.3L38 20.07v1.5c0 .26.23.43.48.43h2.06c.25 0 .46-.18.46-.43v-6.11c0-.26-.2-.46-.46-.46z" fill="#fff" /></g><g transform="translate(112, 84) scale(0.5, 0.5)"><ns0:path fill="#F0F3FA" d="M0 0h56v56H0z" /><ns0:path d="M41.577 19.394a9.145 9.145 0 00-7.932-4.588 9.145 9.145 0 00-7.933 4.588 18.555 18.555 0 017.933-1.769c2.836 0 5.525.635 7.932 1.769z" fill="#EF5530" /><ns0:path d="M31.515 12.315a9.144 9.144 0 00-8.853 2.364 9.144 9.144 0 00-2.365 8.853 18.546 18.546 0 014.358-6.859 18.55 18.55 0 016.86-4.358z" fill="#F5911E" /><ns0:path d="M19.394 14.424a9.144 9.144 0 00-4.588 7.931 9.144 9.144 0 004.588 7.932 18.552 18.552 0 01-1.769-7.931c0-2.837.635-5.526 1.769-7.932z" fill="#FFCC25" /><ns0:mask id="a" maskUnits="userSpaceOnUse" x="12" y="24" width="12" height="13"><ns0:path d="M12 24.485h11.532v11.533H12V24.485z" fill="#fff" /></ns0:mask><ns0:g mask="url(#a)"><ns0:path d="M12.315 24.485a9.144 9.144 0 002.364 8.853 9.146 9.146 0 008.853 2.365 18.56 18.56 0 01-6.86-4.358 18.56 18.56 0 01-4.357-6.86z" fill="#B8CF32" /></ns0:g><ns0:path d="M14.424 36.606a9.144 9.144 0 007.931 4.588 9.145 9.145 0 007.933-4.588 18.556 18.556 0 01-7.933 1.768c-2.836 0-5.525-.634-7.931-1.768z" fill="#1EA34E" /><ns0:path d="M24.485 43.685a9.145 9.145 0 008.853-2.364 9.145 9.145 0 002.365-8.853 18.557 18.557 0 01-4.358 6.86 18.553 18.553 0 01-6.86 4.357z" fill="#4290CD" /><ns0:path d="M36.606 41.577a9.144 9.144 0 004.588-7.932 9.144 9.144 0 00-4.588-7.933 18.556 18.556 0 011.769 7.933c0 2.836-.635 5.525-1.769 7.931z" fill="#6F54A1" /><ns0:path d="M43.685 31.515a9.144 9.144 0 00-2.364-8.853 9.145 9.145 0 00-8.853-2.365c2.504.9 4.853 2.352 6.859 4.358a18.554 18.554 0 014.358 6.86z" fill="#CF1874" /></g><g transform="translate(140, 84) scale(0.5, 0.5)"><ns0:path fill="#0087FF" d="M0 0h56v56H0z" /><ns0:path d="M34.265 24.002c.002-.002-.712-.002-.78-.002-2.131 0-3.512 1.166-3.512 3.253v5.624c.003.066.054.12.118.123h1.767c.07.001.131-.051.142-.123v-5.363C32 26.39 32.123 26 33.45 26h.817a.267.267 0 00.255-.272l.008-1.39c.002-.145-.117-.336-.265-.336zM24.5 24c-2.129 0-3.5 1.343-3.5 3.431v5.446c.005.067.056.12.121.125h1.736a.148.148 0 00.143-.125v-5.186c0-1.123.562-1.691 1.5-1.691 1.247 0 1.5.541 1.5 1.691v5.15c0 .062.049.161.133.161h1.722A.17.17 0 0028 32.84v-5.615C28 25.148 26.642 24 24.5 24zm-5.62 0l-.004.002h-1.731a.146.146 0 00-.145.125v5.341C17 30.592 16.396 31 15.5 31c-.72 0-1.5-.332-1.5-1.483v-5.354c0-.062-.05-.161-.134-.161h-1.723a.17.17 0 00-.143.161v5.596c0 2.077 1.357 3.178 3.5 3.178 2.142 0 3.5-1.127 3.5-3.217v-5.595a.132.132 0 00-.12-.125zM7.64 27.687l.001-.01c-1.493-.446-1.936-.706-1.936-1.325 0-.444.359-.83 1.308-.83a2.768 2.768 0 012.001.743c.06.063.155.012.197-.024l.837-.894c.05-.048.026-.11-.023-.185-.65-.876-1.852-1.16-2.994-1.16-1.732 0-3.066.807-3.066 2.372 0 1.596 1.034 2.287 2.984 2.882 1.118.333 1.73.593 1.73 1.223 0 .629-.698.964-1.57.964-.925 0-1.765-.202-2.456-.952-.033-.047-.13-.024-.178.038l-.89 1.027a.153.153 0 00.036.16c.819.929 2.094 1.286 3.379 1.286 1.806 0 3.358-.807 3.358-2.558 0-1.684-1.024-2.253-2.719-2.757zM48.5 24c-2.129 0-3.5 1.343-3.5 3.431v5.446c.005.067.056.12.121.125h1.735a.148.148 0 00.144-.125v-5.186c0-1.123.562-1.691 1.5-1.691 1.247 0 1.5.541 1.5 1.691v5.15c0 .062.049.161.133.161h1.722A.17.17 0 0052 32.84v-5.615C52 25.148 50.642 24 48.5 24zM42.88 24l-.004.002h-1.731a.146.146 0 00-.145.125v5.341C41 30.592 40.396 31 39.5 31c-.72 0-1.5-.332-1.5-1.483v-5.354c0-.062-.05-.161-.134-.161h-1.723a.17.17 0 00-.143.161v5.596c0 2.077 1.358 3.178 3.5 3.178S43 31.81 43 29.72v-5.595a.132.132 0 00-.12-.125z" fill="#fff" /></g><g transform="translate(168, 84) scale(0.5, 0.5)"><ns0:path fill="#F60" d="M0 0h56v56H0z" /><ns0:path d="M13.14 36.45c-.2-.05-.47-.2-.7-.38-1.98-1.94.54-4.2 3.47-5.52v-3.73c.7.42 1.04.46 1.09.54l2.22-2.27-.74-1.9c6.54-2.32 9.18-3.2 14.5-4.12l-.95-.88 1.57-.93c3.58 1.22 6.92 1.53 6.35 4.58.15-2.05-2.36-2.84-6.24-3.96l-.72.46 1.42 1.2a85.6 85.6 0 0 0-14.94 4.03l.62 1.69-2.31 2.33c.39.11 4.44 1.51 8.7-1.51.02-.03.09-.04.09-.1-.15-.2-.42-.41-.77-.75a2.06 2.06 0 0 1 1.87 2.36h-.56c.06-.36-.03-.78-.18-1.05a10.9 10.9 0 0 1-10.32 1.65v2.9c-1.6.55-4.4 2.33-4.38 4.04.1.8.52 1.1.91 1.32z" fill="#010101" /><ns0:path d="M26.43 35.7c-3.52 1.84-6.87 3.29-12.1 3.5-6.75-.14-7.8-4.72-4.59-9.51 3.01-4.83 7.81-9.2 15.46-11.95A27.73 27.73 0 0 1 33.79 16c4.52-.04 8.9 1.4 8.6 5.79-.14 3.38-4.93 8.17-7.42 11.59-1.1 1.48-1.27 2.44.56 2.38 6.66-.45 10.64-1.9 16.22-4.34-3.75 2.6-21.32 11.64-21.43 4.85.03-.84.44-1.75 1.07-2.71a31.2 31.2 0 0 1 2.4-3.03c1.33-1.56 4.64-5.28 5.76-7.54 1.87-4.22-2.34-4.44-5.95-5.76l-1.57.93.94.89c-5.3.9-7.94 1.8-14.48 4.1l.74 1.92-2.22 2.26c-.04-.06-.39-.11-1.1-.53v3.73c-2.92 1.31-5.44 3.59-3.46 5.52.22.18.5.34.7.39h-.02c3.6 2.09 13.32-.74 13.3-.74z" fill="#fff" /></g><g transform="translate(196, 84) scale(0.5, 0.5)"><ns0:path fill="#FF385C" d="M0 0h56v56H0z" /><ns0:path d="M42.576 33.743c-.162-.385-.323-.801-.485-1.153-.258-.577-.517-1.122-.743-1.634l-.032-.032a333.072 333.072 0 00-7.143-14.479l-.097-.192c-.259-.48-.517-.993-.776-1.505-.323-.577-.646-1.185-1.163-1.762C31.101 11.705 29.615 11 28.031 11c-1.616 0-3.07.705-4.137 1.922-.485.576-.84 1.185-1.164 1.762a61.44 61.44 0 01-.776 1.505l-.096.192c-2.49 4.805-4.913 9.674-7.143 14.479l-.033.064c-.226.512-.484 1.057-.743 1.634-.162.352-.323.736-.485 1.153-.42 1.185-.55 2.306-.388 3.46a6.819 6.819 0 004.202 5.316 6.69 6.69 0 002.618.513 8.59 8.59 0 004.072-1.153c1.326-.737 2.586-1.794 4.008-3.331 1.422 1.537 2.715 2.594 4.008 3.33A8.589 8.589 0 0036.047 43c.905 0 1.81-.16 2.618-.513a6.805 6.805 0 004.202-5.317c.258-1.121.13-2.242-.291-3.427zm-14.577 1.665c-1.745-2.178-2.876-4.228-3.264-5.958-.162-.736-.194-1.377-.097-1.953.065-.513.259-.962.517-1.346.614-.865 1.649-1.41 2.844-1.41 1.196 0 2.263.513 2.845 1.41.258.384.452.833.517 1.346.097.576.064 1.249-.097 1.953-.388 1.698-1.52 3.748-3.265 5.958zm12.896 1.506c-.226 1.666-1.357 3.107-2.94 3.748a4.942 4.942 0 01-2.457.32c-.808-.096-1.616-.352-2.457-.833-1.163-.64-2.327-1.633-3.684-3.107 2.133-2.595 3.426-4.965 3.91-7.079.227-.993.26-1.89.162-2.723a5.17 5.17 0 00-.872-2.178c-1.002-1.441-2.683-2.274-4.558-2.274-1.874 0-3.555.865-4.557 2.274a5.17 5.17 0 00-.872 2.178 6.593 6.593 0 00.161 2.723c.485 2.114 1.81 4.517 3.911 7.111-1.325 1.474-2.521 2.467-3.685 3.107-.84.48-1.648.737-2.456.833a5.213 5.213 0 01-2.456-.32c-1.584-.641-2.715-2.082-2.942-3.748a5.26 5.26 0 01.291-2.499c.097-.32.259-.64.42-1.025.227-.512.485-1.057.744-1.601l.032-.064a348.777 348.777 0 017.11-14.383l.098-.192c.258-.48.517-.993.775-1.473.259-.513.55-.993.905-1.41.68-.768 1.584-1.185 2.586-1.185 1.002 0 1.907.416 2.586 1.185.355.417.646.897.905 1.41.258.48.517.993.775 1.473l.097.192a423.106 423.106 0 017.078 14.415v.032c.26.512.485 1.089.744 1.601.161.385.323.705.42 1.025.259.833.356 1.634.226 2.467z" fill="#fff" /></g><g transform="translate(224, 84) scale(0.5, 0.5)"><ns0:path fill="#F0F3FA" d="M0 0h56v56H0z" /><ns0:path d="M28.013 12C19.17 12 12 19.158 12 27.987c0 6.776 4.218 12.566 10.175 14.895-.145-1.264-.264-3.21.052-4.593.29-1.25 1.872-7.947 1.872-7.947s-.475-.96-.475-2.368c0-2.224 1.292-3.882 2.9-3.882 1.37 0 2.03 1.026 2.03 2.25 0 1.369-.87 3.421-1.332 5.33-.382 1.591.804 2.894 2.373 2.894 2.846 0 5.034-3 5.034-7.316 0-3.829-2.754-6.5-6.695-6.5-4.56 0-7.236 3.408-7.236 6.934 0 1.369.528 2.842 1.187 3.645a.476.476 0 01.105.46c-.118.5-.395 1.593-.448 1.816-.066.29-.237.356-.54.21-2.004-.933-3.256-3.841-3.256-6.197 0-5.04 3.664-9.67 10.584-9.67 5.548 0 9.87 3.947 9.87 9.236 0 5.513-3.479 9.948-8.302 9.948-1.621 0-3.15-.843-3.664-1.843l-1.002 3.803c-.356 1.395-1.33 3.132-1.99 4.197 1.503.461 3.084.711 4.745.711C36.83 44 44 36.842 44 28.013 44.026 19.158 36.857 12 28.013 12z" fill="#E60023" /></g><g transform="translate(252, 84) scale(0.5, 0.5)"><ns0:path fill="#F0F3FA" d="M0 0h56v56H0z" /><ns0:path fill="#F0502A" d="M12 12h15v15H12z" /><ns0:path d="M29 12h15v15H29V12z" fill="#82BA22" /><ns0:path d="M29 29h15v15H29V29z" fill="#FDB92C" /><ns0:path fill="#1CA7ED" d="M12 29h15v15H12z" /></g><g transform="translate(0, 112) scale(0.5, 0.5)"><ns0:path fill="#F1651F" d="M0 0h56v56H0z" /><ns0:path d="M25 19v4h3v1h-3v6.303c0 1.75.573 2.454 1.556 2.454.894 0 1.609-.576 1.832-.968L29 32.5c-.5 1-1.975 1.685-3.293 1.685C24.009 34.185 23 32.981 23 31v-7h-2v-1c2 0 3-1.5 3-4h1zm6 11h-1v3s1.986 1.14 3.706 1.14c2.324 0 4.178-1.153 4.178-3.387 0-3.917-5.63-3.794-5.63-6.42 0-1.083.96-1.498 1.943-1.498C35.5 22.835 36 23.777 36 26h1v-3.5s-1.752-.587-2.69-.587c-2.19 0-3.956.99-3.956 3.203 0 3.87 5.497 3.517 5.497 6.42 0 .968-.603 1.705-1.944 1.705C32.036 33.24 31 32 31 30zm9.275 7.687C39.06 37.687 39 37 39 35h-1v3c.5.5 1.247 1 2.275 1 1.52 0 3.374-.438 5.43-5.437l3.542-9.697c.29-.691.253-.866 1.253-.866h.5v-1h-4v1h.5c.5 0 .5.269.5.866 0 .253-.15.69-.15.69-.246.646-2.615 7.141-2.615 7.141-.983-2.534-2-7.089-2.235-7.92-.235-.831 1-.777 1.5-.777h.5v-1h-6v1h.5c.5 0 .743.251.9.777 1.1 3.723 3.003 9.21 3.562 10.708-1.207 2.51-2.637 3.202-3.687 3.202zM10 18.359c0-.23.022-.369.402-.369 0 0 2.598.01 5.098.01s2.5 4 2.5 4h1v-5H5v1s2-.194 2 1.271v12.38c0 1.336-2 1.336-2 1.336V34h14c.067-.83-.067-4.585 0-5h-1s0 4-3 4h-3.52c-1.118 0-1.48-.243-1.48-1.234V26h3.11c1.113.082 1.89.848 1.89 2h1v-5h-1c0 1.133-.673 1.871-1.89 2H10v-6.641z" fill="#fff" /></g><g transform="translate(28, 112) scale(0.5, 0.5)"><ns0:path fill="#FF5F30" d="M0 0h56v56H0z" /><ns0:path d="M41.96 29a14 14 0 00-20.58-13.34A12.69 12.69 0 0136.96 29h-2a10.69 10.69 0 00-10.64-11.69c-2.46 0-4.66.83-6.39 2.23A9 9 0 0129.94 29H21v-2h6.93a7 7 0 10-.6 4h2.16a9 9 0 01-11.57 5.46 10.08 10.08 0 006.4 2.23A10.7 10.7 0 0034.56 31h2.07a12.7 12.7 0 01-15.25 9.34A14 14 0 0041.68 31h2.04a16 16 0 11.25-2h-2z" fill="#fff" /></g><g transform="translate(56, 112) scale(0.5, 0.5)"><ns0:path fill="#0078B9" d="M0 0h56v56H0z" /><ns0:path d="M24.422 20.15c.05-.321.213-.614.462-.825a1.37 1.37 0 01.89-.325h8.583c1.016 0 1.87.186 2.737.325.586.092 1.168.494 1.733.675.426.14.628-.042.993.15.106-.672.18-1.303.18-1.903.003-1.831-.52-3.344-1.635-4.608C36.732 11.79 33.785 11 30.013 11h-10.95c-.77 0-1.427.557-1.546 1.314L13.012 40.92a.928.928 0 00.213.753.94.94 0 00.715.328h6.76l1.641-10.581 2.08-11.27z" fill="#fff" /><ns0:path d="M39.849 19.892c-.033.208-.07.42-.112.638-1.444 7.366-6.385 9.911-12.694 9.911h-3.212c-.772 0-1.422.557-1.542 1.313l-1.645 10.364-.466 2.938a.811.811 0 00.468.869c.107.05.225.075.343.075h5.698c.675 0 1.248-.487 1.354-1.148l.056-.288 1.005-7.042.069-.371c.105-.664.679-1.151 1.354-1.151h.852c5.52 0 10.158-1.926 11.42-8.37.528-2.692.007-4.962-1.389-6.543a5.444 5.444 0 00-1.56-1.195z" fill="#ADCFE5" /><ns0:path d="M38.33 19.5c-.461-.133-.93-.236-1.404-.31a17.956 17.956 0 00-2.832-.205h-8.582c-.327 0-.643.116-.891.327a1.357 1.357 0 00-.462.824L22.34 31.419l-.053.335c.057-.366.244-.7.527-.94.283-.24.643-.373 1.015-.373h3.213c6.31 0 11.25-2.546 12.693-9.91.044-.219.08-.431.112-.639-.38-.198-.786-.159-1.195-.291a10.422 10.422 0 00-.323-.101z" fill="#E6EFF6" /></g><g transform="translate(84, 112) scale(0.5, 0.5)"><ns0:path fill="#01B1AC" d="M0 0h56v56H0z" /><ns0:path d="M14.67 25.55l-2.82 2.78a6.2 6.2 0 000 8.84 6.43 6.43 0 008.97 0L27.09 31a1.44 1.44 0 011.82 0l-5.4-5.32a6.4 6.4 0 00-8.84-.12z" fill="#DDD" /><ns0:path d="M44.15 28.33l-11.66-11.5-.48-.43a6.43 6.43 0 00-8.5.42l-8.85 8.73a6.4 6.4 0 018.85.13L28.9 31l6.26 6.17a6.43 6.43 0 008.98 0 6.21 6.21 0 000-8.84z" fill="#fff" /></g><g transform="translate(112, 112) scale(0.5, 0.5)"><ns0:path fill="url(#paint0_linear)" d="M0 0h56v56H0z" /><ns0:path d="M12.004 33.992c2.297 0 3.996-2.026 3.996-4.18v-9.81h2.004V36H16v-1.73C14.973 35.396 13.261 36 11.744 36c-3.424 0-5.74-2.916-5.74-6.157v-9.841H8v9.81c0 2.188 1.68 4.18 4.004 4.18zM22 20v5.73c1.078-1.08 2.796-1.708 4.325-1.708 1.586 0 3.138.628 4.261 1.753a6.05 6.05 0 011.75 4.247c0 1.575-.637 3.109-1.75 4.224a6.044 6.044 0 01-4.261 1.753c-1.532 0-3.244-.625-4.325-1.708V36h-2V20h2zm.523 11.572A3.988 3.988 0 0026.168 34c1.582 0 2.984-.991 3.61-2.427a3.982 3.982 0 000-3.112c-.624-1.453-2.019-2.416-3.61-2.416-1.586 0-3.01.965-3.634 2.416a4.045 4.045 0 00-.01 3.112zM36.932 24.517a5.946 5.946 0 014.62-.023c2.203.94 3.431 3.17 3.431 5.505V31h-9.307c.123.767.716 1.569 1.29 2.066a3.791 3.791 0 002.5.933c1.36 0 2.46-.562 3.297-1.685l1.637 1.213c-1.169 1.572-2.982 2.45-4.934 2.45-1.596 0-3.174-.579-4.317-1.709A5.996 5.996 0 0133.389 30c-.001-2.335 1.389-4.538 3.543-5.482zM35.72 29h6.975c-.371-1.688-1.699-2.978-3.477-2.978-1.783 0-3.1 1.298-3.498 2.978zM48 29.212V36h-2V24h2v1.685c.573-.937 1.922-1.506 2.979-1.506H52v2.112h-1.178c-1.489 0-2.822 1.44-2.822 2.921z" fill="#fff" /><ns0:defs><ns0:linearGradient id="paint0_linear" x1="10.418" y1="9.712" x2="68.147" y2="76.017" gradientUnits="userSpaceOnUse"><ns0:stop stop-color="#1A1E21" /><ns0:stop offset="1" stop-color="#06060A" /></ns0:linearGradient></ns0:defs></g><g transform="translate(140, 112) scale(0.5, 0.5)"><ns0:path fill="#F44238" d="M0 0h56v56H0z" /><ns0:path d="M18 18h11.55c.25 0 .45-.15.45-.4v-2.16c0-.24-.2-.44-.45-.44h-14.1c-.25 0-.45.2-.45.44v6.11c0 .25.2.45.45.45h2.1c.24 0 .45-.2.45-.45V18zm20 20H27.45c-.25 0-.45.2-.45.45v2.1c0 .25.2.45.45.45h13.1c.25 0 .45-.2.45-.44v-6.12c0-.24-.2-.44-.45-.44h-2.07c-.25 0-.48.2-.48.44V38zm2.54-23h-7.09c-.25 0-.45.2-.45.45v2.12c0 .25.2.43.45.43h2.39L15 37.93v2.61c0 .25.2.46.46.46h8.1c.25 0 .44-.2.44-.46v-2.06c0-.25-.2-.48-.45-.48h-4.3L38 20.07v1.5c0 .26.23.43.48.43h2.06c.25 0 .46-.18.46-.43v-6.11c0-.26-.2-.46-.46-.46z" fill="#fff" /></g><g transform="translate(168, 112) scale(0.5, 0.5)"><ns0:path fill="#F0F3FA" d="M0 0h56v56H0z" /><ns0:g clip-path="url(#clip0_3350)"><ns0:path fill-rule="evenodd" clip-rule="evenodd" d="M28.496 21.052a.97.97 0 00-.01.012C25.617 17.397 23.217 16 20.345 16 14.488 16 10 23.646 10 31.742 10 36.806 12.442 40 16.533 40c2.945 0 5.062-1.392 8.827-7.994 0 0 1.561-2.765 2.64-4.68v-.076l.496-6.198zM16.68 36.092c1.699 0 2.756-1.074 5.809-5.874 0 0 1.387-2.21 3.676-5.739-2.41-3.465-3.987-4.557-5.872-4.557-3.481 0-6.402 6.01-6.402 11.884 0 2.746 1.04 4.287 2.79 4.287z" fill="url(#paint0_linear_3350)" /><ns0:path fill-rule="evenodd" clip-rule="evenodd" d="M28.015 27.322L28.5 21.5l-.036-.465.023.029C30.577 18.23 32.884 16 35.836 16 41.409 16 45.998 23.118 46 31.593 46 36.763 43.782 40 39.797 40c-3.473 0-5.39-1.958-8.827-7.73l-1.766-2.979a138.95 138.95 0 00-1.19-1.97zm3.883-1.24l2.11 3.53c3.301 5.329 4.131 6.48 5.87 6.483 1.814 0 2.69-1.557 2.69-4.238 0-7.035-3.101-12.761-6.979-12.761-1.866 0-3.435 1.469-5.337 4.414a76.404 76.404 0 011.646 2.572z" fill="url(#paint1_linear_3350)" /><ns0:path d="M28.487 21.064C30.577 18.23 32.884 16 35.836 16 41.409 16 45.998 23.118 46 31.593l-3.433.264c0-7.035-3.1-12.761-6.978-12.761-1.866 0-3.435 1.469-5.337 4.414l-2.244 3.801a6715.759 6715.759 0 01-2.648 4.695C21.595 38.608 19.478 40 16.533 40l.148-3.907c1.699 0 2.756-1.075 5.809-5.875 0 0 1.387-2.21 3.676-5.739l2.32-3.415z" fill="url(#paint2_linear_3350)" /><ns0:path d="M31.898 26.082C27.322 18.616 24.274 16 20.344 16l-.05 3.922c2.574 0 4.569 2.035 8.908 9.367l.266.446 2.43-3.653z" fill="#0466E0" /></ns0:g><ns0:defs><ns0:linearGradient id="paint0_linear_3350" x1="19.5" y1="18" x2="25.5" y2="30.5" gradientUnits="userSpaceOnUse"><ns0:stop stop-color="#0064E0" /><ns0:stop offset="1" stop-color="#0082FB" /></ns0:linearGradient><ns0:linearGradient id="paint1_linear_3350" x1="42.5" y1="32" x2="32" y2="28" gradientUnits="userSpaceOnUse"><ns0:stop stop-color="#0181FA" /><ns0:stop offset="1" stop-color="#0967DF" /></ns0:linearGradient><ns0:linearGradient id="paint2_linear_3350" x1="22.5" y1="29" x2="49" y2="30" gradientUnits="userSpaceOnUse"><ns0:stop stop-color="#0082FB" /><ns0:stop offset="1" stop-color="#0180F9" /></ns0:linearGradient><ns0:clipPath id="clip0_3350"><ns0:path fill="#fff" transform="translate(10 16)" d="M0 0h36v24H0z" /></ns0:clipPath></ns0:defs></g><g transform="translate(196, 112) scale(0.5, 0.5)"><ns0:path fill="url(#aorxyfp1y)" d="M0 0h56v56H0z" /><ns0:path d="M30.66 11.96C32.6 13.55 43 24.5 44.93 26.52c.16.19.02.48-.22.48h-4.53c-.47 0-.6-.08-.9-.41l-1.78-1.95a145.98 145.98 0 0 0-8.15-8.08A2.28 2.28 0 0 0 28 16c-.05 0-.72.02-1.35.56a144.74 144.74 0 0 0-8.15 8.08l-1.77 1.95c-.3.33-.44.41-.91.41h-4.53c-.24 0-.38-.3-.22-.48 1.92-2.02 12.32-12.97 14.28-14.55a4.1 4.1 0 0 1 5.3 0zm-5.32 32.07C23.4 42.45 13 31.5 11.07 29.48c-.16-.19-.02-.48.21-.48h4.53c.48 0 .62.08.91.41l1.78 1.95c1.88 2.06 6.47 6.63 8.14 8.08.63.54 1.3.56 1.36.56.06 0 .72-.02 1.35-.56 1.68-1.44 6.26-6.01 8.14-8.08l1.78-1.95c.3-.33.44-.41.91-.41h4.53c.24 0 .38.3.22.48-1.92 2.02-12.33 12.97-14.28 14.55a4.1 4.1 0 0 1-5.3 0zm1.23-12.42c-.84-.8-2.32-2.28-2.87-2.95-.25-.3-.23-.66-.23-.66s-.02-.37.23-.67c.55-.66 2.03-2.15 2.87-2.95.34-.33.43-.54.43-.95v-4.52c0-.18-.2-.3-.37-.14-1.87 1.8-6.04 6.08-7.44 7.74-.67.74-.6 1.49-.6 1.49s-.07.75.6 1.48c1.4 1.66 5.57 5.95 7.44 7.75.17.15.37.06.37-.16v-4.5c0-.42-.09-.63-.43-.96zm5.73-2.95c-.55.67-2.03 2.16-2.87 2.95-.34.34-.42.54-.43.95v4.51c0 .22.2.31.37.16 1.87-1.8 6.04-6.08 7.44-7.75.67-.73.6-1.48.6-1.48s.07-.75-.6-1.48c-1.4-1.67-5.57-5.95-7.44-7.75-.17-.15-.37-.06-.37.16v4.5c0 .42.09.62.43.96.84.8 2.32 2.28 2.87 2.95.25.3.23.66.23.66s.02.37-.23.66z" fill="#FFB013" /><ns0:defs><ns0:linearGradient id="aorxyfp1y" x1="10.42" y1="9.71" x2="68.15" y2="76.02" gradientUnits="userSpaceOnUse"><ns0:stop stop-color="#1A1E21" /><ns0:stop offset="1" stop-color="#06060A" /></ns0:linearGradient></ns0:defs></g><g transform="translate(224, 112) scale(0.5, 0.5)"><ns0:path fill="url(#paint0_linear)" d="M0 0h56v56H0z" /><ns0:path d="M9 16h6l.002 14.425c0 2.37 1.062 3.78 1.901 4.385-.889.807-4.139 1.513-6.164-.201-1.194-1.01-1.737-2.672-1.737-4.235L9 16zm36.002 12v-2H47v-5h-1.998c-.502-3.5-3.544-6-7.002-6-3.983 0-7.998 3-7.998 7.531V35.5c1.134.163 2.94-.261 4.09-1.235 1.193-1.01 1.916-2.702 1.916-4.265L36 29h2.002v-5l-2-.01-.007-.668.007-.322c0-1.032.486-2 1.498-2 1.011 0 1.5.968 1.5 2v5c.002 4.632 4.017 7.5 8 7.5v-5.524c-1.011 0-1.998-.944-1.998-1.976zm-22-7v7.898c0 .46.028 1.102-.5 1.102-.472 0-.5-.643-.5-1.102V21h-6v9.324c0 1.714.57 3.881 3.161 4.587 2.595.707 3.48-.756 3.48-.756-.136.964-.406 1.67-1.839 1.82-1.084.115-2.613-.172-3.304-.475v5c1.762.53 4.299.64 5.973.309 3.31-.655 5.529-3.478 5.529-7.234V21h-6z" fill="#fff" /><ns0:defs><ns0:linearGradient id="paint0_linear" x1="0" y1="0" x2="56" y2="56" gradientUnits="userSpaceOnUse"><ns0:stop stop-color="#FF08F3" /><ns0:stop offset="1" stop-color="#FF09C8" /></ns0:linearGradient></ns0:defs></g><g transform="translate(252, 112) scale(0.5, 0.5)"><ns0:path fill="url(#paint0_linear)" d="M0 0h56v56H0z" /><ns0:path d="M35 21H20.984l-8.716-9H44v31.733L35 35.016V21zM21 35V22.465l-9 8.973V44h12.56l8.974-9H21z" fill="#fff" /><ns0:defs><ns0:linearGradient id="paint0_linear" x1="10.418" y1="9.712" x2="68.147" y2="76.017" gradientUnits="userSpaceOnUse"><ns0:stop stop-color="#1A1E21" /><ns0:stop offset="1" stop-color="#06060A" /></ns0:linearGradient></ns0:defs></g><g transform="translate(0, 140) scale(0.5, 0.5)"><ns0:path fill="#00D84D" d="M0 0h56v56H0z" /><ns0:path d="M28 12c-8.836 0-16 7.164-16 16 0 8.837 7.164 16 16 16 8.837 0 16-7.163 16-16 0-8.836-7.163-16-16-16zm7.337 23.077a.997.997 0 01-1.371.33c-3.757-2.294-8.486-2.814-14.056-1.542a.998.998 0 01-.443-1.945c6.094-1.392 11.322-.793 15.54 1.785.47.288.619.902.33 1.372zm1.959-4.357a1.247 1.247 0 01-1.716.411c-4.3-2.643-10.857-3.409-15.943-1.865a1.25 1.25 0 01-1.557-.83 1.25 1.25 0 01.832-1.557c5.81-1.763 13.034-.909 17.973 2.126.587.361.772 1.13.41 1.715zm.168-4.537c-5.157-3.063-13.665-3.344-18.588-1.85a1.496 1.496 0 11-.869-2.864c5.652-1.716 15.047-1.384 20.984 2.14.713.422.946 1.34.524 2.051a1.495 1.495 0 01-2.05.523h-.001z" fill="#fff" /></g><g transform="translate(28, 140) scale(0.5, 0.5)"><ns0:path fill="#FC0001" d="M0 0h56v56H0z" /><ns0:path d="M10 14.04c0 .1.75 1.6.84 1.68.26.39.74 1.03 1.15 1.51a22.38 22.38 0 004.13 3.57c.35.25.7.5 1.07.74.53.35 1.06.67 1.59.98.44.27.9.54 1.34.83 1.4.9 3.47 2.22 4.7 3.58.16.24.27.32.27.2 0-.09-.25-.53-.34-.64a14.43 14.43 0 00-3.55-3.75l-.2-.14c-1.1-.8-2.17-1.58-3.38-2.21a19.05 19.05 0 01-2.9-2.08l-.77-.63c-.77-.6-3.4-3.09-3.67-3.47-.11-.17-.28-.27-.28-.17zm5.62 1.07c-.12.12.56 1.27.65 1.37.27.46 1.66 2.31 2.95 3.15.35.28.77.58 1.2.9.9.66 1.9 1.4 2.72 2.14.87.77 1.55 1.5 1.95 2.1.52.76.98 1.57 1.44 2.37.47.81.94 1.63 1.47 2.4a8.68 8.68 0 003.76 3.26c.65.26 2 .36 3.77.28 1.42-.05 2.79 0 4.13.3.57.14 1.3.48 1.74.7 1.1.53 1.98 1.17 2.92 2.1.62.62.64.64.68.48 0-.63-.09-.94-.29-1.35a5.3 5.3 0 00-.85-1.2c-.16-.2-.27-.39-.27-.47 0-.24-.24-.62-.51-.82a9.51 9.51 0 00-2.05-.95c-.28-.09-.57-.19-.8-.25a9.2 9.2 0 01-1.53-.54.89.89 0 01-.38-.63c0-.36.15-.72.31-1.08.12-.28.24-.55.29-.82.2-1.15-.43-1.88-2.46-2.88-1.1-.53-2.27-.95-3.44-1.32l-3.78-1.17-2.54-.78c-1.18-.34-2.45-.95-3.57-1.5l-.08-.03a20.64 20.64 0 01-7.3-5.67l-.09-.11c0-.01-.03 0-.04.02zm26.77 17.9c.61.2.8.36.95.72.14.34-.1.43-.39.13-.1-.1-.27-.24-.38-.31a2.37 2.37 0 01-.29-.2.27.27 0 00-.16-.08c-.08 0-.15-.12-.15-.27 0-.1.08-.1.42.01zM11.32 18.83c0 .07.5 1.06.6 1.17a24.17 24.17 0 004.19 3.76 35.56 35.56 0 004.43 2.43c.82.4 1.65.79 2.43 1.26a12.23 12.23 0 012.33 1.86c.01 0-.01-.06-.05-.14-.09-.21-.3-.47-.43-.64l-.01-.01c-.44-.57-.8-.91-1.9-1.84-.7-.6-1.5-1.03-2.31-1.46-.52-.27-1.04-.55-1.53-.87-1.49-.73-2.6-1.46-3.84-2.28l-.05-.04c-.54-.42-1.1-.84-1.66-1.25l-.08-.06c-.33-.25-.76-.64-1.57-1.42-.3-.3-.55-.5-.55-.47zm6.8 10.58c-.06.06.94.98 1.6 1.47.69.5 2.52 1.41 3.18 1.73 1.11.54 1.96.7 2.7.85.33.07.65.13.95.22.24.1.48.17.73.24.26.08.52.15.76.26.98.42 1.24.52 1.28.5.02-.03-.04-.1-.14-.18-.3-.23-.57-.49-.85-.75l-.49-.44c-.3-.26-1.56-1.18-1.83-1.34l-.11-.07c-.74-.43-1.48-.86-2.28-1.2a4.48 4.48 0 01-.27-.12c-.25-.12-.54-.26-.74-.26-.13 0-.13 0 0 .07.32.17 1.34.74 1.34 1.09 0 .03-.04.1-.1.14-.33.28-1.46-.08-2.03-.26l-.2-.07c-.94-.28-2.82-1.3-3.36-1.83-.06-.05-.12-.07-.14-.05zm14.4 7.24a76.01 76.01 0 00-4.17-4.19c-.56-.51-.71-.71-.3-.41a9.2 9.2 0 002.9 1.5c1.41.42 2.76.29 4.2.1a18.4 18.4 0 013.92 0c1.36.31 3.03 1.18 3.86 1.78.19.14.13.14-.25.13h-.42c-1.03 0-1.65.13-2.65.6-.84.4-1.65.77-2.6.82-.75.04-.77.09-.24.56.51.46 1.1.65 2.24.72.67.05 1.1.16 1.27.34.11.13.13.62.05 1.06-.04.23-.16.32-.16.12a2 2 0 00-.3-.72c-.66-.83-2.75-.4-2.75.8 0 .28.21.58.63.9.15.1.26.22.25.23-.05.05-.87-.17-.94-.25a2.43 2.43 0 01-1.03-1.24c-.19-.4-.2-.4-.33-.43a.65.65 0 00-.33.1 2.7 2.7 0 01-1.42.02 2.79 2.79 0 01-.78-.38c0-.03.15-.03.33 0 .3.03.33.02.33-.08 0-.11-.04-.14-.4-.32-.22-.1-.87-.55-1.12-.75-.54-.47-1.4-1.31-1.58-1.56-.11-.15-.02-.14.16.02a3.95 3.95 0 001.48.76c.14 0 .22-.12.15-.23z" fill="#fff" /></g><g transform="translate(56, 140) scale(0.5, 0.5)"><ns0:path fill="#0062FF" d="M0 0h56v56H0z" /><ns0:path d="M19.995 16L12 21l7.995 5L28 21l-8.005-5zm16 0L28 21l7.995 5L44 21l-8.005-5zM12 31l7.995 5L28 31l-8.005-5L12 31zm23.995-5L28 31l7.995 5L44 31l-8.005-5zm-16 12L28 43l7.995-5L28 32.871 19.995 38z" fill="#fff" /></g><g transform="translate(84, 140) scale(0.5, 0.5)"><ns0:path fill="url(#paint0_linear)" d="M0 0h56v56H0z" /><ns0:path d="M9 27H7v-1.581c0-.332.001-1.035-.5-1.035-.456 0-.5.6-.5.909v4.522c0 .313.05.892.5.892.486 0 .5-.614.5-.958V29h-.257v-1.452H9V32H8l-.188-.667c-.27.404-.816.667-1.488.667-1.023 0-2.084-.553-2.256-1.615-.045-.28-.068-.7-.068-1.26v-3.033C4 24.246 4.54 23 6.5 23c2.046 0 2.5.974 2.5 2.805V27zm3 .83h-2c0-.547-.04-1.137.2-1.642.404-.842 1.49-1.188 2.322-1.188.912 0 2.12.29 2.365 1.384.08.354.113 1.081.113 2.184V32h-2v-.677c-.279.476-.697.677-1.308.677-.4 0-.767-.063-1.1-.263C9.986 31.376 10 30.49 10 29.88c0-1.08.732-1.33 1.675-1.654.75-.261 1.193-.452 1.246-.543.053-.09.079-.274.079-.553 0-.286-.063-.824-.478-.824-.43 0-.522.519-.522.824v.7zm1 .914c-.366.238-.854.435-.912.596-.059.161-.088.392-.088.694 0 .305.096.809.522.809.4 0 .478-.43.478-.727v-1.372zM18 25v.879c.354-.503.969-.879 1.595-.879.61 0 1.054.376 1.405.879.385-.503.883-.879 1.471-.879C23.711 25 24 26.075 24 27.176V32h-2v-4.432c0-.303 0-1.262-.5-1.262s-.5.945-.5 1.262V32h-2v-4.59c0-.305-.047-1.104-.5-1.104s-.5.67-.5.985V32h-2v-7h2zm12 3.699h-3v1.442c0 .287.114.714.5.714.456 0 .5-.504.5-.844V29h2c0 .477.035 1.108-.088 1.574-.284 1.075-1.334 1.462-2.328 1.462C26 32.036 25 31.181 25 29.493v-1.945c0-1.573.923-2.548 2.426-2.548C29.212 25 30 26.116 30 27.814v.885zm-2-1.086v-.488c0-.252-.111-.819-.5-.819s-.5.504-.5.82v.487h1z" fill="#fff" /><ns0:path d="M36 26h-2v-.833c0-.288-.13-.647-.499-.647-.286 0-.501.2-.501.622 0 .596.292 1.032.803 1.3 1.438.76 2.197 1.497 2.197 3.221C36 31.26 34.98 32 33.562 32 31.678 32 31 30.86 31 29h2v.804c0 .334.1.715.519.715.316 0 .481-.22.481-.655 0-.48-.132-.792-.28-.94-.15-.147-.42-.595-1.011-.94-1.071-.63-1.709-1.127-1.709-2.536C31 23.77 31.885 23 33.356 23c1.765 0 2.644.724 2.644 2.448V26zm3-2v1h1v1h-1v4.115c0 .439.155.613.206.663.05.05.42.222.794.222v1h-.912c-.52 0-.892-.02-1.114-.058a1.248 1.248 0 01-.588-.266.871.871 0 01-.317-.478c-.041-.179-.069-.6-.069-1.264V26h-.485v-1H37v-1h2zm7 3.463v1.634C46 30.77 45.379 32 43.5 32c-1.68 0-2.5-.9-2.5-2.682v-1.71c0-1.613.772-2.608 2.5-2.608 1.639 0 2.5.86 2.5 2.463zm-2-.503c0-.273-.106-.72-.5-.72-.398 0-.5.441-.5.72v3.011c0 .265.12.807.5.807.37 0 .5-.471.5-.741V26.96zM49 25v.569c.21-.31.54-.569 1.155-.569 1.356-.05 1.829.631 1.845 1.903v2.81c0 1.527-.973 2.909-2.48 2.068-.241-.117-.52-.492-.52-.63V33h-2v-8h2zm1 1.999c0-.306-.061-.863-.503-.863-.437 0-.497.563-.497.863v2.86c0 .304.073.808.52.808.41 0 .48-.523.48-.808V27z" fill="#FF4D44" /><ns0:defs><ns0:linearGradient id="paint0_linear" x1="10.418" y1="9.712" x2="68.147" y2="76.017" gradientUnits="userSpaceOnUse"><ns0:stop stop-color="#1A1E21" /><ns0:stop offset="1" stop-color="#06060A" /></ns0:linearGradient></ns0:defs></g><g transform="translate(112, 140) scale(0.5, 0.5)"><ns0:path fill="#FB3147" d="M0 0h56v56H0z" /><ns0:path d="M38.16 12.934a2 2 0 10-3.43-2.058l-2.897 4.826a12.87 12.87 0 00-3.828-.578c-7.111 0-12.876 5.765-12.876 12.876 0 1.366.212 2.682.606 3.917l4.375-7.292A8.586 8.586 0 0136.59 28a8.584 8.584 0 01-13.887 6.752l2.785-4.745a3.219 3.219 0 10-.528-3.052l-5.422 9.24-4.123 6.871a2 2 0 103.43 2.058l3.371-5.62a12.823 12.823 0 005.789 1.372c7.111 0 12.876-5.765 12.876-12.876a12.86 12.86 0 00-5.45-10.52l2.728-4.546z" fill="#fff" /></g><g transform="translate(140, 140) scale(0.5, 0.5)"><ns0:path fill="#F7931A" d="M0 0h56v56H0z" /><ns0:path d="M39.936 24.704c.515-3.494-2.13-5.357-5.773-6.622l1.18-4.708-2.877-.716-1.148 4.592-2.296-.549 1.164-4.625-2.878-.715-1.181 4.725-1.83-.433v-.016l-3.976-.999-.766 3.078s2.13.5 2.096.516c1.165.3 1.365 1.065 1.332 1.664l-1.332 5.39.3.1-.316-.067-1.88 7.537c-.133.35-.5.882-1.314.665.033.05-2.08-.499-2.08-.499l-1.43 3.278 3.743.931 2.046.533-1.198 4.775 2.878.715 1.165-4.725 2.312.599-1.18 4.708 2.877.716 1.181-4.775c4.908.931 8.602.566 10.15-3.877 1.247-3.576-.067-5.623-2.646-6.987 1.88-.416 3.294-1.664 3.66-4.21h.017zm-6.572 9.217c-.882 3.577-6.904 1.63-8.85 1.164l1.58-6.338c1.946.499 8.202 1.447 7.27 5.157v.017zm.882-9.267c-.799 3.244-5.823 1.597-7.437 1.198l1.43-5.74c1.631.4 6.855 1.165 6.007 4.542z" fill="#fff" /></g><g transform="translate(168, 140) scale(0.5, 0.5)"><ns0:path fill="#F12E45" d="M0 0h56v56H0z" /><ns0:path d="M28 39.783c-6.508 0-11.783-5.275-11.783-11.783 0-6.508 5.275-11.783 11.783-11.783 6.508 0 11.783 5.275 11.783 11.783 0 6.508-5.275 11.783-11.783 11.783zM28 12c-8.837 0-16 7.164-16 16 0 8.837 7.163 16 16 16s16-7.163 16-16c0-8.836-7.163-16-16-16z" fill="#fff" /><ns0:circle cx="24" cy="24" r="3" fill="#fff" /><ns0:circle cx="32" cy="24" r="3" fill="#fff" /><ns0:circle cx="32" cy="32" r="3" fill="#fff" /><ns0:circle cx="24" cy="32" r="3" fill="#fff" /></g><g transform="translate(196, 140) scale(0.5, 0.5)"><ns0:path fill="url(#paint0_linear)" d="M0 0h56v56H0z" /><ns0:path d="M41 32.988c-.172.485-.353.948-.544 1.392a16.208 16.208 0 01-1.661 2.9c-.871 1.21-1.586 2.046-2.137 2.51-.853.764-1.768 1.155-2.748 1.176-.703 0-1.55-.194-2.538-.588-.99-.393-1.9-.587-2.732-.587-.872 0-1.808.194-2.81.587-1.002.394-1.81.6-2.427.62-.94.039-1.875-.362-2.81-1.207-.596-.506-1.342-1.373-2.236-2.6-.959-1.31-1.747-2.832-2.364-4.566-.662-1.872-.993-3.685-.993-5.44 0-2.01.447-3.744 1.342-5.197a7.765 7.765 0 012.812-2.764 7.727 7.727 0 013.8-1.043c.746 0 1.724.225 2.94.665 1.212.443 1.99.667 2.332.667.255 0 1.12-.262 2.585-.785 1.386-.485 2.556-.686 3.515-.607 2.597.204 4.547 1.2 5.845 2.992-2.322 1.368-3.47 3.283-3.448 5.74.021 1.915.735 3.509 2.139 4.774A7.09 7.09 0 0041 32.988zM34.468 11c.02.2.03.401.03.6 0 1.5-.563 2.902-1.686 4.198-1.357 1.542-2.998 2.432-4.778 2.292a4.54 4.54 0 01-.036-.569c0-1.44.645-2.982 1.791-4.242.572-.638 1.3-1.169 2.18-1.592.882-.417 1.715-.647 2.498-.687z" fill="#fff" /><ns0:defs><ns0:linearGradient id="paint0_linear" x1="10.418" y1="9.712" x2="68.147" y2="76.017" gradientUnits="userSpaceOnUse"><ns0:stop stop-color="#1A1E21" /><ns0:stop offset="1" stop-color="#06060A" /></ns0:linearGradient></ns0:defs></g><g transform="translate(224, 140) scale(0.5, 0.5)"><ns0:path fill="#F0F3FA" d="M0 0h56v56H0z" /><ns0:circle cx="28" cy="28" r="17" fill="#9391F7" /><ns0:path d="M41 28a13 13 0 0 0-26 0h3a10 10 0 0 1 20 0h3Zm-14-1.5a2.5 2.5 0 1 1-5 0 2.5 2.5 0 0 1 5 0Zm4.5 2.5a2.5 2.5 0 1 0 0-5 2.5 2.5 0 0 0 0 5Z" fill="#F0F3FA" /></g><g transform="translate(252, 140) scale(0.5, 0.5)"><ns0:path fill="#380D76" d="M0 0h56v56H0z" /><ns0:path d="M28 44l5.9-18H22.1L28 44z" fill="#E34329" /><ns0:path d="M13.86 26l-1.8 5.47c-.16.5.01 1.04.44 1.35L28 44 13.86 26z" fill="#FCA325" /><ns0:path d="M13.86 26h8.25l-3.55-11.56a.6.6 0 0 0-1.16 0L13.86 26z" fill="#E34329" /><ns0:path d="M42.15 26l1.79 5.47a1.2 1.2 0 0 1-.44 1.35L28 44l14.15-18z" fill="#FCA325" /><ns0:path d="M42.15 26H33.9l3.55-11.56a.6.6 0 0 1 1.16 0L42.15 26z" fill="#E34329" /><ns0:path d="M28 44l5.9-18h8.25L28 44zM28 44L13.86 26h8.25L28 44z" fill="#FC6E26" /></g><g transform="translate(0, 168) scale(0.5, 0.5)"><ns0:path fill="#FEFD00" d="M0 0h56v56H0z" /><ns0:path d="M28.23 28.68c0 .78-.32 1.96-1.2 1.96-.82 0-.82-.66-.82-1.02v-1.84c0-.24 0-1.03.79-1.03.87 0 1.23 1.1 1.23 1.93Zm-4.5-1.95c.4.11.53.32.51 1.2l.01 3.7v1.26c0 .33-.05.57-.49.64a.22.22 0 0 0-.18.22v.03a.21.21 0 0 0 .07.15.23.23 0 0 0 .16.06l1.12-.02a84.8 84.8 0 0 1 1.85.01.23.23 0 0 0 .13-.11.21.21 0 0 0-.03-.22.23.23 0 0 0-.14-.09c-.49-.08-.51-.42-.51-.86v-1.44c0-.04 0-.07.03-.1a.23.23 0 0 1 .3-.08c.23.1.56.22 1.02.22 1.48 0 2.75-1.2 2.75-2.93 0-1.26-.89-2.45-2.32-2.45-.59 0-1.05.15-1.51.44a.23.23 0 0 1-.3-.06.22.22 0 0 1-.05-.1 4.76 4.76 0 0 0-.07-.28.22.22 0 0 0-.16-.09h-.09c-.41.12-1.26.33-2.06.41a.21.21 0 0 0-.15.07.21.21 0 0 0-.06.15v.06c0 .05.02.1.05.13a.2.2 0 0 0 .12.08Zm10.76 4.47a27.46 27.46 0 0 1 2.17.02.28.28 0 0 0 .16-.15.25.25 0 0 0 .02-.1.26.26 0 0 0-.07-.18.27.27 0 0 0-.16-.08c-.25-.03-.4-.1-.5-.21-.15-.18-.16-.25-.19-1.46v-3.71c0-1.52 0-1.72.7-1.81.07 0 .13-.04.18-.1a.25.25 0 0 0-.03-.36.28.28 0 0 0-.2-.06 40.25 40.25 0 0 1-3.47 0 .27.27 0 0 0-.21.44c.04.05.1.08.16.1.36.05.5.1.6.3.08.16.09.42.1 1.3v3.8c0 1.45-.03 1.68-.7 1.77a.27.27 0 0 0-.16.1.25.25 0 0 0 .04.36c.05.04.12.07.19.06.4-.02.68-.03 1.37-.03Zm2.64-.45a.23.23 0 0 0-.2.23V31a.22.22 0 0 0 .07.17.24.24 0 0 0 .19.06 31.08 31.08 0 0 1 2.78 0 .24.24 0 0 0 .14-.13.23.23 0 0 0 .02-.1v-.03c0-.1-.07-.2-.17-.22-.3-.07-.39-.22-.39-.74l-.01-2.72a.23.23 0 0 1 .1-.2c.23-.17.48-.28.8-.28.78 0 .8.63.81 1.18l.03 1.79c0 .7-.04.85-.38.95a.23.23 0 0 0-.18.22V31a.22.22 0 0 0 .08.17.24.24 0 0 0 .18.06 27.54 27.54 0 0 1 2.75-.01.24.24 0 0 0 .14-.13.23.23 0 0 0 .02-.09.3.3 0 0 0-.05-.15.24.24 0 0 0-.14-.08c-.4-.07-.48-.24-.48-.53l.02-.67v-1.6c-.04-.63-.14-1.22-.72-1.6a2.25 2.25 0 0 0-1.27-.37c-.62 0-1.05.18-1.5.43a.25.25 0 0 1-.3-.04.23.23 0 0 1-.05-.1l-.03-.08a.23.23 0 0 0-.12-.14.25.25 0 0 0-.19 0c-.47.15-1.36.4-1.95.5a.23.23 0 0 0-.2.22v.03c0 .05.01.1.04.14.03.04.08.07.13.08.28.08.48.24.48.81v.73l.01.73c0 .17 0 .86-.03 1.12-.04.22-.25.3-.43.32Zm12.19-.32a.28.28 0 0 0-.04-.44.3.3 0 0 0-.38.02c-.32.27-.69.47-1.13.47-.83 0-1.59-.87-1.59-2.17 0-.56.2-1.7.88-1.7.37 0 .6.4.71.61l.03.06c.2.44.23.5.33.58a.75.75 0 0 0 1.27-.52c0-.82-1.1-1.3-2.27-1.3-1.77 0-3.22 1.05-3.22 2.68 0 1.56 1.25 2.7 2.95 2.7.92-.01 1.8-.37 2.46-1ZM52 30.4c0-.6-.5-1.05-1.08-1.05-.49 0-1.06.36-1.06 1.07a1 1 0 0 0 .32.72c.2.19.47.29.75.29.57 0 1.07-.45 1.07-1.03ZM4 28.94a25.81 25.81 0 0 1 .16 2.33.27.27 0 0 0 .17.15h.13a.29.29 0 0 0 .22-.12l.1-.17a.27.27 0 0 1 .18-.12.29.29 0 0 1 .2.03 3.7 3.7 0 0 0 1.99.53c1.95 0 3.19-1.25 3.19-2.74 0-1.51-1.18-2-2.03-2.33l-.55-.2c-.35-.12-.7-.25-1.03-.4-.25-.12-.82-.38-.82-1 0-.54.5-1.2 1.34-1.2.66 0 1.18.35 1.57.87a3.38 3.38 0 0 1 .43.9.27.27 0 0 0 .2.12.3.3 0 0 0 .22-.05.27.27 0 0 0 .1-.2c0-.04 0-.08-.02-.11-.1-.65-.17-1.3-.22-1.95a.27.27 0 0 0-.1-.18.29.29 0 0 0-.42.05l-.1.15a.28.28 0 0 1-.34.1 3.84 3.84 0 0 0-1.54-.31c-1.65 0-2.95.92-2.95 2.47 0 1.4 1.1 1.9 1.58 2.12h.01c.22.1.44.18.66.26l.39.15c1.16.43 1.76.71 1.76 1.42 0 .77-.66 1.38-1.55 1.38-1.22 0-1.8-.87-1.97-1.12-.18-.29-.32-.6-.4-.92a.27.27 0 0 0-.12-.16.29.29 0 0 0-.2-.04.28.28 0 0 0-.18.1.26.26 0 0 0-.06.2Zm6.8 1.81a.23.23 0 0 0-.2.23V31a.22.22 0 0 0 .08.17.24.24 0 0 0 .18.06 31.09 31.09 0 0 1 2.78 0 .24.24 0 0 0 .15-.13.23.23 0 0 0 .02-.1v-.03c0-.1-.07-.2-.18-.22-.29-.07-.38-.22-.38-.74 0-.51 0-2.14-.02-2.72a.23.23 0 0 1 .1-.2c.24-.17.49-.28.8-.28.78 0 .8.63.82 1.18l.02 1.79c.01.7-.03.85-.38.95a.23.23 0 0 0-.18.22V31a.23.23 0 0 0 .08.17.24.24 0 0 0 .19.06 27.56 27.56 0 0 1 2.75-.01.24.24 0 0 0 .13-.13.22.22 0 0 0 .02-.09c0-.05-.01-.1-.05-.15a.24.24 0 0 0-.14-.08c-.39-.07-.47-.24-.47-.53l.01-.67.01-.6v-1c-.05-.63-.14-1.22-.72-1.6a2.25 2.25 0 0 0-1.27-.37c-.63 0-1.05.18-1.5.43a.25.25 0 0 1-.3-.04.23.23 0 0 1-.06-.1l-.03-.08a.23.23 0 0 0-.12-.14.25.25 0 0 0-.18 0 16 16 0 0 1-1.96.5.24.24 0 0 0-.2.22v.03a.24.24 0 0 0 .17.22c.28.08.48.24.48.81l.01.73v.73c0 .17 0 .86-.03 1.12-.03.22-.25.3-.43.32Zm10.12-1.78.03.1v1c0 .05-.01.08-.03.12a.23.23 0 0 1-.08.08.86.86 0 0 1-.51.16c-.45 0-.62-.34-.62-.65 0-.6.53-.83.93-.93a.25.25 0 0 1 .21.04l.07.08Zm2.83 1.5a.24.24 0 0 0-.36-.08.37.37 0 0 1-.21.1c-.31 0-.3-.45-.29-.64l.03-2.56c0-.95-.75-1.27-1.77-1.27-1.48 0-3.1.69-3.1 1.54 0 .42.34.65.71.65.3 0 .63-.15.72-.54l.04-.23c0-.08.02-.15.04-.23.07-.25.28-.48.67-.48.06 0 .54 0 .68.4.05.14.05.56.05.92a.2.2 0 0 1-.06.14.24.24 0 0 1-.14.08c-.94.17-3.03.71-3.03 2.02 0 .43.26 1.14 1.35 1.14.75 0 1.43-.37 1.75-.57a.24.24 0 0 1 .32.05c.07.08.14.16.22.22.26.18.57.28.9.29.3 0 .87-.12 1.44-.68a.23.23 0 0 0 .07-.17.23.23 0 0 0-.03-.1Z" fill="#221F20" /></g></svg>