<?xml version="1.0" encoding="UTF-8"?>
<svg xmlns="http://www.w3.org/2000/svg" xmlns:xlink="http://www.w3.org/1999/xlink" width="23px" height="23px" viewBox="0 0 23 23" version="1.1">
<g id="surface1">
<path style=" stroke:none;fill-rule:nonzero;fill:rgb(0%,0%,0%);fill-opacity:1;" d="M 0 11.5 L 0 23 L 23 23 L 23 0 L 0 0 Z M 13.207031 7.796875 C 13.996094 8.199219 14.398438 9.101562 14.121094 9.832031 C 13.839844 10.578125 13.25 11.007812 12.503906 11.007812 C 11.933594 11.007812 11.605469 10.859375 11.238281 10.449219 C 10.457031 9.585938 10.710938 8.347656 11.789062 7.777344 C 12.132812 7.589844 12.832031 7.605469 13.207031 7.796875 Z M 9.9375 11.992188 L 9.9375 16.265625 L 6.488281 16.265625 L 6.488281 11.171875 L 3.121094 11.171875 L 3.121094 7.722656 L 9.9375 7.722656 Z M 19.960938 7.777344 C 19.960938 7.8125 19.761719 8.304688 19.515625 8.871094 C 19.277344 9.4375 18.785156 10.578125 18.441406 11.417969 C 17.839844 12.855469 17.601562 13.414062 16.757812 15.417969 L 16.402344 16.265625 L 12.410156 16.265625 L 12.699219 15.582031 C 12.863281 15.210938 13.070312 14.71875 13.160156 14.5 C 13.25 14.269531 13.519531 13.628906 13.757812 13.0625 C 14.003906 12.492188 14.40625 11.53125 14.664062 10.925781 C 14.917969 10.316406 15.171875 9.699219 15.238281 9.570312 C 15.296875 9.429688 15.417969 9.132812 15.507812 8.914062 C 15.597656 8.683594 15.753906 8.328125 15.855469 8.109375 L 16.027344 7.722656 L 17.988281 7.722656 C 19.074219 7.722656 19.960938 7.746094 19.960938 7.777344 Z M 19.960938 7.777344 "/>
</g>
</svg>
