<?xml version="1.0" encoding="UTF-8"?>
<svg xmlns="http://www.w3.org/2000/svg" xmlns:xlink="http://www.w3.org/1999/xlink" width="70px" height="70px" viewBox="0 0 70 70" version="1.1">
<g id="surface1">
<path style=" stroke:none;fill-rule:nonzero;fill:rgb(0%,0%,0%);fill-opacity:1;" d="M 0 35 L 0 70 L 70 70 L 70 0 L 0 0 Z M 40.199219 23.726562 C 42.601562 24.949219 43.824219 27.699219 42.976562 29.925781 C 42.125 32.199219 40.324219 33.5 38.050781 33.5 C 36.324219 33.5 35.324219 33.050781 34.199219 31.800781 C 31.824219 29.175781 32.601562 25.398438 35.875 23.675781 C 36.925781 23.101562 39.050781 23.148438 40.199219 23.726562 Z M 30.25 36.5 L 30.25 49.5 L 19.75 49.5 L 19.75 34 L 9.5 34 L 9.5 23.5 L 30.25 23.5 Z M 60.75 23.675781 C 60.75 23.773438 60.148438 25.273438 59.398438 27 C 58.675781 28.726562 57.175781 32.199219 56.125 34.75 C 54.300781 39.125 53.574219 40.824219 51 46.925781 L 49.925781 49.5 L 37.773438 49.5 L 38.648438 47.425781 C 39.148438 46.300781 39.773438 44.800781 40.050781 44.125 C 40.324219 43.425781 41.148438 41.476562 41.875 39.75 C 42.625 38.023438 43.851562 35.101562 44.625 33.25 C 45.398438 31.398438 46.175781 29.523438 46.375 29.125 C 46.550781 28.699219 46.925781 27.800781 47.199219 27.125 C 47.476562 26.425781 47.949219 25.351562 48.25 24.675781 L 48.773438 23.5 L 54.75 23.5 C 58.050781 23.5 60.75 23.574219 60.75 23.675781 Z M 60.75 23.675781 "/>
</g>
</svg>
